<svg xmlns="http://www.w3.org/2000/svg" viewBox="0 0 89.58194 44.423462" width="89.582" height="44.423"><title>elasmosaurus</title><g fill="#000" fill-rule="evenodd"><path d="M70.208 3.26c.05.22.454.082.357.453.557.188 1.162.33 1.338.904.31-.014.378.22.625.27-.11 1.02 1.16 1.39.535 2.352-.14-.102-.186-.295-.447-.273.07-.34-.108-.432-.088-.722-.253.094-.373.094-.625 0 .234-1.263-.994-1.043-1.16-1.9-.305-.202-.71-.305-.892-.632-.072-.346.43-.108.358-.453M70.743 6.787c.61-.136.662.293 1.16.27v.363c-.4.273-.837-.426-1.16 0v-.633M65.747 7.42c.16-.012.19.11.357.09.085.518.452.75.535 1.267.275.312.92.667.624 1.265-.392.006-.263-.518-.713-.453 0-.993-.83-1.147-.803-2.17M53.527 10.947c-.054.234.035.324.267.27.17.792 1.08.835 1.516 1.357-.003.788.683.875.535 1.81.518.94.616 2.892 0 3.707-.09-.088-.18-.18-.267-.27.152-.268.36-.482.267-.996-.186.113.04.643-.445.453v.814c-.428.23-.63.688-.804 1.176-.398.09-.818.465-1.16.814-.193.2-.334.315-.444.633-.404.103-.795.22-.893.632-.236.003-.56-.084-.447.272-.185-.054-.585.112-.624-.09-.09-.272.198-.16.356-.182v-.814c-.376-.107-.39.148-.625.183-.19-.422-1.074-.175-1.426-.633-.288-.112-.068.293-.357.18-.164-.313-1.27-.15-1.606-.543v-.27c-.15-.148-.446-.15-.534-.362-.197-.05-.127.172-.268.18-.168-.1-.41-.127-.446-.36-.902-.02-1.08-.773-1.516-1.267-.09-.272.2-.16.357-.18-.07-.34.11-.433.09-.724.132-.132.482-.265.624-.453.038-.05.04-.4.088-.45.02-.022.168.024.18 0 .05-.118-.156-.506.177-.453-.005-.73.325-1.117.803-1.356v-.45c.358.03.365-.295.714-.272.194-.013.19-.228.177-.453.386.12.26-.322.357-.452.03-.038.475-.136.357-.452.374-.013.49-.288.447-.723.304.322.68.004.892-.27.24-.063.17.186.266.27.658.004 1.31.003 1.517-.45.84-.12 1.176.016 1.874.18zm-.714.904c.18-.088.36-.175.535-.27-.138-.103-.22-.26-.356-.363.107.38-.145.398-.18.634zm-.625 0h.18v-.18h-.18v.18zM49.78 13.21c-.258.26-.374.523-.535.813h-.268c-.175.97-1.016 1.263-1.16 2.26.72-.414.7-1.58 1.517-1.897.207-1.026 1.16-1.297 1.427-2.26-.53.137-.736.836-.98 1.085zm-.357-.363c.28.037.596-.352.357-.542-.094.208-.41.187-.357.542zm2.676 0c-.035.013-.02.153-.09.182-.307.124-.486.383-.714.45-.062.02-.216-.036-.267 0-.046.034-.183.406-.27.454-.28.155-.206.086-.356.272-.13.162-.395.523-.535.633-.053.04-.223-.047-.27 0-.044.044.037.217 0 .27-.097.148-.523.378-.623.454.095.854-.843 1.025-.446 1.897.135.016.33-.032.358.09.002.45.51.388.535.815.518-.104.595.24.98.27.276.068.11-.31.447-.18.146.154.5.095.536.36.83.072 1.4.01 2.14-.18.45-.688.78-1.5 1.34-2.08.01-1.502.158-2.618-.447-3.525-.584-.013-.812-.384-1.34-.453-.042.366-.71.173-.98.27zm-3.926 1.176c.068.552-.475.484-.357 1.086h-.267v.543c.423-.446.906-.832.98-1.63.208.03.343-.013.447-.09-.015-.135.032-.334-.09-.36-.074.314-.347.43-.713.45zm-1.516 3.166c.247-.142.547-.228.624-.542-.06-.21-.16-.38-.446-.363-.033.33-.288.433-.178.906zm1.338-.362c.246.143.4-.235.178-.27.027.177-.12.178-.178.27zm-.893 1.267c.422.182 1.156-.093 1.16-.633-.422.176-.975.217-1.16.634zm.714.362c.46.045.712-.123.892-.36-.46-.047-.712.122-.893.36zm.714.36c.142.225.625.04.804 0-.06-.21-.16-.378-.446-.36.138.382-.496-.02-.357.36zm2.41 1.178c-.375.38.374-.38 0 0zm1.16.723h.267v-.182H52.1v.183zM78.504 13.298c-.326.18.02 1.046-.446 1.085.338.32.404.917.535 1.446-.36.056-.175.666-.356.904-.232-.036-.258-.282-.357-.453.098-.32.26-.58.178-1.084-.152-.086-.195-.284-.268-.45.074-.288-.035-.762.268-.815.117-.902-.202-1.362-.446-1.9-.407-.22-.733-.52-.98-.903.076-.223.266-.33.534-.36.19.95 1.32.95 1.16 2.26-.05.2.17.128.178.27M37.202 16.01c.68-.187.862.404 1.16.09v.363c.485-.1.622.152.892.27-.15.086-.313.335.09.272.06.452-.084.7-.09 1.086-1.02.114-1.446.825-2.41.995-.075.164-.23.25-.266.452-.793-.02-1.456.093-1.607.723-.612.027-.703.445-1.248.18v-.36c.294-.065.675-.04.804-.27-.29-.26-.748.08-.982.18.05-.202-.17-.13-.18-.273.15-.422.61-.53 1.072-.632-.064-.205.162-.705-.178-.633.198-.13.2-.46.625-.36.078-.615.943-.43.802-1.268.198-.05.128.172.268.18.18-.207.633-.14.625-.54.4.04.624-.092.624-.454zm-.357 1.176c-.744 0-.798.7-1.16 1.085.572.337 1.155.372 1.606-.09.346.05.436-.16.804-.09.018-.524.71-.365.535-1.085-.29.052-.45-.028-.536-.18-.035.265-.39.206-.535.36-.206-.094-.186-.415-.537-.36-.01.168-.06.3-.178.36zM76.72 17.73c-.015.496-.307.712-.268 1.265-.04.25.487-.07.446.18-.34 1.164-1.26 1.737-1.517 2.984-.09.058-.09.207-.265.18.007.52-.12.905-.357 1.176-.315-.217-.153-.774-.09-.995.005-.016.162.017.178 0 .056-.05-.036-.29 0-.36.014-.028.157.023.18 0 .088-.095.047-.458.09-.543.01-.023.167.023.177 0 .1-.238.026-.485.088-.633-.006.02.35-.145.18-.453.394.07.168-.49.446-.54.05-.293-.027-.456-.178-.543.31-.56.104-1.643.892-1.718M67.978 18.362c-.058.09-.205.093-.18.27-.946-.174-1.56.363-2.23.18-.233-.026-.07.353-.355.273.014-.106-.02-.16-.09-.18-.324.153-.532.423-.98.45-.076-.104-.12-.24-.09-.45.785-.38 1.74-.588 2.943-.543.14-.33.81-.178.982 0M80.377 19.356c.813.024 1.462 2.22.268 2.352-.096-.368.04-.567 0-1.085-.013-.2-.225-.196-.446-.182.09-.363-.14-.4-.27-.54-.02-.356.43-.23.447-.544M60.217 19.81c.51-.006.696.317 1.16.36.053.477-.628.207-.536.723-.526-.08-.42.48-.89.452.03.363-.125.538-.447.543.063-.87.54-1.322.714-2.08M27.568 20.08c.334.383.83.403 1.338.18v.453c-.43.047-.685.27-1.16.27-.19.17-.197.524-.625.454.053-.294-.025-.455-.177-.544-.006-.488.727-.227.625-.813M63.16 20.984c.05.2-.17.13-.178.27.17 1.227-.567 1.536-.713 2.442.246-.11.633-.08.623-.45.22-.013.43-.016.536.09v.36c-.544.055-.734.464-1.34.453-.128.02-.03.27-.178.27-.2-.13-.47-.187-.535-.45.662-.666 1.243-1.762 1.07-2.986.176-.18.51-.058.713 0M68.602 20.984c-.166.254-.21.63-.624.633.008.4-.313.466-.625.542.122.365-.16.32-.267.45.034.238.285.255.178.635-.428.04-.378-.4-.625-.543.236-.454.388-.993.98-1.085.133-.077.193-.227.18-.452.42.093.343-.315.802-.18M25.784 21.165c.184.054.586-.113.624.09.04.194-.128.172-.267.182-.132.075-.192.227-.178.45-.353-.116-.182.3-.535.182-.53.727-1.6.91-2.142 1.626-.82.043-1.72.004-2.14.453-.603-.315-1.865.582-2.676.09v-.724c.495-.224.952-.15 1.426-.27.114-.03.02-.143.09-.183.172-.095.63-.018.802-.09-.024.01.395-.374.357-.362.1-.033.062.185.09.182.185-.014.193-.203.356-.27.13-.054.316.044.447 0 .12-.04.114-.084.356-.18.077-.033.048-.165.09-.183.446-.185.97-.045 1.25-.452.185.173.575.14.713.36.3-.447 1.232-.255 1.338-.903zm-5.53 2.17c-.056.487-.867.207-.982.634 1.367-.307 2.955-.523 4.37-.997-.12-.543.416-.423.447-.814-1.416.253-2.27 1.075-3.837 1.175zM54.596 22.16c.466-.05.262.58.804.45-.192.412.183.247.357.363.04.026.068.264.088.272.28.112.744.04 1.07.09.022.37.602.175.536.634.814.02.65 1.03 1.34 1.174.424 1.098.03 2.35-.268 3.255-.314-.233-.206-.705-.178-.995.018-.202.15-.094.178-.182.164-.504.133-1.364 0-1.718-.21-.556-.903-1.068-1.517-1.356-.01-.17-.058-.303-.177-.363-.42-.093-.344.316-.804.182-.2-.672-.862-.876-1.428-1.178v-.633M69.762 22.16c.108.38-.144.397-.18.632-.252.016-.173-.306-.534-.18-.694.592-1.616.953-2.052 1.808h-.624c.05-.25.282-.317.267-.633.372-.044.59-.245.713-.542.512-.145.892-.424 1.07-.904.353.344.648-.333 1.34-.18M31.047 22.34c.3-.093.14.28.178.452h-.357c-.13-.34.245-.173.18-.45M7.853 25.324v.453c-.403-.018-.845-.075-.713.452-.27.09-.16-.203-.18-.363-.38.053-.624-.03-.534-.453.66-.03.788-.04 1.427-.09M40.503 25.414c.284.164.483.415.892.453.067.55-.17.79-.714.724.083-.414-.246-.413-.445-.542.01-.293.404-.193.268-.634M10.797 25.595h.714c.056.48-.152.69-.623.634-.03-.213-.142-.34-.09-.635M15.614 25.595c.312.047.496.222.714.362.105.41-.396.203-.268.634-.292-.035-.182-.478-.625-.36-.107-.382.145-.398.18-.635M26.497 25.777c-.003.448-.227.674-.535.814.136.56-.25.59-.178 1.086-.34.073-.275-.265-.536-.27-.135-.178.247-.332.268-.544.01-.11-.124-.394-.18-.27.06-.13.742-.937 1.16-.815M34.08 25.777v.452c-.962-.195-1.665.746-2.41.18-.053-.358.49-.107.715-.18.5-.218.935-.5 1.694-.453M45.677 25.777c.42.147.423.715 1.16.542v.45c-.646.112-.925-.148-1.34-.27-.008-.31-.045-.65.18-.723M76.006 25.867c.153-.207.68-.033.982-.09-.41.768.577.844.445 1.628-.75-.054-.46-1.16-1.248-1.176-.02-.162.09-.454-.18-.363M20.253 26.23c.252-.076.23.126.446.09-.057.274.114.778-.09.903-.31-.017-.186-.475-.535-.452-.016-.255.3-.176.178-.54M79.218 26.32h.624c-.146.69.656.42.714.903-.158.02-.447-.09-.357.182-.274-.417-1.093-.28-.982-1.086M8.745 26.5c.252-.075.232.127.447.09-.04.202-.158.322-.358.362.037-.218-.163-.196-.09-.45M37.023 26.952c-.115.358.295.184.18.543-.4-.043-.625.09-.625.452h-.447c-.19-.588.145-1.095.893-.995M51.03 26.952h.356c-.057.48.328.512.357.904.184.054.585-.11.624.09.045.44-.695.274-.892.18.068.033-.418-.396-.446-.45-.127-.245-.094-.62 0-.724M17.755 29.574h.18v.18h-.18v-.18M86.8 32.83h.178v.18c-.15.034-.168-.07-.178-.18M59.77 33.283c.105-.016.16.02.18.09-.093 1.08.2 2.555-.18 3.346-.5-.838.096-2.192 0-3.437M56.916 34.187h.446c.013.317.27.39.446.542-.31.343.06.284 0 .812h-.446c.086-.387-.063-.538-.446-.45.076-.29-.078-.344-.178-.454-.067-.278.307-.11.178-.45M64.766 34.187c.5.006.778.236.98.542.33.08.808-.11 1.072 0 .045.018-.008.154.09.18.077.02.09-.18.088-.18.188.054.316.388.536.45.198.06.48-.037.713 0 .275.046.31.305.625 0-.01.225.11.154.09 0 .45.24 1.088.283 1.605.453.01.162-.11.19-.09.362-.172.11-.14-.17-.178-.18-.15-.045-.76.06-.892 0-.074-.035-.044-.298-.09 0-.63-.295-1.613-.234-2.497-.273.115-.447-.74.087-.624-.36-.405.394-.843-.54-1.428-.544v-.45M76.452 35.09c-.293.337-.76.497-1.337.543v-.452c.594-.02.853-.435 1.337-.09M52.1 35.09c.306-.04.5.036.713.09-.15.94-.056 1.033-.267 1.81-.615-.162-.264-1.3-.447-1.9M48.174 35.814h.268c-.018.35.14.52.446.542v.363c-.156.082-.48-.005-.446.27-.29-.073-.257-.41-.625-.18-.034-.357.356-.337 0-.544-.073-.346.43-.106.357-.452M63.874 36.356c-.127.672.81.266.892.724.016.226-.2.22-.267.36-.455-.14-.714-.482-1.16-.63-.036-.368.138-.525.534-.454M49.423 36.537h.446c.148.57.377 1.36-.447 1.357.046-.498-.334-.566-.268-1.085.232.054.322-.037.268-.273M47.55 37.35c.058.483-.668.168-.447.815h-1.426v-.724c.822.06 1.182-.465 1.873-.09M80.556 37.26v.634c-.46.078-.568.51-1.16.453-.124-.608.237-.725.357-1.086.186-.178.592-.068.803 0M41.752 37.26c.157.142.343.256.267.634-.278.12-.255-.024-.625 0v-.453c.157-.02.446.093.357-.18M35.685 37.894v-.27c.533-.203.455.024 1.07.09v.633h-.445c.097-.46-.29-.43-.625-.453M68.602 37.44c.18-.03.28.02.268.183.492-.268 1.197-.268 1.695-.182.01.004-.01.18 0 .183.3.05.713-.1.892.09.017.02-.022.173 0 .18.128.052.513-.014.624.09.02.018-.02.174 0 .182.13.045.324-.057.448 0 .057.026.113.466.535.272.27.508.92.635 1.338.995.018.323-.51.17-.713.09-.022-.01.02-.163 0-.18-.055-.054-.443-.09-.446-.09-.03-.023-.184-.202-.267-.363h-.357c-.047-.074-.093-.15-.088-.273-.557.112-.485-.413-1.07-.27-.013-.17-.06-.302-.18-.363-.51.172-.068.085-.535-.09-.198-.074-.595.023-.713 0-.024-.005.007-.176-.09-.18-.09-.005-.07.18-.09.18-.158-.006-.177-.193-.356-.18-.36.024-.68.495-1.25.18-.096-.37.55.012.358-.453M83.143 37.44c.35-.053.105.5.178.725-.35-.083-.224.315-.623.182.182-.548-.48-.238-.446-.633.29-.098.822.048.893-.273"/><path d="M36.042 39.07c-.45.095-.464-.254-.446-.633-.197-.077-.42-.59-.18-.814.37.11.218.745.626.814v.632M11.778 37.894c.453.234 1.108.263 1.606.453-.11 1.287 1.124 1.21 1.784 1.718.016.226-.2.22-.268.36-.778-.506-1.99-.572-2.05-1.808h-.804c0-.33-.418-.24-.268-.723M34.705 38.798c-.732-.016-.53-.14-1.16 0v-.633c.466-.417 1.364-.34 1.16.633M39.254 38.165c.212.385-.454.576 0 .633.028.24-.5-.084-.357.27-.26-.278-.657-.418-.536-1.084.418-.15.585.016.894.18M61.734 37.894c.25-.075.23.127.445.09.07.268.11.482.356.724.084.082.276.095.357.18.076.083.016.277.09.363.067.078.282.018.356.09.1.1.033.4.445.272.198.644 1.04.633 1.16 1.357-.74-.066-.82-.8-1.516-.905-.167-.376-.428-.653-.894-.724-.267-.482-.752-.743-.802-1.446M42.465 37.984c.107.103.162.258.446.18v.453h-.445v-.633M59.057 38.165c.1.552-.488.41-.713.633-.042-.55-.975-.4-1.16-.09.163.195.526.19.892.18-.04.372.377.28.268.724.68-.134 1.222.058 1.873.18.085.39-.25.35-.268.634-.46.015-1.007-.057-1.34.09-.177-.392-.734-.4-1.16-.543-.12-.366.195-.285.18-.54-.166-.225-.393-.008-.625-.182-.04-.03-.267-.36-.267-.36-.617-.254-1.454-.047-1.606-.725 1.333-.443 2.86-.03 3.925 0M15.168 38.347c.103.075.24.12.446.09.042.405-.09.633-.446.632v-.723M18.022 38.527c-.16.47-.497.76-1.16.724-.122-.286-.018-.302 0-.633.463-.01.777-.506 1.16-.09M29.71 38.347c-.12.48.296.42.177.904-.29-.052-.415.062-.624.09-.16-.17-.065-.596-.09-.903.273.065.263-.157.536-.09M75.828 38.437h.624c.455.455-.112.727-.267 1.085-.245-.22-.56-.22-.804 0-.027-.212-.14-.34-.087-.633.386.06.658.002.535-.453M24.356 38.89c.536.203 1.293-.125 1.606.632-.498.14-1.345-.045-1.784 0 .015-.105-.02-.162-.09-.18 0-.243.282-.197.268-.453M61.287 14.835c-.145.422.392.212.536.27.195.082.337.46.624.272-.277.64-1.004-.04-1.516 0-.164-.345-.46-.56-.98-.542-.044-.71-.633-.867-.714-1.537-.282.044-.315-.163-.625-.09.75.735.997 2.293.804 3.255-.493-.434-.383-1.48-.625-2.17-.3-.117-.39-.45-.536-.724-.488.106.035.498.09.632-.29-.052-.45.028-.536.18-.288.112-.068-.292-.357-.18-.106-.38.146-.396.18-.633-.35-.13-.762-.193-.625-.815.36.064.412-.185.625-.27-.125-.386-.448-.572-.714-.815-.38.065-.235.666-.714.633.2-.4-.113-1.322.27-1.537-.09-.093-.178-.183-.27-.27-.19-.044-.17.128-.178.27-.363-.144-.565-.453-.714-.814-.573-.113-.92-.453-1.248-.814-.255.134-.233.548-.714.45v-.45c-.512.23-1.205.248-1.605-.09-.026-.608-.51-.75-.357-1.538 1 .283 1.184-1.272 1.873-.453-.164.56-.96.476-1.16.996.482.057 1.275.548 1.694.09.198-.05.127.173.268.18.183-.024.084-.336.267-.36.33-.005.353.305.802.18.213.388.54.658 1.07.724.338.47.617 1.003 1.25 1.175-.163.677.56.456.445 1.085h.447c.102.285-.14.22-.18.362.066.084.163.137.27.18.18-1.17.26-2.733.088-3.98.35.144.185-.234.357-.27.21.087.28.318.534.36.02.42-.318-.087-.446.183.15.78.07 1.798.09 2.712.514-.02.79-.28.713-.904.294-.336 1.115-.136 1.16-.722.247.088.794.13.893-.18.268.33 1.213-.025 1.16.63.31-.07.342.136.624.09-.377-.19-.093-1.05-.447-1.264-.066-.278.308-.11.18-.453 1.25.24.608 2.4 2.05 2.443.124-.366-.193-.286-.177-.542.15.034.168-.07.178-.18.28.28.186.674.357.995.152.283.235.048.357.452.046.15.132.186.268.272.205.127.336.41.624.63-.06.588.124.94 0 1.358.804-.02 1.192-.248 1.963-.453-.172-.127-.453-.145-.536-.36.237-.333.34-.803.892-.815-.018.35-.003.666.09.904.322-.426 1.54.055 1.605-.633.2-.048.128.174.268.182.218-.262.713-.243 1.16-.27.625-.423 1.597-.49 1.963-1.177-.13-.77-.434-1.367-.89-1.808.025-.66-.16-1.106-.09-1.81.253-.043.315-.282.356-.54h.357c.116-.412.116-.948 0-1.358.5-.61.85.186 1.695 0-.027.237.186.232.357.27.038 1.168.95 1.447.713 2.894.42-.357.078-1.488.446-1.898-.027-.123-.223-.076-.356-.09.306-.023.057-.606.267-.725.35-.02.226.436.535.453-.123 1.653-.84 2.704-1.338 3.98-.13.34.245.173.18.452-.472.578-1.4.692-1.786 1.356h-.357c-.03.24-.33.207-.357.453-.858-.025-1.044.63-1.962.542-.067.142-.283.136-.267.363-.52.088-1.076-.024-1.517.09-.118.03-.015.13-.09.18-.082.057-.267-.048-.356 0-.09.05-.13.248-.178.27-.096.05-.26-.043-.357 0-.047.024-.077.18-.09.183-.39.115-.844-.002-1.248.09-.098.024-.038.164-.09.182-.206.07-.582-.135-.713.18-.572-.067-.907.107-1.427.09-.027.276-.567.03-.446.454-.202.066-.695-.163-.624.18-.286.08-.122-.3-.357-.27-.173.21-.857.475-1.07.09-.2-.07-.32.45-.358 0-.402.44-1.296.05-1.695-.09zM75.025 7.24h-.357c-.15.296-.053.577 0 .904.492.103.46.738.892.904.526-.76.1-1.98-.18-2.713h-.265c.062.395-.152.51-.09.904zM53.527 8.866h.267c-.13-.342.245-.173.178-.453-.214.083-.363.234-.445.453zm-1.428 0h.267v-.18H52.1v.18zm23.906 0h.18v-.18h-.18v.18zM60.84 9.77v.543c-.453-.038-.32.518-.89.362v.452c.98-.544 2.55-.49 3.657-.904-.56-.035-.62-.577-1.338-.452V9.5c-.54.027-1.03.102-1.43.27zm0 3.98c1.066.395 2.47.18 3.66.27.514-.29 1.073-.537 1.872-.542.615-.754.076-1.933-.892-1.898.02-.17-.1-.2-.09-.363-.374.014-.498-.164-.802 0-.292-.557-1.393-.63-1.873-.27-.252-.267-.468.13-1.07 0-.14.008-.07.23-.268.18-1.107.054-1.87.455-2.32 1.176.29-.053.415.06.625.09.154-.054-.007-.428.178-.452.89-.3 1.798-1.07 3.122-.63-.2.46-1 .31-1.605.36-.51.328-1.203.47-1.428 1.085.333.295.732.524.89.994zm-1.872-1.447v-.362h-.446c.036.236.278.262.446.363z"/><path d="M89.476 33.734c.367.815-.33 1.197-.446 1.808h-.356c.06.937-.618 1.122-.447 2.172-.328.037-.202.44-.357.633-.06.077-.286.018-.357.09-.076.077-.016.278-.09.36-.05.06-.214.03-.266.092-.227.262-.59.727-1.16.722-.132.077-.19.228-.18.453-.376-.192-.31.22-.444.36-.212.226-.872.243-.892.725-.712-.09-.744.51-1.337.543-.24.207-.355.542-.892.45-.07.225-.396.252-.624.453-.195.172-.472.074-.892.272-.14.064-.405.276-.892.18-.166-.032-.545-.477-.803 0-.205-.36-.186.035-.536 0-.287.08-.122-.297-.357-.27-.61.225-1.093.578-1.962.54-.198-.048-.127.175-.268.183-.236-.152-.587-.188-.714-.452-.288-.112-.068.292-.357.18-.28.104-.216-.142-.357-.18-.568.45-.957-.328-1.695.18.015-.225-.2-.22-.267-.36-.2-.05-.127.172-.27.18-.474-.455-.902.144-1.604 0-.332.448-1.048.504-1.25 1.085-.325.06-.647.127-1.07.09-.097.023-.06.18-.178.182-.612-.043-1.225.058-1.784 0-.184-.02-.11-.164-.178-.18-.54-.14-1.298.152-1.695-.272-.2-.05-.128.173-.27.18-.51-.327-1.392-.276-1.872-.632-.29-.11-.068.294-.357.18v-.36c-.825-.097-1.448-.4-2.497-.272-.104.014-.075.165-.09.27-.843-.1-.986.508-1.783.454-.087-.093-.176-.183-.268-.27-.418.327-1.168.322-1.605.63-.404.178-.955-.285-.892 0-.235-.228-.658-.228-.893 0 .005-.542-.32.314-.267-.18-.152-.032-.17.07-.178.18-2.256-.625-6.406 1.02-7.762-.813-.57-.034-1.02.05-1.25.36-.72-.268-1.996-.61-2.586 0-.414-.356-.9.225-1.25-.36-.197-.05-.126.173-.267.18-.614-.25-1.482-.246-1.962-.632-.274-.152-.232.34-.624.18-.31-.125.065-.135-.267 0-.176.07-.433-.03-.537 0-.098.03-.062.16-.178.18-.577.114-1.237-.13-1.428.273-1.14-.685-1.925.494-3.39.272-.032.208-.39.086-.356.36-.467-.067-1.234.168-1.426-.18-.117.422-.285-.285-.357.18-.228-.088-.373-.316-.535 0-.262-.062-.263-.303-.446 0-.66-.466-1.865-.306-2.765-.45-.185-.03-.136-.113-.268-.18-.288-.113-.067.292-.356.18.098-.462-.812.098-.714-.363-1.113-.148-2.057.097-3.033-.09-.182-.036-.14-.11-.268-.182-.097.023-.06.18-.18.18-.403-.1-1.222.217-1.336-.18-.2-.05-.128.173-.27.18-.783-.32-1.817-.387-2.853-.45-.33-.6-.95-.745-1.695-.724-.006-.597-1.004-.188-1.16-.634-.333.322-.44-.17-.803.18-.45-.19-.822-.212-1.25-.45-.023-.015.026-.168 0-.18-.096-.053-.373-.036-.444-.092-.19-.15-.48-.937-.623-.452-.066-.326-.325-.455-.714-.453.024-.686-.757-.56-.892-1.084-.455.038-.797-.037-.802-.453-.662.007-.953-.362-1.07-.904-.155-.086-.147-.335-.447-.272.018-.348-.14-.52-.445-.54-.16-.834-.924-1.054-.98-1.99-.315-.165-.36-.6-.626-.816.33-.35-.172-.813 0-1.537.516-.01 1 .01 1.07.453.677-.053.792.462 1.427.453.018.433.62.276.624.722h.448c-.365-.46.305-1.273.535-1.718-.32-.4-.34-1.103-.982-1.175.137-.53-.308-.47-.355-.814.22.012.15-.11 0-.09-.05-.2.17-.13.178-.27-.195-.347-.38-.702-.446-1.178-.442-.45-1.23-.003-1.695.09-.228.613-1.138.917-.803 1.81-.358.15-.506.512-.804.723-1.11-.717-1.418-1.953-1.337-3.707-1.21.04-1.24 1.275-2.32 1.447-.77-.666-.307-1.62-.357-2.894.543-.264.7-.92.624-1.81.438-.01.23-.67.714-.633-.058-.092-.204-.093-.178-.27.294-.035.34-.32.446-.544.48.17 1.092-.104 1.337-.452.576.1.834-.12 1.25-.18.152-.033.168.07.178.18 1.103-.06 1.992.09 3.034.09.065-.143.436.022.356-.27h.536c.673-.46 1.498-.77 2.407-.995.233-.396 1.004-.248 1.25-.632h.535c.372-.436 1.26-.35 1.516-.904.937.105 1.146-.53 1.962-.544.263-.366 1.033-.22 1.25-.634.197-.05.126.174.267.18.698-.676 2.255-.485 3.033-1.083.18-.032.28.017.267.18.608-.56 1.954-.37 2.408-1.086.664.008 1.032-.28 1.428-.543.198-.048.127.174.267.183.07-.142.284-.136.268-.362.633.1.72-.354 1.338-.27.19-.35.773-.303.982-.634 1-.01 1.303-.728 2.23-.813.74-.397 1.196-1.078 2.23-1.175.27-.21.477-.482.982-.453.635-.53 1.314-1.018 2.318-1.175.033-.21.39-.087.357-.363.646.082.808-.326 1.428-.27.104-.015.075-.166.09-.272.84.175 1.247-.7 1.872-.18.19.042.17-.13.18-.272 1.67-.056 2.485-.975 4.013-1.175.12-.06.166-.194.18-.362 1.298-.28 2.093-1.072 3.3-1.447.13-.078.128-.292.177-.453.778-.086 1.182-.55 1.606-.995.56-.096 1.076-.236 1.25-.724.336.136 1.218.12 1.427-.36 1.064.144 1.4-.45 2.23-.543.068-.143.283-.135.268-.362.675.374 1.212-.852 2.23-.723.104-.015.075-.166.09-.273 1.02-.11 1.42-.85 2.408-.994.153-.115.18-.36.356-.45 1.124.233 2.09-.88 3.122-.454.193.015.04-.32.09-.453.32-.007.725.072.802-.182.275-.067.108.312.446.182.768-.457 2.54.103 3.21-.452.198-.038.13.156.27.18.18.032.3-.175.266-.18.1.016.172.244.268.27.145.043 1.623.008 2.14-.09.14-.025.177-.024.18-.18.227.09.373.317.535 0 .344.433 1.47.077 1.694.633.194-.394.315.166.802 0 .04.41.432.467.804.543.192.468.612.705 1.248.723-.136.41.583-.046.447.363h.623c.048.072.093.147.09.27h.624c.312.197.41.61.98.544.68.67.97 1.73 1.786 2.26v.452c.39.568.515 1.407 1.16 1.718.134.98 1.035 1.18 1.16 2.17.226.16.298.48.267.905.323.305.525.733.446 1.446.834 2.11 1.646 4.24 2.052 6.783.022.1.177.062.18.182v.722c.514.654.098 2.25.89 2.624-.118.723.455.746.446 1.356-.588-.035-.444-.815-.802-1.085-.115.512.01 1.557.357 1.9.08 1.042-.02 1.75 0 2.895-.31.167-.467.49-.447.994-.692.412-.526 1.696-1.426 1.898-.31.893-1.296 1.098-2.052 1.537-1.05-.07-1.83.134-2.855.09.036-.216-.406.05-.268-.27-.62.055-.78-.354-1.427-.272.083.458.53.548.714.904.198.05.127-.172.268-.18.284-.046.108.202.357.27.22.063.737-.3.802.182.15.032.167-.072.178-.183.274-.067.108.312.446.182.197.048.126-.174.267-.183.763.05 1.23-.2 1.696-.45.215.024.44-.035.625 0 .2.035.08.134.18.18.12.056.33-.065.445 0 .05.027.103.24.178.27.22.087.515-.115.625.182.184-.057.62.144.536-.183.12.03.073.228.088.363 1.068.243 2.266.355 3.568.36.346.405.774.724 1.606.634zm-8.653-23.06c-.178-.21-.185-.595-.267-.903-.48.155-.347-.31-.357-.632-.49.17-.255-.393-.358-.543-.14-.205-.662-.264-.446-.632-.166-.014-.298-.06-.357-.182-.236-.665-.716-1.08-.803-1.897-.658-.57-1.105-1.353-1.606-2.08-1.604-.233-2.576-1.044-4.102-1.537v-.363c-.49-.017-.655-.36-1.07-.45-.21.36-.407-.207-.715.18-.016-.356-.664-.17-.98-.27-.08-.028.01-.158-.18-.182-.637-.083-1.442-.075-1.873.182-.7-.834-2.045.01-3.21-.18.026.418-.648.127-.715.45.09-.272-.198-.16-.356-.18-.286.434-1.488-.06-1.786.36-.14-.007-.07-.23-.267-.18-.104.317-.638.198-.982.27-.262.33-.75.503-.98.635-.445.252-.952.49-1.518.543-.294.395-.818.556-1.338.723-.013.17-.06.302-.18.362-.528-.115-.438.4-.98.27-.014.107.015.258-.09.273-.622.03-.703.612-1.516.45-.212.452-.722.093-1.248.273.014.228-.2.22-.268.362-.404-.166-.657.154-.982.27-.662.24-1.766.58-2.23.905-.4.28-.777.09-.892.543-.42-.094-.343.316-.803.18-.26.64-.985.81-1.693.996-.094.358-.427.472-.892.452.033.276-.325.153-.357.36-.702-.017-.702.677-1.517.544-.163.392-.8.27-1.07.453-.07.047.016.14-.088.18-.15.058-.484-.024-.625.09-.073.06.02.138-.09.182-.37.148-.804.315-1.248.27-.086.276-.556.162-.893.182-.24.358-1.046.145-1.338.45-.07-.02-.105-.076-.09-.18-.244.146-.4.38-.892.27-.166.315-.485.475-.982.453-.153.217-.43.288-.535.362-.33.232-.618.183-.98.272-.392.416-.946 1.047-1.606.904-.18.464-.38-.058-.625.453-1.05.32-1.745 1.005-2.855 1.266-.013.168-.06.3-.178.36-1.033.13-1.674.654-2.498.995-.142-.01-.07-.23-.27-.18-.406.58-1.43.54-1.872 1.084-.14-.008-.07-.23-.267-.18.016.225-.2.217-.268.36-.816.048-1.42.31-1.873.723-.505-.03-.713.243-.982.453-1.174.136-1.82.805-3.122.814-.176.453-.98.272-1.25.633h-.624c-.728.317-1.57.518-2.23.904h-.713c-.015.106.014.257-.09.27-.475.033-.68.34-1.25.272-.057.272-.244.414-.623.36.135.447-.31.18-.447.272-.074.05.03.153-.09.18-.336.08-.802-.017-1.158.09-.028.01-.024.158-.09.183-.508.19-.64.102-1.16.27-.135.046-.072.195-.267.18-.04 0 .02-.193-.09-.18-.003 0-.036.166-.088.18-.394.123-1.145-.02-1.25-.18-.35.37-.534-.143-1.16 0-.013.107.017.257-.088.272-.746-.14-1.623.337-2.41.452.106.408-.208.39-.446.45.235.215.14.763.268 1.087.663-.07.483.715 1.25.542.24.69 1.418.43 1.693 1.085.232-.25.84-.115 1.07-.363.138.223.53.19.715.363.183-.086.184-.356.446-.363-.14.77.81.293 1.16.363.307.06.16.25.446.27.01-.427.11.2.445 0 .14-.007.07-.23.268-.18.186.502.268-.267.624.18.14-.007.07-.23.267-.18.208.304.847.504 1.16.18.095.375.54.163.803.18 1.3.093 3.59.192 4.817 0 .12-.017.54-.36.803-.18.013-.106-.016-.256.09-.27.007.142-.013.313.177.27.235-.23.657-.23.892 0-.002-.39.225.254.356-.18.14.007.07.23.268.18 0-.152.58-.365.535 0 .287.113.067-.292.356-.18.397.44 1.41.26 1.784.724.185-.206.342-.438.802-.364.103.107.1.32.09.543 1.087.11 2.53.696 3.568.27.353-.117.183.298.535.18.107-.38-.144-.395-.178-.63.26.02.308-.172.446-.273-.115.36.294.185.178.543.037.216-.405-.05-.266.27v.272c.514-.09.864.244.98.272-.048-.013.068-.187.18-.18.174.006.375.326.535.36-.052-.01.097-.21.266-.18.14.024.072.217.268.18.25-.108.25-.468.446-.633.14.01.07.232.268.182.738-.52 1.642.23 2.586.09-.014.256.268.212.268.452.858-.184 1.886-.198 2.676-.45.14.006.07.23.268.18.235.107.23-.435.267 0 .12-.067.674-.43.714 0 .298-.367 1.087.318 1.517-.18.306.318 1.554.245 1.873 0 .145.364 1.057-.048 1.16.36.28-.19.344-.19.624 0 .04-.427.594-.066.715 0 .015-.135-.032-.333.09-.36.046.342.684.087.8.36 1.305-.048 2.135.772 2.945.09.638-.066 1.127-.086 1.517.27.483-.12 1.71-.084 2.587-.09.076-.253.483-.172.803-.18.207.583 1.114-.062 1.427.453.366-.312 1.4-.22 1.784 0 .232-.246.84-.246 1.07 0 .14-.008.07-.23.268-.182.036.235.278.262.446.363.89-1.358 2.578-1.91 4.015-2.713.734.07 1.77-.168 2.23.18.487-.35 1.527-.14 2.05-.452.036-.236.047-.496.18-.632.53.247.71-.094 1.516 0 .015-.135-.032-.334.09-.36 1.26.018 3.03.14 4.638.09-.112.355.212.27.448.27v.362c1.05.23 1.766.802 2.318 1.538v.36c.265.185.533.365.714.634.482-.006.87.082.892.543.29.098.615.16.714.45h1.16c.104.418.87.236 1.07.274.05.01-.022.182.09.182-.02 0 .052-.17.088-.18.357-.11.93-.057 1.428-.093.106-.254.323-.395.714-.362.048-.13-.105-.467.09-.453.593.06.534-.54 1.07-.54-.045-.437.14-.642.445-.725.15-.494-.073-.913 0-1.267.03-.14.262-.233.27-.36-.006.088-.38-.264-.18-.362.216.037.194-.165.447-.09.022-1.558.227-2.49-.268-3.708.424-.02-.022-.218 0-.27.028-.076.134-.014.177-.18.08-.307.04-.592-.178-.725.107-.01.21-.028.177-.18-.3-.187-.062-.188 0-.453-.597-.55-.172-1.682-.624-2.26.013-.466-.014-.892-.268-1.086v-.633c-.363-.082-.205-.423-.178-.724-.185-.232-.306-.532-.446-.812.01-.143.228-.07.18-.272-.302-.056-.233-.487-.268-.813-.224.015-.217-.203-.357-.272-.114-.99-.386-1.286-.536-2.17-.414.082-.32-.376-.447-.54-.142-.185-.376-.235-.446-.363-.132-.243-.24-.6-.178-.814.42-.067.29.43.623.452zM60.217 1.633h.178v-.18h-.178v.18zm20.606 9.495h.18v-.18h-.18v.18zm-61.998 7.686h.447c-.02-.16.09-.452-.18-.36.133.343-.398.017-.267.36zm-.356 0h.177v-.18h-.178v.18zm-.715.453c-.11-.293.29-.07.18-.36-.2-.07-.37.33-.18.36zm-.446 0h.178v-.18h-.18v.18zm-.09 0c-.572-.105-.196.276 0 0zm-.446.45v-.36h-.268c-.025.236-.03.453.268.36zM1.876 24.42h.18v-.18h-.18v.18zm0 .904c.016-.226-.2-.22-.267-.36.036.17.032.388.266.36zm-.892 0h.18v-.18h-.18v.18zm0 1.9c.55-.197 1.063-.43 1.34-.905-.372-.047-.36-.48-.715-.543-.21.48-.454.926-.626 1.446zm63.872 1.175c-.3.39-1.346.022-1.606.45h-1.873c-.524.325-1.138.595-1.874.905.004-.095-.042-.23-.09-.09.264.537-.88.352-.802.994.208-.183.56-.22.982-.182.12 0 .082-.157.18-.18 1.108-.263 2.854.098 3.835-.09-.036.216.406-.05.267.27.653-.09.996.417 1.517.18.02.37.27.182.536.274.02.006-.018.163 0 .18.09.084.506.046.625.09.018.008-.017.176 0 .18.415.122.97-.1 1.25.273.495-.203.56-.063 1.248 0 .552-.358 1.293-.253 1.963-.453.232-.068.362-.483.804-.27.014-.108-.015-.257.09-.273.36.128 1.37-.056 1.783.272.014-.108-.016-.257.09-.273.276.916 1.595.738 2.408.452h-.357c.014-.315-.217-.384-.268-.634-.476.122-.416-.3-.892-.18-.304-.656-1.043-.873-1.248-1.628-.56-.367-1.297-.555-1.606-1.175-1.547-.413-2.447.644-4.46.452-.403.36-.918.21-1.428.18-.072.35-.667.167-.803.453-.14-.01-.07-.23-.267-.18zM4.64 27.855c-.056-.273-.243-.414-.622-.36-.04.655-.007.832 0 1.536.44.145.454-.397.623-.633.034-.045.234.042.27 0 .063-.075.085-.447.178-.544.072-.076.36.063.267-.18-.34-.045-.285.314-.714.18zm3.927.543c-.01-.232-.017-.467-.267-.453-.063.304.183.296.267.452zm.446-.18c.005.362-.007.815 0 1.264.006.417-.152 1.027.18 1.175.378-.55.894-.96.98-1.81.197-.25.704-.19.714-.63-.914-.17-1.197-.117-1.874-.273v.272zm10.794 2.892c.414-.183.214-.99.892-.904.033-.6.755-.5.802-1.085.382-.11.778-.432.535-.904-.903-.072-1.64-.07-2.41-.093-.102.63-.22 2.325.18 2.985zm-5.978-.36c.446.09.063-.663.625-.454.062-.39.135-.767.535-.814-.048-.62.614-.523.624-1.085-.657-.12-1.06.45-1.516 0-.056.116-.406.214-.714 0-.107 1.042.135 1.73.445 2.35zm-2.498-1.268c-.176.334-.307.714-.713.814-.11.293.287.07.177.36-.26-.02-.308.172-.446.274.05.837.08 1.225.09 2.17.424.322.518.98 1.16 1.085.35-.612.626-1.296.982-1.9.538-.094.703.19.98.363.06.932.405 1.578.98 1.988-.026-.238.188-.233.358-.27-.332-.88.652-1.83 1.07-2.533.94-.016.76 1.1 1.25 1.538-.08 1.077.453 1.53.802 2.17.408-.046.506.157.803 0-.047-.35.16-.44.09-.814.747-.48.565-1.9 1.962-1.72.14-.008.07-.23.268-.18.21.267.775.178.892.543-.198.268.175.964.09 1.536.277.23.765.248 1.07.452-.034-.787.65-.846.802-1.448h.356c.08-.55.818-.437.98-.903.377.11.393-.145.626-.18-.005.427.167.675.446.814.094.508.105 1.1.09 1.718.34.168.428.59.623.904.876-.177 1.184.032 2.053-.27-.116-.568.51-1.05.09-1.358.367-.11.123-.622.178-.904.004-.016.17.016.18 0 .092-.13-.076-.497 0-.633h.446c.102-.105.1-.32.09-.54.168-.042.536.122.445-.183-.143-.125-.35-.186-.445-.36.177-.783-.44-.762-.536-1.266-.812-.1-1.115.317-1.963.182-.062.472-.123 1.51.178 2.08-.204.032-.12.36-.267.45-.268.12-.683.092-1.07.09-.036-.295-.02-.642-.447-.54-.147-1.026-1.41-.922-1.248-2.26-.242-.028-.208-.333-.446-.364v-.633c-.23.054-.32-.036-.267-.27-.725-.214-1.294.463-1.607.09-.03.422-.564.33-.446.903-.628.21-1.077.598-1.16 1.357-.456.093-.622.715-1.07.724-.232.004-.406-.282-.714-.364-.04-.56-.367-.832-.624-1.174.446-.246-.286-.626 0-.995-.403.062-.24-.187-.09-.272-.3.093-.14-.28-.18-.45-.386-.092-.494.1-.712.18-.124-.52-.58-.002-.803 0-.14 0-.07-.238-.268-.18-.23.278-.448.57-.357 1.173h-.356c-.397.67-.67 2.27-1.785 1.628-.282-.103-.217.142-.358.18-.155-1.168-1.378-1.253-1.16-2.802-.27-.123-.608.337-.624-.09-.005-.055-.013-.107-.09-.09.09.27-.197.16-.356.18zm14.184.543c.676.383.094 1.133.892 1.538-.025.236.033.39.267.36.05-.292-.027-.454-.178-.542.204-.133.462-.63.178-.724.336-.354.632-.746.982-1.086.158-.02.447.092.357-.18-.214-.152-1.07-.183-1.16.09-.155-.53-.454.234-.803 0-.116-.08-.15-.296-.534-.18v.723zm5.53-.543c.1.652-.272 1.783.358 1.9.277-.323.69-.507.713-1.086.358-.15.797-.217.803-.724-.413-.154-1.15.02-1.427-.27.09.303-.278.14-.446.18zm5.085 1.718c.5-.398.81-.99 1.072-1.628h-1.338c.097.535.41.85.267 1.628zm5.71-.543c.05-.583.833-.422 1.07-.815-.574-.036-.622-.043-1.158-.09.055.276-.115.78.09.904zm-2.14-.182c.012-.374-.62-.093-.892-.18-.2.368-.54.6-1.07.634-.06.24-.043.558-.447.45.05.564-.473.545-.356 1.177-.453.112-.78.354-.892.813.287.463.9.596.98 1.265.698-.043.79-.237 1.34 0-.012-.162.088-.21.267-.18-.09-1.422.184-1.363.267-2.532.134-.016.33.033.357-.09-.41-.046.255-.346.178-.634.368.01.56-.156.98-.09.07-.404-.06-.6-.177-.814-.29-.052-.45.028-.535.18zm-7.494 2.08c-.35-.022-.357.302-.713.272v.453c.13.05.46-.106.446.09-.337.164.065.247.177.45.04.806.43 1.255.803 1.72.08-.563-.106-1.12 0-1.63.003-.014.17.02.18 0 .055-.12-.04-.32 0-.45.004-.018.17.018.177 0 .04-.106.01-.547.088-.633.02-.02.17.022.18 0 .045-.124-.063-.337 0-.453.038-.07.363-.144.446-.27.18-.273.072-.353.18-.452.13-.122.4-.174.535-.272.214-.037.193.165.445.09v-.722c-.54-.026-1.2.073-1.606-.09-.396.683-1.292.86-1.338 1.9zm10.35-1.356c-.032.602-.626.634-.537 1.357-.34-.132-.172.247-.447.18-.176.66.297.663.268 1.174.36.003.248-.47.268-.813.41-.004.455-.382.447-.813.49-.377.912-.823 1.516-1.085.29.13.676.16.893.363.04.804.345 1.337.535 1.988.29.052.415-.06.624-.09-.08-.834.172-1.334.268-1.99.25-.083.713-.416.446-.722-.036.453-.278-.03-.446 0-.415.62-1.595-.287-1.874.182-.644-.712-1.34.147-1.96.27zm5.975.633c.45.298.568.932 1.34.905 0-.42.3-.54.178-1.085.37-.17.644-.434.713-.904-.34.077-.598.236-.89.362v-.36c-.666.1-1.448-.16-1.874 0 .43.103.603.472.535 1.083zm5.89-.633c-.68-.006-1.112-.26-1.607-.45.11.29-.29.067-.178.36.184.356.338.742.445 1.175.82-.195 1.407-.624 2.23-.814.02.07.003.18.09.182-.068-.633-.82.17-.98-.453zm10.793.453c-1.038-.094-1.918-.348-2.944-.453-.414.42-.897.08-1.43.27-.14-.068-.132-.285-.355-.27-1.115.106-1.883.564-3.034.633-.19.337-.906.524-1.158.27-.05.163-.046.377-.178.454-.14-.01-.07-.232-.27-.183.037.367-.554.1-.8.182-.17.01-.063.298-.27.27-.987.083-1.218.934-2.496.723-.736.34-1.75.397-2.41.815-.14-.01-.068-.232-.267-.18-.278.19-.343.19-.623 0-.104.315-.638.196-.98.27.092.33-.31.114-.447.18-.12.058-.163.23-.268.27-.49.195-1.06.204-1.517.454-.14-.01-.07-.23-.267-.18-.222.253-.678.41-.892.18.035.293-1.016.293-.98 0-.28.19-.346.19-.626 0-.21.328-.872.2-1.338.27-.134.287-.72.115-.892.363-.07-.02-.104-.076-.09-.18-.322.32-1.54-.328-2.05.18-.338.13-.172-.25-.447-.18-.317.483-1.463.19-2.32.18-.56-.006-1.465.37-1.337-.362.364.1.44-.097.535-.27.143.37.414.26.804.18-.295-.365-.294-1.03-.714-1.266-.133-.468-.166-1.038-.624-1.176-.12 1.748-.312 1.732-.09 3.166-.234.094-.547.11-.892.09-.45.57-1.47.56-2.408.634-.38.518-1.772.012-2.23.45v-.18c-1.203.32-2.927.69-4.193.18-.076.196-.328.212-.624.183.11-.293-.29-.07-.18-.362-1.375-.14-3.343-.553-4.727-.09-.142-.008-.07-.23-.268-.18.08.29-.29.126-.357.27-2.024-.207-5.123.104-7.226-.09-.087.123-.3.117-.356.27-.382-.34-1.65-.45-1.517.454.38-.087.343.254.623.27.213 1.082 1.473 1.1 1.963 1.9.45.057.77.245 1.07.452.578-.114.775-.04 1.427 0-.11.293.29.07.178.362.442-.107.595.19.894.272.225.06.7-.056.98.09.02.01-.017.175 0 .18.45.115.567.06.804.18.315.164.536.22.714.273.177.052.382-.045.535 0 .05.014.028.146.178.18 1.5.352 3.363-.24 4.46.09.08.025-.014.164.18.182.776.075 1.737-.23 2.497 0 .074.022-.006.156.18.18.69.095 1.59-.06 2.228.09.103.025.092.176.18.182-.022 0 .063-.31.177-.18.232.26.028.156.268 0 .004.152.035.158.178.18.597.09 1.916.018 2.052-.18.514.564 2.175.03 2.676-.272.494-.073 1.303.174 1.517-.18v.18c.87-.416 2.588.03 3.212-.632-.036.577.706.368.98.632.322-.277.912-.28 1.16-.632.47-.067 1.083.01 1.338-.273-.01.163.09.212.268.18.17-.368 1.054-.015 1.25-.36.14.038.075.284.355.18.277.068.11-.312.448-.18.588.437 2.342.657 3.21.36.104-.034.088-.157.18-.18-.014.004.013.178 0 .18.17-.04.157-.145.267-.18.132-.04.318.052.446 0 .063-.025-.02-.16.09-.18.426-.085.842.14 1.25-.09-.66-.417-2.185.043-2.588-.634-.288-.112-.068.293-.357.18-.16-.308-1.157-.462-1.248-.27v-.36h-.625c.065-.278-.154-.268-.09-.544.282.103.217-.142.358-.18.04.38.63.202.624.63.307.01.64.048.714-.18.513.625 1.73.538 2.497.905.32-.006.727.073.803-.18.262.32 1.418.24 1.695 0-.02.17.1.2.09.36.528.085.75-.143.98-.36.475-.032 1.092.08 1.25-.272-1.517-.214-1.92.15-3.033-.362.05-.16-.108-.53.09-.542.104.225.375.283.534.453.107-.28.52.21.803-.18.273.444.94.033 1.427.18.073.023-.005.155.178.18.588.083 1.375-.077 1.606.453-.213.055-.647-.114-.713.09.192.346.673.103.98.18.064.018.002.16.18.182.722.09 1.558-.107 2.32.09.062.016.002.158.177.182.69.09 1.418.016 2.052.09.252.406.896.416 1.16.814.53.004.934.137 1.16.45.946.248 2.114.27 3.032.544.328-.385.693.255 1.07-.18.07.38.857.035.982.36.35-.212.104-.045.535 0 .075-.193.328-.21.624-.18 0-.36.225-.495.625-.452.152-.358.43-.588.98-.542.04-.203.16-.323.358-.36.236-.03-.083.504.268.36.17-.158.105-.26.357-.18.335.103-.037.088.356 0 .407-.094.404.13.626.18.5.112 1.484.12 2.14.09.677-.03 1.01.19 1.785.18.165-.255.54-.298.982-.27.38-.705 1.49-.313 2.23-.18.695-.353 1.908-.178 2.23-.905.83.026.954-.663 1.695-.725.357-.723 1.34-.812 1.784-1.447.416.03.39-.39.804-.36.092-.632.81-.627.714-1.448.716-.42.796-1.485.892-2.532-.368-.14-.73-.285-1.07-.453-.14.01-.07.23-.268.182-.004-.153-.035-.16-.178-.182-.84-.125-2.162-.1-2.766.182-.325.01-.425-.38-.625 0-.198-.187-.652-.684-.89-.273-.194-.287-.4-.56-.626-.813h-.178c-.243-.063.062.428-.18.363-.21-.002-.262.156-.535.09-.076.496-.688.448-.892.815-.065-.263-.737-.263-.803 0-.122-.23-.802-.373-.803-.18-.18-.24-.585-.253-.98-.274-.313-.557-.635-1.105-.982-1.627-.82-.006-1.474.113-2.052.09-.873-.033-1.518-.825-2.676-.45-.074.255-.355.302-.535.45-.67-.25-1.596.784-2.32.182-.418.588-.96-.164-1.25.18.02-.17-.1-.2-.088-.363-.802.217-1.413-.54-1.695-.27-.075-.197-.337-.2-.357-.452zm-14.184.722c-.008.385-.15.634-.09 1.086.564-.207.5-.39 1.16-.18-.09-.513-.46-.742-.357-1.448h-.268c-.035.297-.02.643-.446.542zm-4.105 2.08c.733-.04 1.028-.525 1.784-.543-.4-.438-.718-.96-.893-1.627h-.267c-.458.47-.363 1.5-.625 2.17zm-7.582-1.898h.178v-.183h-.177v.182zm1.16 2.26c-.007.265-.34.197-.268.542h.714c.042-.286-.162-.32-.09-.633-.134-.017-.33.03-.357-.092-.003-.95-.27-1.628-.357-2.26-.575.322-.48 1.32-.625 2.08.414-.212.793.08.983.36zm2.944-1.81c-.125.23-.216.85-.268.904-.02.02-.17-.022-.18 0-.178.418-.094.893-.445 1.177.26.155.302-.165.445-.18.286-.03.267.154.447.18-.03-.004.05-.174.088-.18.115-.02.084.174.18.18.086-.49.37.086.623 0-.032-.51-.267-.813-.446-1.176.022-.443.026-.87-.178-1.084.07-.02.176-.002.178-.09-.172-.07-.454.286-.445.27zm35.146.724h.625c-.005-.387-.536-.24-.893-.27-.192-.257-.53-.37-.98-.363.176.454 1.065.186 1.248.634zm-69.4.18v.454c.512.138-.005.278.266.723-.334-.096-.143.34-.447.272.302.39.214.793.446 1.357.75-.062.96-.264 1.783 0-.02-.172.1-.2.09-.364-.37-.32-.89-.484-.893-1.175-.364-.202-.575-.562-.535-1.175-.405.17-.122-.36-.446-.27.01.162-.09.21-.268.18zm11.506.09c-.215.236-.194.71-.625.725 0 .45-.155.748-.447.903v.723c.825-.028 1.138-.028 1.963 0-.35-.576-.54-1.32-.445-2.35H20.7zm9.633 2.443c-.038.142-.28.077-.178.362.66.064.763-.433 1.516-.273-.277-.863-.77-1.51-.89-2.532h-.268c.177 1.007-.664 1.698-.18 2.442zm-14.898.09c.176-.027.177.123.27.182-.073-.5.368.004.444 0-.004 0 .038-.168.088-.183.296-.077.662.058 1.07 0-.44-.456-.636-1.163-.98-1.718-.066-.206.16-.706-.18-.633-.533.483-.447 1.594-.713 2.35zm9.456-1.9c-.174.153-.076.63-.534.544.208.86-.393 1.227-.178 1.81.91-.17 1.533.433 2.23.18-.416-.09-.494-.523-.446-1.084-.338-.44-.404-1.16-.714-1.628.112.37-.214.056-.357.18zm20.608.272c.2-.038.284-.195.446-.272-.388.124-.497-.028-.98 0v.27c.34.195.47-.474.534 0zM11.51 36.355v.363c.34-.124.6-.29.893 0 .107-.104.162-.26.446-.183.435.283 1.934.407 2.14.092-.238-.123-.417-.303-.535-.544.017.29-.15.39-.357.45-.49-.496-1.048-.926-1.16-1.807h-.268c-.014.92-.053 1.814-1.16 1.626zm-4.282-.36c.788.136.71 1.15 1.34 1.445-.098-.488.08-.7.266-.903-.036-.324-.393-.324-.356-.723-.76-.135-1.19-.6-1.784-.905.16.38.61.467.534 1.085zm8.03 0h.177v-.182h-.178v.18zm2.05 0h.18v-.182h-.18v.18zm4.997.54h.267v-.18h-.267v.18zm34.343 4.884c-.14-.038-.075-.284-.356-.18-.23.46-1.466-.1-1.696.36.013-.493-1.08.133-1.07-.36-.288-.112-.068.292-.356.18-.534-.625-1.17.253-2.14 0-.07.443-1.11-.097-1.16.363.42.352.775-.34 1.07.09.003-.153.034-.16.178-.18 1.36-.205 3.386-.028 4.996-.092.385-.013.792-.005 1.16 0 .238.006.69.333.802-.09-.53-.097-1.132-.24-1.428-.09zm3.747.634c-.374-.437-1.58-.507-2.23-.36.785.077 1.29.438 2.23.36zm-13.47.09c-.04.403.22.5.357.724.593.043 1.55-.204 1.695.18.34-.315.28.063.803 0 .214.036-.05-.412.268-.27v.27c.81.063 1.425-.017 1.784-.18.215-.1.467-.044.624-.09.145-.044.07-.17.267-.182.148-.01.24.182.357.18-.032 0 .07-.172.09-.18.34-.138.327.15.535.18.72.113 1.604.012 2.587.092.34-.44 1.29-.26 1.605-.724-2.604-.024-4.936-.086-7.404 0-.015.135.032.333-.09.36-.11-.307-.694-.138-1.07-.18.03-.212.142-.34.09-.63-.983-.004-1.467.5-2.498.45zm-4.103-.09c0-.19-.747-.355-.714 0 .437.072.897.452 1.25.09-.132.345.398.018.267.36.528-.058 1.146.082 1.605 0 .116-.018.083-.144.178-.18.177-.062.622.146.536-.18-1 .024-2.19-.638-3.122-.09zm-2.32.45h.447c.018-.17-.102-.197-.09-.36h-.357v.36z"/><path d="M21.413 38.89c.085.453-.568.69-.625.45-.123.147-.184.356-.357.453-.416-.03-.37-.528-.355-.995.405-.407.896.007 1.338.09"/></g></svg>