<svg xmlns="http://www.w3.org/2000/svg" viewBox="0 0 89.060982 89.220772" width="89.061" height="89.221"><title>brachiosaurus</title><g fill="#000" fill-rule="evenodd"><path d="M4.87 58.09c-.054-.58.174-.88.314-1.27.23.14.12 1.277-.315 1.27M5.5 62.54c.228.668.38 1.415.472 2.222-.604-.576-.75-1.35-.472-2.223M6.918 53.485c.85.716-.7 1.43-.472 2.542-.127.084-.257.166-.474.158-.26-.884.713-1.794.946-2.7M6.446 64.445c.15-.483-.023-1.294.63-1.27.24.446-.053.65.157 1.27h-.787M6.918 60.95c.53.146.08.296.158.794-.367-.238-.24-.387-.158-.794M8.18 52.057c-.026-.185.034-.284.158-.32.764-1.15 2.455-2.002 3.783-2.857 1.08-.696 1.974-1.605 3.155-2.065-2.152 1.963-4.957 3.266-7.095 5.242M10.703 56.504c.657-.82 1.19-1.766 2.364-2.066.245 1.123-1.036 2.008-2.364 2.066M10.703 47.927c.013-.41.674-.167.472-.794.588.352 1.28-.347 1.42-.953.495.08.616-.346.945 0-.814.882-1.706 2.025-2.837 1.747M11.964 64.285c.413.255.35 1.147.315 1.59-.44-.195-.294-.977-.316-1.59M12.594 63.81c.268.365.107 1.162.473 1.43-.153.003-.122.193-.158.316-.655-.097-.52-1.235-.316-1.746M16.694 55.868c-.783.114-1.787 1.375-2.996 1.588 1.03-1.344 2.81-1.933 3.626-3.493.34.13 1.147-.088 1.734.158-.59 1.417-1.934 2.076-3.153 2.86-.268.058-.297-.124-.315-.317.39-.243.938-.327 1.104-.795zm1.26-1.27c-.115.413-.75.303-.788.794.413-.02 1.203-.47.79-.794zM14.486 65.397c.293-.446.347-1.133.946-1.27-.18.658.332.62.316 1.112-.62-.477-.674.665-1.262.157M18.112 63.81c.49.352.313 1.38.63 1.905-.9-.142-.675-1.175-.63-1.905M19.53 84.933c.168-1.037 1.42-1.44 2.208-2.065.25-.198.366-.61.63-.794.242-.167.632-.276.948-.476 1.64-1.046 3.803-2.36 5.833-3.177-.606.798-1.635 1.103-2.524 1.59-2.474 1.353-5.148 3.288-7.095 4.923M19.53 55.074c1.214-1.292 2.333-1.833 4.26-2.224.27 1.01-1.296 2.733-2.052 2.224-.734.478-.965 1.462-2.05 1.59.02-1.094 1.34-.876 1.578-1.75-.608-.542-1.17.427-1.735.16zm2.208-.794c-.002.21-.276.145-.315.318.324.18.752-.25.315-.318zm1.104-.16c-.325-.138-.708.413-.315.478.038-.227.26-.27.315-.477zm.316-.952c.216.362-.407.597 0 .635.046-.097.392-.61 0-.635zM19.69 65.397c-.115-.485.16-.578.157-.952.24.002.346 1.177-.158.952M19.847 73.18v-.318c.254-.044.27.15.472.16v.316c-.255.045-.272-.15-.473-.158M34.983 77.944c-2.24 1.293-4.945 2.114-6.78 3.813.103.475.337-.152.63 0-1.433 1.573-3.96 2.892-5.517 3.81.235-.967 1.353-1.28 2.05-1.746.737-.492 1.4-1.095 2.206-1.428.296-.303-.093-.288 0-.794 2.318-1.372 4.435-2.944 7.41-3.654M24.734 86.68v-.477c1.738-2.465 3.977-3.497 6.622-4.923-1.51 1.497-3.603 2.406-5.203 3.812 1.265 0 2.316-1.585 3.784-1.906-.698.757-1.636 1.337-2.523 1.906-.882.565-1.8 1.052-2.68 1.588M25.05 44.75c.48-1.26 2.24-1.238 3.153-2.064.27-.468.47-1.01 1.26-.953.074.497-.136.71-.63.635v.794c.46-.118.306-.857.947-.794-.372.844-.984 1.444-1.26 2.383-.268-.224-.912.258-.79-.634.406-.28.758.164.946-.478.135-.506-.248-.49-.316-.794-.78.963-2.122 1.357-3.31 1.907M31.514 62.697c.363-.048.175.46.473.477-.19.478-.69-.024-.473-.477M32.302 62.856c-.03-.455-.02-.866.473-.794.01 1.224.68.46 1.42.477.165.696-.534.52-.474 1.11-.667-.222-.812-.91-1.418-.794M32.617 61.268c.41-.33.587.355 1.104 0v.636c-.58.004-1.085-.072-1.103-.636M35.77 62.697c.068-.78.73-.957 1.262-1.27.162.366.543.512.473 1.112-.852-.575-.94-.31-1.734.157M38.608 46.02c-.2-.233-1.197.71-1.576.318.875-.812 2.283-1.087 3.31-1.746-.013.225-.025.45.158.476.686-.475 1.21-1.11 2.208-1.27-.64.785-1.624 1.223-2.523 1.746 1.956.583 3.44-1.496 4.73-1.587-1.48 1.418-3.79 2.006-5.676 3.017 2.256.155 4.132-1.448 6.148-2.065-.336.577-1.126.82-1.734 1.11-1.383.663-2.853 1.28-4.572 1.59-.998.178-1.96.28-2.68.953-.572-.485.782-.366.473-1.112 1.22.04 1.368-1.022 1.733-1.43M37.505 79.85c.717.23.934.966 1.734 1.113-.63.31-1.65-.347-1.735-1.112M38.766 60.474c-.292.5-.602.98-1.103 1.27-.246-.488.276-1.356 1.103-1.27M39.397 43.957c.342-.662 1.034-.97 1.892-1.113.183.362-.085.476.472.636-.318.58-.524.554-1.104.636-.083-.13-.164-.26-.158-.478-.35.124-.614.335-1.103.32M41.13 59.52c.037.62-.064 1.1-.787.954-.228-.495-.025-1.08.788-.953M49.172 21.563c.51.593-.46 1.258-.788 1.746-1.108 1.65-2.626 3.62-4.415 4.605 1.022-1.67 3.037-2.34 3.783-4.288-2.412 2.176-4.635 4.542-7.253 6.512-.117-.49.433-.307.316-.795 3.182-2.195 5.673-5.086 8.356-7.782M42.708 57.615c-.084-.944.98-1.197 1.577-1.747 1.348-1.245 2.452-3.104 4.1-3.97-1.72 2.08-3.744 3.853-5.677 5.717M45.546 27.44c2-1.852 3.17-4.54 5.203-6.355-.64 1.272-1.538 2.402-2.366 3.495-.796 1.05-1.61 2.262-2.838 2.86M46.02 56.185c.45-.34.766-.814 1.26-1.11-.126.55.235.61.158 1.11-.506.447-1.016.542-1.42 0M46.02 44.116c.755-.443 2.176-1.035 2.994-.478.07.75-.51.126-.787.16-.716.086-1.588.595-2.208.318M49.014 48.403c.13.704-1.193 1.202-1.734 1.747-.353-.928 1.158-1.237 1.734-1.747M48.227 51.58v-.477c.777.095.956-.413 1.733-.318-.132.767-.517 1.28-1.103 1.59-.135-.508.248-.492.315-.795-.145-.433-.493.222-.945 0M49.014 45.386c.084-.128.165-.258.158-.477.326.095.597.245.473.793-.233-.083-.398-.235-.63-.317M56.424 18.227c1.446.42.698 2.18.16 3.336-.482 1.027-1.718 1.84-2.21 3.017-.244.586-.2 1.162-.472 1.747-.355-.5.082-1.797.473-2.542.682-1.3 2.298-2.12 2.522-4.128.128-.764-.69-.574-.473-1.43M54.06 38.874c.827-.112.616-.51 1.42-.794-.003.42.058.907-.16 1.11-.49-.238-.967-.19-.945.478-.344-.023-.338-.4-.315-.794"/><path d="M54.533 16.163c.892 1.006.677 3.13.946 4.764-.29.184-.11.843-.79.636.353-2.198-.083-3.778-.157-5.4M55.794 38.556c.41.164.384 1.067-.158 1.112-.397-.397.18-.624.158-1.112M57.055 47.768c-.37.004-.464-.273-.945-.16.663-1.078 1.486-1.994 2.522-2.7.133.93-.79.794-.946 1.43.203.305.326-.374.788 0-.108.845-1.398.497-1.42 1.43M56.897 16.163c.195-.825-.302-4.093 0-5.083.17-.558 1.052-.777 1.262-1.27.015-.04-.315-.668-.317-.636.048-.75 1.576-2.755 2.208-3.177-.327.993-1.097 1.54-1.418 2.54.437.16.148.526.315.796.555.894 1.897.912 2.68.16.23.877-2.23 1.516-2.68.475-.626.004-.647.62-.788 1.112-.513-.47-.692.36-.947.636.226 1.292.112 3.374-.316 4.447M58.316 16.32c.386.476-.386 1.105-.63 1.59-.136.27.255.77-.315.634-.243-.72.514-1.67.946-2.223M58.16 49.198c.77.213 1.14 1.55.945 2.223-.726-.325-.724-1.388-.946-2.222M60.997 34.745v-.477c1.462-.592 2.06-2.054 3.784-2.383-1.253.96-2.425 2.004-3.783 2.86M63.677 10.92c.276.412 1.354.014 1.104.954-.662-.147-.662-.04-1.26-.317-.385.406-.72.864-.946 1.43.18.37.527-.408.63-.636.67.52-.486 1.126-.788 1.747-.33.677-.2 1.398-.63 1.906.104.334.416.707.157.954-1.22-.49.07-1.55-.316-2.542.726-1.122.893-2.807 2.05-3.494M62.416 49.992c-.185-.026-.133-.29-.158-.477 1.75-1.36 3.683-2.537 5.518-3.812-.033.875-1.463 1.275-2.365 1.906-1.073.75-2.126 1.622-2.994 2.382M64.308 50.627c2.153-1.644 4.08-3.515 6.938-4.447-1.716 1.156-3.686 2.19-5.36 3.494-.458.355-.87 1.23-1.578.953M67.776 49.833c-.184-.026-.132-.29-.157-.476 1.4-1.025 2.785-2.065 4.413-2.86-1.126 1.407-3.094 1.966-4.257 3.336M70.3 49.038c.09-1.283 1.224-1.52 2.207-1.905.356.54-.485.484-.474.476-.72.475-.99.982-1.734 1.428M71.56 49.038c.22-.89 1.044-1.172 1.892-1.43-.392.718-1.116 1.1-1.892 1.43M73.768 36.968c.16-.74 1.195-.596 1.42-1.27.295.568-.9.996-1.42 1.27M78.813 19.657c.477.218.563-.076 1.26 0 .297.55-.18.603-.314 1.11-.794.113-1.04-.328-.947-1.11M81.02 20.292c-.045-.257.15-.274.158-.477 1.08.182 2.362.162 2.996.794-.442.45-2.15-.303-3.153-.318M83.543 21.085c.72.347.343.812.315 1.748-.495-.302-.86-1.103-.315-1.748M84.332 22.198c1.105.282 1.947 1.61 1.892 2.54-.705-.772-1.392-1.563-1.892-2.54M8.338 51.103c-.468-.793.647-1.355.945-1.905-.023.3-.705 1.297-.945 1.905M11.175 52.85c-.468-.43.364-.895.63-1.112.16.12-.496.762-.63 1.112M34.667 37.603c2.093-1.175 3.268-4.648 5.676-6.035-2.16 3.118-4.628 5.927-6.937 8.894-.586-.234.333-.907.63-1.27.408-.498.865-.904 1.104-1.27-1.4.866-2.072 2.465-3.468 3.335.317-1.162 1.34-1.614 2.05-2.383-1.01.415-2.143 2.077-3.47 2.7 1.092-1.336 2.464-2.39 3.784-3.494.716-.922 1.672-2.444 2.523-2.7-.44.933-1.28 1.465-1.893 2.223M59.735 41.416c-.406.436-.993.608-1.576.952-1.293.764-3.217 1.85-4.89 2.065.395-.437 1.038-.608 1.578-.795 1.66-.572 3.317-1.356 4.887-2.222"/><path d="M89.06 25.056c-.57 2.734-.887 5.342-2.048 7.148.202.444.326-.5.788-.32-.06.724-.86.85-1.262 1.432-.525.76-.538 1.925-1.576 2.223-.92-.027-.57-1.334-1.104-1.75-.54.62-.376 1.952-1.418 2.066-.316 1.88.03 3.4-.474 4.765-.01.03-.272.052-.315.16-.353.89-1.425 1.464-1.89 2.382-.267.525-.247 1.57-.474 2.382-.16.57-.742 1.023-.315 1.907-1.87 2.823-3.09 5.838-2.68 9.53.092.83.448 2.065-.157 3.335.356.86.857 1.572.63 3.018-.506.495-1.06.944-1.733 1.27.72.387 1.68.532 1.576 1.747.595.3 1.21.582 1.576 1.112-.002.792-.564 1.02-.472 1.906-1.104.848-1.637 2.27-2.523 3.335-1.503.557-3.428 1.536-5.52 1.906-2.49.44-4.143.76-5.99 1.906-.52.32-.836.843-1.42 1.11-.304.14-.666-.078-.944 0-.753.214-1.02.81-1.578 1.112-1.385.004-3.404.736-5.044 1.43-6.347.45-10.33 1.002-14.977 3.018-.366.05-.606-.026-.79-.16-1.434.584-3.018.84-4.414 1.59-.547.293-1.35.633-1.893 1.27-.318-.592-1.17.33-1.418.794-1.696.358-2.467 1.645-3.628 2.54-1.085-.33-1.326-.18-2.207 0-1.27-.497-2.325-.836-3.784-.952-1.213-.097-2.06.015-2.994-.635-.143-.1-.218-.438-.474-.635-.22-.17-.55-.222-.63-.318-.332-.39-.304-.97-.63-1.43-.875-1.23-2.193-1.867-3.154-3.017-.84-1.008-.948-2.473-1.734-3.653-.76-1.14-2.803-1.575-2.523-3.335.02-.115.316-.152.317-.16.017-.518-.244-.96-.16-1.27.03-.108.274-.132.317-.318.092-.395.234-.748.473-1.11.617-.094.915.135 1.26.316.37-.52 1.348-1.123 2.208-.635.356-.782 1.67-1.17 1.42-2.065-.203-.396-.885.047-.946.318-.694-.327-1.586-.713-1.893-1.43-.528.37-1.016.778-1.262 1.43-.922-.862-2.58-.34-3.31-1.587-.443.084-.82.233-1.262.318-1.353-.478-2.704-1.58-3.784-1.746-.42-.338-.593-1.164-.947-1.113v-1.11c-.207-.585-.524-1.06-.946-1.43C.85 62.827.61 62.17.14 61.744c-.356-2.334-.01-6.52.787-8.576.013-.035.43-.234.473-.318.452-.9.64-1.652 1.104-2.382 1.202-1.893 3.45-3.78 4.572-5.876.283-.02.333.195.63.16 1.594-1.308 3.816-1.982 5.36-3.336h1.578c.622-.274 1.135-.658 1.42-1.27-.854-.067-.932.648-1.735.634 1.458-1.832 5.09-1.422 6.62-2.383 3.492-.43 6.265-1.513 9.145-2.064.36-.64 1.228-1.76 1.42-2.7.024-.126.094-1.258 0-.953.156-1.18.623-3.18.945-5.082.18-1.062.497-2.216.63-3.177.092-.662-.097-1.494 0-2.222.164-1.228.154-2.4 0-4.448-.076-1.012-.314-1.85-.157-2.7.083-.452.324-.94.473-1.43.37-1.212.636-2.184 1.26-3.334.163-.298.584-.452.79-.794.558-.93.893-2.174 1.42-2.86.14-.186.5-.346.787-.635.467-.468.855-.933 1.42-1.43 1.26-1.11 3.063-2.047 4.728-3.016.934-.542 1.74-.974 2.998-1.27 2-.472 3.255-.218 5.675-.16 1.05.027 2.137-.103 3.153 0 1.028.107 1.54-.045 2.366.796.295-.036 1.044-.41 1.26 0 .444-.024.456.388.473.794.58.264 1.076.61 1.42 1.11 1.223-.113 1.774.732 2.522 1.113 1.043.53 2.267.367 3.47 1.112 1.223 1.36 2.34 2.83 3.468 4.288.28.036.79-.16.63.318 1.01-.097 1.345-.166 2.365.16 1.474 3.173 3.93 5.36 6.622 7.305 5.398-.18 6.23 5.13 8.83 7.94zm-50.294 40.5v-.635c-.388-.02-.76-.023-.946.16-.12.81.375 1 .788 1.27.173-.54-.417-1.206.158-.794zM.612 58.568c.395-1.985 1.783-3.916 2.05-5.4.43.116.317-.315.63-.318.673-2.127 2.105-3.49 3.31-5.082 2.27-2.16 4.677-4.185 7.41-5.877-1.9.318-2.978 1.83-5.044 2.384-.358.646-.985 1.02-1.42 1.588-.332-.35-.465.204-.945.16-.25.592-.844.843-.946 1.587-3.39 2.468-5.82 8.063-5.203 13.023.203-.633.005-1.3.158-2.065zm14.504 8.417c-.113.325-.494.63-.157.954.754.06-.272-.766.472-.795.383.566.31 1.592.79 2.065.402-.493.652-1.142.787-1.906-.25-.016-.548.02-.474-.32 1.326-.143 1.212.782 2.207.637.32-.046.42-.317.63-.475.187.183.558.18.946.16.154-.216.53-.208.63-.478.63.195 1.596-.047 2.366.635 2.26-.894 5.475-.347 6.78-1.588.207.002.143.278.315.317.683-1.354 2.752-.335 3.942-1.11.298.652.862 1.037 1.42 1.43.443-.612.632-1.48.787-2.383.472.573 1.463.38 2.048.477.674-.323 1.046-1.453 1.892-1.113.236-.237.283-.668.63-.793 1.7-.3 2.335-1.672 2.997-3.017 3.334-1.99 5.29-5.367 10.09-5.877-.294-.753.333-1.758-.473-2.065-.157.374-.473 1.066-.945.636-.03.5-.295.764-.79.794.364-1.327 1.144-2.236 2.05-3.018-1.42.16-1.777 2.232-2.838 2.224.404-2.138 2.156-2.18 3.153-3.494.688.2.7.047 1.26-.16.925.92 2.022 3.326.316 3.972.762.17 1.493.944 1.893 1.11.533.224 1.184.186 1.735.32.553.133.544.343.946.634.533.387 1.06.563 1.576.794 1.017 1.147 1.986 2.342 3.47 3.018.41.964 1.677 1.063 2.206 1.906.807-.072.864.613 1.577.636.213.738 1.05.85 1.893.952-.024.394-.03.77.314.794 1.098-.362 1.896.948 3.47.635 1.15-.956.3-1.948-.16-3.175.698-1.276.32-4.308.317-6.035-.002-.843.583-1.84 0-2.382 1.388-1.14 1.364-3.474 2.05-5.24.177-.462.488-.76.63-1.114.276-.682.265-1.387.788-1.747-.12-.598.193-.76.158-1.27.984-.385 1.067-1.678 2.05-2.065.587-2.175.383-4.17.63-6.67.855-.46 1.633-1.118 3.31-1.112.07.406.222.73.474.953 1.21-2.596 2.368-5.142 2.523-8.418-2.383-2.588-2.822-7.58-7.884-6.988-2.64-2-5.264-4.015-6.778-7.147-.74-.098-1.563-.795-2.366-.318-.37-.703-2.044-1.135-2.207-2.54-2.28-1.693-5.11-3.92-7.726-4.29-.828-.86-1.897-1.477-2.997-2.064.464 2.734-.347 5.442-1.576 6.99v.793c-.56.442-1.248.755-1.104 1.907-.27.448-.62-.06-.63.476-.558 2.403-2.095 3.82-3.153 5.717-.56-.086-.388.563-.947.477-1.764 3.675-4.44 6.432-7.252 9.053-1.332 1.04-3.208 1.646-4.572 2.224-.65-.363-1.384-.315-2.206-.16-.235.61-.608 1.083-1.105 1.43-.25 2.025-1.47 4.708-2.206 6.512-.266.65-.432 1.33-.946 1.747.342-2.257 2.184-4.404 2.523-6.988.034-.26-.162-.674-.158-.954.018-1.198.694-2.342.787-3.65.05-.693-.112-1.346-.157-2.066-.06-.937.188-1.95-.316-2.86-1.073 4.08-.954 8.355-1.576 12.07-.208 1.248-2.568 4.053-3.626 4.926-2.542 2.096-5.57 3.426-8.356 4.923v-.476c-2.12.146-4.298.526-5.99.16-.148-2.28 3.458-1.708 4.886-3.18-.98.207-1.255.024-1.735.16.24-.067-.457.72-.63.16.512-.745 1.954-.855 2.838-.32 1.103-.393 2.77-1.654 4.1-.792-.663-.022-.882.288-1.42 0 .287 1.03-1.047.427-1.104 1.112.695.192 1.865-1.035 1.736-.16 2.737-.842 5.702-1.614 6.78-3.81-.395.832-1.602.114-2.207.793-1.54-.225-3.32.68-4.73 1.11 1.898.01 4.334-.288 5.36-.634-1.824 1.674-5.467.412-8.2 1.59-1.563-.405-2.17.04-3.94.475-.073.46-.56.498-.474 1.113-1.113.36-1.852 1.1-2.68 1.747-.38-.065-.343.29-.79.158-3.167 2.792-6.908 5.005-8.512 9.37-.478.282-.79.814-.946 1.113-.098.185.034.42 0 .478-.048.08-.404.06-.473.158-.068.097-.128.42-.16.477-.502.94-.568 2.396-1.417 3.335.386.595-.18 1.762 0 3.017.173 1.22.966 2.056 1.26 2.86.637.27.77.062 1.263.476-.258.324-.72.44-.788.954.566.597 1.262.34 1.735 1.27.086-.793-.004-.777.157-1.43-.15-.395-.812.428-.788-.317.84-.59 1.058-.638 1.734.16-.282.48.08 1.442.157 2.064.717.087.866-.398 1.105-.793.184-.62-1.044-.63-.63-.953.505-.03.927.354 1.576.476.972.185 2.113.03 3.153.16.68.084 1.26.262 1.893.317.472.04 1.078-.352 1.26.318-.698-.027-1.042.312-1.734 0-.016.858.29 1.25 1.103 1.588.434-.516.293-1.612 1.103-1.748zm-5.833 1.27v-1.428c-.388.02-.76.023-.945-.16-.05.896.402 1.29.945 1.59zm.79-.95v-.32h-.316v.32h.315zm1.102 1.428c-.062-.752.648-.724.473-1.588-.497.077-.557-.287-1.104-.16.078.717-.003 1.593.63 1.748zm0 7.147c.403-.018.552-.292.79-.477-.583-.207-.17-1.42-.947-1.43-.107.796.146 1.23.157 1.907zM47.91 63.81c0 .936-.64.284-.945.794-.1.904-.554 1.453-.788 2.223-1.827.49-2.89 1.75-3.627 3.335-.202-.008-.218-.203-.473-.16-3.1 2.87-8.71 3.845-12.77 5.243.206.002.2.44 0 .476-.6.234-.032-.71-.63-.475-2.595.247-5.422 1.358-8.2 1.27-2.186-.07-4.255-.467-5.833.477-.438-.46-.978-.815-1.577-1.112-.47.563-1.16-.032-1.734.477 1.328 1.573 2.64 3.162 3.31 5.4 1.945 1.588 3.48 3.588 5.204 5.4 2.07.327 3.48.07 4.572.476.29.108.586.434.945.476.695.082 1.227-.258 2.05-.318 3.16-2.307 7.14-4.98 12.14-5.718.465-.59 1.562-.544 2.207-.953-.696-.145-1.06-.624-1.892-.634-.137-.6-1.426-.424-1.576-1.112 1.54-.397 2.995 2.226 4.572 1.27-.654-.293-1.615-.278-2.05-.793.522-.658 1.766.138 2.365 0 .05.368-.024.61-.156.794 4.178-.78 9.184-1.082 12.612-2.064 2.03-.58 4.227-1.28 5.99-1.906 2.468-2 6.032-3.406 10.092-3.653.736-.423 1.565-.752 2.523-.952.918-1.406 2.204-2.44 2.68-4.288-1.582-.34-1.717-3-3.782-1.906-.946-1.113-4.22.12-4.258-1.906-3.24.347-4.538-.467-7.095-1.112-.3.334-.43.84-1.103.794-.225-.703.533-.415.472-.953-2.19-.192-3.863-1.816-5.833-1.27-1.538-1.322-3.177-.128-4.887 0 .005 1.063-.462 1.652-1.26 1.906-.305-.223-.636-.42-1.105-.477-.213.27-1.084 1.398-.157.954zM12.595 75.245c-.34-.134.06-1.013-.315-1.112-.003.262-.438.09-.474.318.252.18.582 1.093.788.795zm.315 0c.207.16.58.155.788.317-.47-.65-.493-1.214-.79-1.746-.135.63-.135.797 0 1.43zm1.103-.477c-.126-.55.235-.61.157-1.11h-.63c.136.39-.04 1.098.473 1.11zm.316 1.27c.438.19.958.182 1.26-.158-.266-.58-.912-.776-.79-1.747-.67.342-.528 1.177-.47 1.905zm4.728-3.97h-.788c-.245.565.536.096.473.477-.208 0-.144.278-.316.317-.714.138-.368-.793-.946-.794-.698.3-.714 1.29-1.575 1.43-.702-.224-.092-1.155-.63-1.27-.36 1.16-.244 2.413.63 3.334.197-1.295.404-2.27 1.576-2.86-.13 1.25.107 2.963.79 2.86-.575-1.377.66-2.3.788-3.494zm-3.153.635c.53.483.478-.587 0 0zm2.365-2.065c-.88-.79-1.553-.587-2.365 0 .41.065.475.475.946.478-.226-1.012 1.872-.092 1.42-.478zm-.473-27c-.243-.178-.388-.456-.63-.635-.266.316-.905.254-1.104.635.373.11 1.41.368 1.734 0zM17.48 75.72c-.328-.566-.45-1.346-.63-2.063-.208.587-.753 1.67-.314 2.38.066-.355.836-.003.945-.316zm.632-6.352c.725-.123.403-.93.315-1.43.113.432-.743-.113-.63.318.234.24.254.698.315 1.112zm2.05-27.477c-.882.175-2.122.825-2.05 1.43.472-.688 1.593-.724 2.05-1.43zm1.42-.157c-1.286.453-2.297 1.18-3.312 1.905 1.207-.53 2.396-1.08 3.31-1.905zM19.057 74.61c-.192-.577.315-1.255 0-1.43-.506.937-.577 1.864-.472 2.7.804-.17 3.17.647 4.098-.16-.204-.685.178-2.145.474-2.858-.13-.397-.433-.623-.474-1.11-.758-.024-.61.867-1.103 1.11 0-.483-.6-1.18-1.102-.635.343-.03.5.13.472.476-.217-.006-.346.075-.472.16-.443-.296-.466-1.014-1.104-1.112.147 1.22-.35 3.19 1.104 3.495-.087-.685.16-2.08.788-2.542.03 1.43 1.35 2.14.788 3.177-.445-.61-.708-1.404-1.104-2.064-.328.41.056 1.538-.315 1.905-.733-.16-1.347-.442-1.577-1.11zm1.734-3.654c.89-.684 1.314-.675 2.524-.318.282-.557 1.282-1.076.945-1.747-.71.132-.532 1.157-1.26 1.272-.873.086-1.03-.55-1.577-.794-.437.846-2.146.02-1.892.635.37-.257.9.676 1.262.953zm2.997-29.54c-1.89.336-2.942 1.378-4.1 2.064 1.514-.538 2.81-1.297 4.1-2.064zm-3.312 27.158c.086-.45 1.11-.775.63-1.27-.274.41-1.174.194-1.26.793.302.065.123.616.63.477zm1.26-.953c-.478.536.584.483 0 0zm1.578-28.43c-.573.007-1.246-.087-1.42.32.59.01 1.09-.068 1.42-.32zm-.632 29.384c.495.074.445-.4.632-.635-.33-.093-.45-.395-.947-.32-.204.63.518.326.314.954zM26.94 40.62c-1.017.177-1.713.527-2.363.954-.893.587-1.71.912-1.735 1.588 1.358-.855 2.73-1.697 4.1-2.54zm-3.782 35.1c.512.093.733-.107 1.103-.158-.29-.834-.26-1.54-.787-2.382-.146.81-.703 1.678-.315 2.54zm1.734-.317c.062-1.23 1.01-2.337.946-3.176-.377-.002-1.724.23-1.892.953.585.67.488 1.788.946 2.223zm.473-4.923c-.965-.016-.764 1.617-1.42 1.43.767.69 2.06-.45 1.42-1.43zm.788-1.747c.05-.58-.025-1.033-.158-1.43-1.398-.055-.87 1.405.158 1.43zm.63 6.194c-.557-.693.188-1.753-.63-2.224-.12 1.043-.792 1.532-.788 2.7.42-.212 1.21-.05 1.42-.476zm.947-3.653c-.24-.237-.692-.256-1.104-.318.17.407-.48.758 0 .954.08-.735 1.166-.1 1.104-.636zm-1.104 1.27c.797.31.07 2.154.788 2.542.377-.785.01-2.32.63-2.86 1.575-.102.33 2.633 2.05 2.383-.3-.816-.183-2.202.158-2.86-1.424-.172-2.382.19-3.626.318v.477zm1.262-3.334c-.337.475-1.048-.348-1.262.317.438.26 1.87.502 1.262-.317zm0-1.748c-.05.215-.225.304-.158.635h.946c-.114-.485.16-.578.157-.952-.75.125-.863-.097-1.26.317h.315zm.945 7.465c-.085-.814-.026-1.773-.788-1.906-.01.92-.09 1.156-.157 1.748.186.183.556.18.945.16zm1.42-3.653c-.04-.595-.38-.888-.473-1.43-.72.068-.723.86-1.104 1.272-.198-.036-.322-.248-.316.158.69.074.942-.237 1.892 0zm.472-2.383c.66-.332 1.47-.655 2.366-.316-.202-.59-.84-.743-1.26-1.112-.19 1.454-1.526.433-2.05 1.112.46-.042.484.36.945.317zm.158-2.7c-.142.28-.58.264-.63.637.122.035.183.133.158.318.554.174.62-.946.473-.954zm.63 7.784c-.526-.346-.152-1.638-1.102-1.906-.09.838.136 2.005 0 2.383.47-.055.96-.09 1.104-.476zm-.472-3.494c-.525-.16-.516.22-.472.636.415.047.517-.22.473-.636zm1.42 3.494c.117-.473-.146-1.97.157-2.7-.638.294-1.304-.293-1.734.317.972.346.22 2.427 1.577 2.384zm.315-39.39c.066-.296-.1-1.636-.158-.474-.277 1.098-1.53 2.054-1.418 3.017.173-.526 1.396-1.734 1.575-2.542zm.158 35.737c-.732.156-.215-.948-.946-.793.053.636-.512.65-.473 1.27.668.04 1.25-.012 1.42-.476zm.315-3.175c.108-.59.076-.416.158-1.112-.17-.184-.726-.06-.946.158.252.33.342.82.788.955zm-.315 6.512c.446.13.408-.224.788-.16-.2-.914-.188-1.943-.63-2.223-.33.628-.397 1.605-.157 2.383zm.63-4.924v-.317c-.387-.247-.464.54-.157.475.01-.095.023-.187.157-.157zm1.26 4.447c-.252-1.092-.067-2.296.474-3.018-.87-.03-1.265.42-1.89.635.92.285-.103 2.39 1.417 2.383zm-.47-58.447c-.516.123-.414 1.693-.317 1.905.32-.42.024-1.457.316-1.905zm0-.636c-.556.642.506.375 0 0zm.314 53.524c0-.16.127-.188.157-.316-.247.014-.546-.02-.472.317h.315zm-.315-45.9c.086.232-.184.822.157.795-.087-.23.184-.82-.158-.794zm1.734 47.648c-.427-.1-.392-.663-.946-.635.02.285-.157.37-.473.318.205.395-.463.66 0 .795.372-.553 1.065.15 1.42-.477zM55.006 1.39c-.934-.08-1.988-.314-2.838-.316-.738 0-1.44.19-2.05.16-6.104-.31-10.63 4.585-13.402 9.052-1.692 2.727-2.604 5.295-2.05 9.052.026.188-.026.452.158.477-.112-2.654.82-4.257.947-6.67.553-.8.855-2.09 1.262-2.7 1.316-1.975 3.585-4.305 5.36-5.56 1.016-.716 2.2-1.498 3.154-1.905 3.267-1.392 7.742-.122 11.825-.477-.002-1.44-1.516-1.036-2.364-1.112zm-17.5 6.672c.675-.486 1.583-1.577 1.576-2.224-1.08.936-1.74 2.328-2.523 3.654-.77 1.303-1.86 2.608-1.893 4.13.63-2.172 2.086-3.512 2.838-5.56zm-2.05 64.96c.41-.433 1.478-.206 1.733-.795-.51-.94.112-2.107.315-2.86-.748-.065-.828.543-1.577.478-.393 1.09.813 1.53.474 2.54-.776-.118-.652-1.143-1.105-1.588.035.92-.362 1.612.158 2.224zm-.16-52.254c.275-1.05-.4 1.285 0 0zm2.84 7.306c1.34-1.348 2.633-2.747 4.414-3.653.535-1.26 1.533-2.054 2.366-3.016.576-1.272 1.487-2.207 2.522-3.02 1.068-1.834 2.042-3.764 3.31-5.398.077-1.3.798-2.337 1.262-3.494.58-1.443 1.03-3.65 1.734-4.606.442-.455 1.443-.347 1.577-1.112-.932-.156-1.65.14-2.52.16-1.967.04-3.183-.582-5.204-.318-1.514.197-2.314.98-3.31 1.587-.778.473-1.52.813-2.05 1.27-.48.414-1.422.975-1.736 1.272-.132.125-.04.492-.157.635-.13.158-.513.184-.63.317-.78.882-1.92 2.28-2.366 3.177-.385.777-.324 1.558-.472 2.383-.275 1.518-.503 2.72-.473 4.287.037 2.074.097 4.07.314 5.72.154 1.154.098 2.104-.314 3.334-.097.01-.187.023-.16.158.616.406.894-.038 1.893.318zm-.79 38.91c-.2-.007-.217-.202-.47-.157.023.186-.03.45.156.477.002-.21.276-.146.315-.32zm3.628 3.178c-.69-.152-.338-1.354-1.104-1.43.074.833-.553 1.202-.157 1.906-1.288.96-.744-.788-1.735-1.11-.264.792-.64 1.47-.473 2.7 1.37-.473 2.417-1.272 3.47-2.066zm-2.366-1.588c-.406-.323-.89-.395-.945.317.468-.306.777.214.945-.316zm.63 1.11c-.13-.447.224-.41.16-.793-.38-.063-.344.292-.79.16.02.405.23.616.63.635zM55.795 4.728c-.34.503-.767.92-1.42 1.11-.818 2.99-2.266 5.342-2.994 8.42-.527.04-.793.868-.63 1.11-.77.55-1.346 1.293-1.578 2.383-.476.304-.772.837-1.104 1.27-1.095 1.435-2.348 2.538-3.152 4.13-1.764 1.77-3.548 3.52-5.36 5.24 2.407-.377 3.502-2.08 5.202-3.175 1.608-2.14 3.37-4.122 4.572-6.67 1.833-1.012 2.522-3.177 3.784-4.765.043-1.546.944-2.226 1.42-3.336-.068-.302-.34-.4-.317-.793 1.146-.223 2.398-1.18 2.207-2.223-.37.53-.86 1.773-1.576 1.43.77-1.36 2.87-2.837 2.523-4.29-.293.29-.36.803-.473 1.27-.898.367-.892 1.644-1.734 2.066.132-1.7 1.407-2.156 1.577-3.335-.296-.2-.29 1.024-.946.635-.062-.273.234-.407 0-.476zM41.446 66.19c-.764.396-1.078 1.245-1.576 1.907.917-.24 1.166-1.153 1.576-1.906zm.63-1.27c.046.485.6.456.79.795 1.464-1.277 1.35-4.143 3.153-5.082-.13-.45.22-.41.157-.794.532-.31 1.082-.605 1.26-1.272-2.385 1.25-3.44 3.84-5.518 5.4-.21-.252-.834.423-1.104.636-.33.182-.615-.097-.946.317.086.232-.184.822.157.795.36-.59 1.046-.852 2.05-.794zm1.735 1.59c-1.08.446-1.883 1.17-2.52 2.064-.187-.42-.138-.493-.632-.318.004.844.407 1.285.788 1.747-.012-1.31 2.217-2.368 2.365-3.493zm-1.89.475c-.2-.4-.9.304-.474.477-.048-.366.456-.176.473-.477zm2.838-.158c.088-1.128 1.46-.965 1.26-2.382.51-.23.7-.778.947-1.27-.592-.12-.344.606-.788.635-.386-.376.235-.296.157-.795-.48.308-.627.477-1.104.476.017.89-.788 2.202-.314 2.543-.3.134-.856.818-.63.952.025-.184.248-.172.472-.158zm4.887-7.464c-.402 1.025-2.205 2.012-2.996 3.176.992-.162 1.413-1.178 2.05-1.75 1.57-1.407 3.313-2.57 4.887-3.97-.705-.282.15-1.044.63-1.11-.296.712-.62 1.246-.946 1.588-.617.645-1.36 1.32-2.048 1.906-.534.452-1.526.683-1.42 1.43.74-.708 1.644-1.533 2.523-2.225.858-.675 1.844-1.55 2.838-1.59-2.316 1.373-4.137 3.245-6.306 4.765.043-.66-.674.136-.63.477 1.12.017 1.546-.665 2.05-1.27.157 0 .186.128.314.158.425-.632 1.036-1.075 1.893-1.27.778-.964 1.726-1.755 2.996-2.224-.735.773-1.828 1.413-2.524 2.065-.214.202-.802.45-.473.795 1.03-.552 2.01-2 3.153-1.906-.596.827-1.832 1.013-2.365 1.905.77.02 1.663-.085 2.21.16.69-2.376 2.796-3.325 4.413-4.766-.454-.072-.493-.563-1.103-.477-.567.223-.67.913-1.262 1.11-.143-.778.66-.604.63-1.27-.467-.454-.917.003-1.575-.317-.363.696-1.288 1.664-1.892 1.588.06-.944 1.24-.76 1.42-1.588-1.04.023-1.936.29-2.996.477.008 0-.387-.206-.63-.16-.544.107-1.705.755-2.05 1.112-.522.538-.633 1.53-1.104 2.224-.636.936-1.638 1.552-2.365 2.38-.258.295-.266.844-.473 1.114-.29.38-1.155.43-.79 1.11.898-1.002 1.864-1.934 2.998-2.7.25-1.44 1.956-2.262 2.68-2.7-.072.607-1.528.823-.79 1.27-.31.334-.787.384-.945.48zm0 2.54c-.555.642.507.375 0 0zm4.572-10.96c-.132.186-.208.427-.157.795.58.154.627-.78.157-.794zm1.262-1.11c-.306-.276-.8-.36-1.105-.635.007.218-.074.348-.158.476.578-.518.733.726 1.262.16zm.314 1.588c.027.238-.057.587.157.637.282-.317.82-1.144 0-1.272-.316.475-.797.785-1.102 1.272.68.155.46-.598.946-.636zm1.42 9.213c.47-.726.866-2.263.945-3.177-.913.882-1.91 1.678-2.366 3.018.634-.11.9.152 1.42.16zm-.79-56.7c.023.21-.53.59-.157.635-.023-.21.64-.48.157-.635zm2.05 56.7c.897-1.32 1.974-2.458 3.47-3.177-.356-.754-.88-1.337-1.736-1.588-.266.874-1.577 1.28-1.734 2.7.794-.886 1.378-1.74 2.68-1.747-1.036 1.34-2.606 2.14-3.31 3.813h.63zm.947.952c-.096-.046-.606-.394-.63 0 .293-.15.527.476.63 0zm1.104-2.7c-.614.6-1.227 1.2-1.734 1.906.298-.034.348.18.63.16.04-.914 1.254-1.485 1.104-2.065zm-.946 3.02c.002.01.147-.012.157 0 .856.753-.29-.764-.157 0zm4.415-2.86c-.95-1.337-1.11-.692-2.05.16-.926.836-2.167 1.228-1.892 2.063 1.172-.885 2.46-1.653 3.943-2.224zm-1.42-1.27c-.557-.05-1.77 1.365-1.734 1.905.397-.816 1.49-.933 1.734-1.906zm2.68 2.38c-.5-1.754-2.48-.445-3.153.32.867-.137 1.83-1.012 2.68-.636-.918.532-2.986.917-3.94 1.904 1.687.307 2.495-1.603 4.414-1.588zm1.104.795c-.576-1.34-2.907.08-3.783.794 1.07-.456 2.575-.476 3.783-.794zm1.735 1.59c-.944-.6-3.083-.548-3.626 0 1.08.137 2.8 1.03 3.626 0zm-.946-56.066c-.237-.044-.664-.683-.79-.318.238.045.665.684.79.318zm2.995 57.81c.393.025.767.03.79-.316-.48.007-.613-.335-.946-.477-.13.45.222.413.157.795zm3.943.32c-.36-.115-.805-.142-1.104-.32v.478c.326-.095 1.035.196 1.103-.158zm3.627-17.79c-.087.5-.775 1.894-.474 1.75.193-.45.865-1.24.474-1.75z"/><path d="M43.81 34.903c1.663-1.82 3.542-3.42 5.204-5.24 2.062-.52 3.57-1.59 4.73-3.02.668.32.555 1.23.947 1.907.298.516.813 1.747.79 2.86-.017.67-.484 1.444-.474 2.223.026 2.292-1.426 4.496-2.523 6.194.096.592.334 1.04.63 1.43.576-.405.94-.035 1.42-.477.5.362-.46.583-.79.636 2.055.14 4.755.332 6.15-1.113-1.77-2-2.367-4.222-2.522-6.987-.184-3.293.527-6.072.79-9.53 1.168-1.68 2.62-3.076 4.256-4.288.044-.91.63-1.27.946-1.906.195-.515-.51-.122-.316-.635.718-1.125 1.772-2.043 3.31-1.907.29-.398.717-.655 1.105-.953-.063-.382.29-.345.16-.794.917-.345 1.046-1.486 1.733-2.065.26.247-.054.62-.157.954H70.3c1.053 1.215 2.24 2.295 3.152 3.652.343-.406-.637-.834-.314-1.747.51.228.804.672.945 1.27.268.06.297-.123.316-.317.38.358.2 1.28.787 1.43.262-.212.245-.707.473-.953.422.06.74.844 0 .794.328 2.512 1.71 4.312 1.103 6.513.622.207.382-.583.788-.16-.018.405-.228.617-.63.636.112 2.246-.766 2.513-1.26 4.13-.127.083-.256.165-.473.158-.468 1.857-2.174 2.468-2.838 4.13-.442-.494-.757.613-1.104.952-.34.33-.944.566-1.42.953-1.14.925-2.65 2.125-4.1 2.858-.12.6.838.11.63.796-2.58-.796-4.055 2.026-6.305 2.065.05.373.49.356.632.636-1.73 2.07-4.877 2.71-7.726 3.652.414-.678-.212-.43-.315-.952 1.077-.044 1.597-.196 2.523-.635-1.147-.257-2.713.493-2.838-1.588-.654.347-1.383.62-2.05.954.135.465.508-.096.79 0 .098.713.11 1.164.63 1.11-.295.71-.79 1.218-1.576 1.43.378-.676.263-1.14.63-1.588-.61.168-.478-.89-1.262-.477-.045-.255.148-.272.157-.474-1.855.257-3.806-.516-5.99 0 .16.208.154.585.314.793 1.22-.076 3.327-.343 4.887-.16-.363.534-1.31.48-1.735.953-.883-.99-2.92.166-3.784-.794-.15.27-.495.347-.788.476.348.95 1.01-.255 1.735.317-.654.59-1.292.317-2.208.477-.296-1.305.813-1.194 1.104-1.906-.306-.202-1.73.516-2.364 0-.545.245-.742.84-1.103 1.27-.65-.435 1.12-1.306.787-2.223-.928.548-.83 2.128-1.734 2.7.296-1.237.856-2.207 1.577-3.017-.854.676-1.626 1.434-1.735 2.86-.937-.673-1.076 1.76-2.05 2.064.36-.857.663-1.77 1.42-2.224 1.634-3.278 3.73-6.09 5.833-8.893.142-.124.357-.172.632-.16-.194.334-.436.62-.63.953zm1.263 3.494c-.65.236-1.28.804-1.892 1.27-.348.267-1.13.48-.945.954.02-.35.668-.067.946-.158.09-1.233 1.51-1.128 1.893-2.065zm-1.892.32c-.087.292-1.167.393-.63.793.137-.245.99-.574.63-.794zm.158-3.02c-.27-.008-.404.123-.472.32.27.006.404-.124.472-.32zm3.31 1.59c1.868-.386 3.31-2.347 5.047-3.177.26-.267.925-.127 1.42-.16.32-.978 1.27-1.7 1.26-2.7-.01-.924-1.252-1.577-.788-2.54-1.298.334-1.79 1.478-3.31 1.587-2.568 2.02-4.74 4.437-6.94 6.83.026.187-.026.45.16.476.256-.666 2.22-.125 3.152-.317zm-.314 1.11c-1.146.224-2.26 1.32-2.523 1.906.688-.79 1.853-1.1 2.524-1.906zm4.573-2.38c-1.79 1.162-3.176 2.73-4.73 4.128 1.332-.482 2.148-1.703 3.153-2.542 1.08-.9 2.3-1.56 3.31-2.54-1.05-.16-1.177.612-1.733.953zm-5.046 3.97c.566-1.127 2.558-1.66 2.68-2.7-.62.433-1.012 1.096-2.048 1.11-.14 1.025-1.364.956-1.734 1.748.512.092.733-.11 1.103-.16zm2.05.158c.94-.837 1.766-1.61 2.68-2.383.41-.344.884-.643 1.262-.952.76-.622 1.97-1.188 1.892-2.225-2.157 1.904-4.763 3.356-6.464 5.718.275.013.49-.036.63-.158zm1.893.158c1.04-1.548 3.335-2.674 3.627-4.447-1.655 1.51-3.43 2.9-5.046 4.447h1.42zm1.892-1.587c-.05.643-1.322.885-.946 1.43.336-.354 1.32-.887.945-1.43zm2.522 3.97c-.142.333-.89.056-.946.476.387.007 1.32-.244.947-.476zm2.366-.635c-.563.016-1.083.074-1.262.477.53-.05.995-.164 1.263-.476zm4.73-12.388c1.523-.698 4.554-3.886 5.044-6.353.08-.405-.04-.86 0-1.272.11-1.11.41-2.364.473-3.335.017-.24-.313-.568-.314-.953-.004-.805.58-.713.314-1.112-.25-.375-.76-.568-1.42-.475-.255.413-.474.884-.944 1.43-.405.34.132.886-.158 1.11-1.482 2.16-3.973 3.304-5.203 5.718.17 1.968-.545 4.805-.79 6.354.707-.685 1.83-.577 2.998-1.112zm-.16 2.7c2.538-2.05 5.047-4.162 6.308-6.988-.585-.06-.41.644-1.103.476-1.772 3.095-5.11 5.247-7.883 6.83v1.27c1.258-.23 1.796-.872 2.68-1.588zm-2.048 3.494c.435-.187 1.063-1.364.473-1.588-.326.254-.814.345-.946.794.37.052.153.693.473.794zm1.103.318c-.653.043-.614-.21-1.103 0 .09.28-.19.933.158.953.14-.496.743-.522.945-.953zm-.157-5.083c0 .264-.436.09-.472.32.322.135.868-.25.473-.32zm1.42 5.56c-.725.33-1.492.616-1.735 1.43.845-.14 2-.687 1.735-1.43zm4.415-5.082c-.473-.424-.767-1.027-1.104-1.588-1.682 1.11-3.06 2.528-4.572 3.81.27.668-.062.995.316 1.43-.177.035-.246.177-.316.32 2.046-1.17 3.79-2.642 5.677-3.972zm-4.415 4.288c-.41.022-1.028.645-.788.795.03-.5.85-.203.788-.794zm.473-.16c.818-.464 1.492-1.27 2.365-1.905.823-.6 2.112-.96 2.208-1.905-1.028.237-1.9.873-2.68 1.43-.8.57-1.62 1.272-2.21 2.065.18.033.247.176.317.317zm8.198-10.005c.11-.073.063-.4.16-.475.26-.203.692-.262.946-.476.807-.685 1.588-1.493 2.364-2.066.5-.37 1.727-.63 1.26-1.59-1.825 1.34-3.435 2.893-5.043 4.45-.002-.21-.277-.146-.316-.32.868-1.73 2.84-3.146 4.258-4.287.47-.378 1.443-.67.946-1.43-2.272 1.577-4.177 3.523-5.992 5.56-.333.333.186.62.316.952-.234.082-.397.235-.63.317-.272 2.19-.557 3.385-1.104 5.24.474-.008.93-.848 1.26-.476-2.133 1.823-4.755 3.153-6.464 5.4 1.435-.776 2.342-2.087 3.942-2.7.388-.71 1.36-1.085 2.05-1.586.7-.508 1.278-1.372 2.05-1.27-1.64 1.048-2.946 2.432-4.73 3.334-.67 1.233-2.853 1.784-2.996 3.018 3.197-2.233 6.595-4.262 9.46-6.83v-.794c.395-.558 1.784-.952 1.576-1.588-.266.388-.85 1.054-1.26.794.545-1.09 2.07-1.197 2.365-2.54-1.736.74-2.542 2.415-4.1 3.334 1.122-1.57 2.432-2.95 4.257-3.812.084-.705.267-.84.316-1.27-1.98 1.076-3.445 2.672-5.203 3.97-.233-.695.713-.932 1.103-1.27.48-.417.93-.896 1.42-1.27.98-.75 2.138-1.348 2.837-2.225-2.207 1.114-4.193 3.294-6.15 4.13 1.78-1.81 4.047-3.124 6.15-4.606.14-.58-.278-.847 0-1.112-2.4 1.077-4.19 3.614-6.307 4.446.005-.642.813-.646 1.26-.953zm-3.624 5.084c.35-.918.456-2.082.945-2.86-.882.367-1.957 2.04-.944 2.86zm4.73-11.594c.66-.53 1.377-1.32 2.206-1.27-.84.533-1.686 1.367-2.522 2.064-.862.718-2.082 1.223-2.208 2.224 1.426-1.635 3.096-3.024 5.203-3.97-.305-.594-.762-1.034-1.26-1.43-1.094.325-2.407 1.658-3.312 2.54-1.017.993-1.133 1.112-1.418 2.7-.197 1.095-1.042 2.096-.947 3.177 2.238-2.458 4.552-4.838 7.41-6.67-.912-.148-1.92.7-2.68 1.27-1.332 1-2.386 2.366-3.47 3.335-.288-.593.38-.688-.313-1.112 1.107-.99 2.203-1.968 3.31-2.858zm-3.154 5.24c.008.293-.808.54-.316.795-.032-.316.67-.678.316-.794zm3.94-8.576c-1.76-.016-2.882 1.958-4.256 2.86.217.5.034.53 0 1.11 1.388-1.355 2.922-2.56 4.257-3.97zm-3.467 1.748c.115-.434-.314-.32-.316-.635.98-.71 2.048-1.325 2.838-2.224-1.24-.187-1.58 1.37-2.523.953.092-.548 1.59-.51 1.103-1.112-.594.513-1.515.696-1.892 1.43 1.02.028-.262 1.498.79 1.588zm2.05-3.177c-.253-.646-.56-1.236-1.577-1.112-.34.615-1.185 1.555-1.103 2.065.542-.64 1.775-1.66 2.68-.953zm-1.893 2.86c.78-.212.247-.752 0 0zm5.992 1.746c-1.15.053-1.97 1.136-2.838 1.907-.92.816-1.876 1.6-2.68 2.382.024.186-.028.45.157.475 1.552-1.825 3.53-3.22 5.36-4.764zm-3.468-3.81c-.49.515-1.83 1.01-1.735 1.588.323-.684 1.866-.976 1.736-1.59zm1.103 1.11c-.36-.027-.92.537-.632.637.016-.41.615-.228.63-.636zm2.68 4.29c-1.2.274-1.728 1.225-2.68 1.746-.008.17.073.404.157.16.663-.814 1.92-1.03 2.523-1.907zm1.103 2.7c.85-.465.2-1.168.315-2.066-.976.252.168 1.467-.315 2.065zm0-2.383c.486-.952-.583-.778 0 0zm.158 2.7c-.192.24-.31 1.368 0 1.588-.163-.684.644-1.387 0-1.588z"/><path d="M83.07 24.58c-1.186-.112-2.228-.484-2.996.16.723.043 2.433-.043 3.31.316.16.48-.35.282-.63.318.203.75 1.837.056 1.892.953-1.528-.117-3.294-.79-4.572-.636 1.045.334 2.425 1.113 3.627 1.75-.048.214-.394.13-.63.158.25 1.02 1.058.687.946 1.587.038.41.27-.217.63 0-.92 1.507-3.272 1.575-4.73 2.542-.062.75.335 1.044-.157 1.43.432 1.297.105 2.448-.317 4.446-.163.777-.714 1-1.103 1.748-.212.407-.246 1.16-.63 1.588-.208.232-.696.533-.947 1.113-.108.25.006.945-.157 1.27-.333.663-1.002 2.95-1.104 3.813-.072.61-1.055 2.858-1.42 3.97-.266 3.434-.962 6.603-1.26 9.212-2.338.395-3.478-3.15-5.676-2.382-.18-.5.248-.386.315-.635-.99-.8-1.854-1.732-3.467-1.906-1.895-1.746-2.888-4.398-4.258-6.67-.137-.24-.235.042-.63-.16-.207-.493.043-.453 0-1.11-.204-.042-1.4.275-1.103 1.27-.6-.065-.6-.732-1.262-.32.16-.356.733-1.29 1.262-1.428.07-.018.378.278.314.318 1.125-.696 1.565-2.076 2.523-3.018 1.3-1.278 2.832-1.893 4.256-2.858 2.052-1.374 3.764-3.092 5.203-5.083.567.095.463-.485.946-.477 1.706-2.463 2.912-5.43 5.36-7.146.155-.798.733-1.168.63-2.225.928-.324 2.08-2.245 3.31-2.54.704-.17 2.17-.262 2.524.635zm-7.883 6.83c-.554.736-.734 1.82-1.262 2.54-.16.218-.667.33-.787.477-.4.48-.51.978-.63 1.43.593-.252 1.087-1.44 1.733-1.112-.4.53-1.068.685-1.576 1.11-2.642 2.22-4.734 5.117-7.568 7.148-.007-.218.075-.348.158-.476-2.01 1.466-5.138 2.484-4.415 6.194 1.576 1.748 1.927 4.73 4.098 5.878 1.217-.008 1.586.837 2.523 1.11.79-.342 1.93-1.045 2.997-.952.918.08 1.207.563 1.892.953.177-2.446-3.548-.832-4.415-1.43 1.615-.423 3.136-.712 4.572.158v-1.27c-.968-.107-1.997-.194-3.154 0-1.165.196-2.356 1.084-2.996.635 1.25-.646 3.035-.755 4.415-1.27-1.765-.216-2.47.697-3.626 0-.577.084-1.616.933-1.892.317.96-.25 2.657-.848 3.784-1.43-1.726-.043-3.335.876-4.572.795.983-.443 2.48-.91 3.153-1.27-.006.002.878.132.472-.318-.9.208-2.064.988-2.838.794 2.478-1.113 5.095-2.167 7.884-.793.55-2.155 1.296-3.588 1.733-5.56-1.11.227-1.78 1.672-2.68 1.59.71-1.367 3.314-1.73 2.997-3.177-.67.49-1.647 1.514-2.208 1.588.6-1.037 1.693-1.577 2.68-2.224-.136-.984.492-1.198.63-1.906-1.69.997-3.15 2.228-4.572 3.495.155.438.146 1.33-.315 1.588-.09-.278.19-.932-.157-.952-3 1.586-5.296 3.878-8.2 5.56 1.216-1.636 3.37-2.325 4.73-3.813.695-.682 2.52-.876 2.365-1.906-.8-.596-.803 1.08-1.418.634.108-.58.598-.774.79-1.27-.64.045-1.097.272-1.736.318-.536.01-.24-.816-.788-.795.03.614-.732.428-.63 1.112-1.956.835-3.473 2.96-4.888 3.81 3.286-3.783 7.335-6.798 11.51-9.687-1.36 1.19-2.84 2.437-4.1 3.494-.435.364-1.368.473-1.26 1.27 1.247.67 2.132-1.045 2.995-1.746 1.056-.86 2.232-1.494 2.995-2.382 1.19-.444 2.083-2.028 3.153-2.065-2.465 2.07-5.07 4-7.41 6.194.905.228 1.64-.617 2.207-1.11 1.414-1.234 2.707-2.584 4.415-3.336-1.195 1.39-3.64 2.37-4.257 3.812 1.165-1.05 2.438-1.99 3.942-2.7-1.678 1.433-3.604 2.617-5.203 4.13 2.37-.948 3.56-3.085 5.99-3.97.542-2.262 1.89-3.71 2.366-6.037-1.28.526-2.194 2.22-3.31 2.383.748-1.416 2.59-1.73 3.31-3.177-1.25.596-1.983 1.71-3.153 2.384.584-1.476 2.488-1.623 2.995-3.177-1.072-.106-2.005 2.093-2.995 2.065.555-1.368 2.364-1.58 2.68-3.017-1.106.316-1.784 1.905-2.68 1.905.603-1.14 2.478-1.843 2.68-2.86-.944.798-1.777 1.706-2.838 2.384-.15-.296.472-.53 0-.635-.196.266-.46.81-.788.476.993-1.277 2.398-2.14 3.468-3.336 1.118-.898 2.38-1.326 2.996-2.382-2.366 1.004-3.674 3.075-5.834 4.287.467-1.25 2.57-1.862 2.68-2.858-.707.967-2.058 1.346-2.837 2.383zm-3.784 24.3c-.87-1.06-3.462-.004-3.784.475 1.427-.106 1.908-.606 3.783-.476zm.946 1.11v-.793c-1.39.105-3.073-.043-4.1.636 1.19.504 3.24-.47 4.1.158zm-2.21.478c-.104-.31-1.025-.11-.472.158-.048-.496.456.404.473-.158zm2.05-5.24c-.04-.75-1.94-.603-2.206-.16.82-.155 1.33.024 2.207.16zm-.472 5.716c-.105-.608-1.085-.782-1.42-.16.642.236.763.008 1.42.16zm.315.953c.032-.875-.958-.732-1.26-.318.626-.104.633.42 1.26.317zm-.157-6.353c.07.442-.86-.125-.788.318.33.05 1.366.024.788-.318zm.946 0v-.476h-.315v.476h.315zm8.986-24.3c-2.237 1.027-3.897 2.64-5.517 4.288.123-.036.312-.004.316-.158 1.538-1.575 3.64-2.582 5.202-4.13zm-1.892-1.112c-1.1.218-2.107 1.368-2.206 2.065.597-.828 1.88-.965 2.206-2.065zm-.787 0c-.445-.163-1.098.247-.632.477-.068-.44.587-.15.63-.478zm2.52 1.748c-.95.736-1.997 1.375-2.837 2.223.962-.62 2.653-1.35 2.838-2.223zm-2.05-.636c-.297.03-1.043.41-.63.636.016-.41.616-.228.63-.636zm-.787-2.224c.954.13.106-.727 0 0zm1.26 1.906c1.244-.725-.827.484 0 0zm3.628 1.43c-.492.086-.78.38-.946.794.428-.152 1.088-.07.947-.795zm-.473-.16c0-.158.128-.188.158-.316-.16.018-.32-.686-.472-.16.268.066-.034.205 0 .477h.314z"/><path d="M78.182 41.416c-.485.252-.642.835-.946 1.27.258-1.595 1.823-3.246 2.68-4.765.413.376-.43.828-.473 1.27.57-.273.544-1.145 1.262-1.27-.377 1.05-1.236 1.615-1.576 2.7.657-.34.765-1.24 1.575-1.43-1.275 1.735-2.766 3.25-3.784 5.243-.238-1.038.933-2.023 1.262-3.017zm.473-.795c-.384-.152-.522.715-.315.637.083-.236.233-.4.315-.636zM15.432 48.244c-.214-.05-.13-.397-.157-.635 1.174-.056 1.54-1.07 2.522-.477-.515.75-1.454 1.193-2.365 1.11M21.266 85.727c.558-1.25 1.808-1.8 2.995-2.7 2.062-1.563 4.328-3.254 6.623-3.81-2.978 1.97-6.936 3.64-8.672 6.35-.48-.114-.462.275-.944.16M25.68 53.803c-.804-.276-1.504.917-2.207 1.27-.114-.484.16-.578.157-.952.746.326 1.17-.897 2.05-.952.403-1.976 3.11-1.633 3.942-3.176.61.765 1.236.13 1.734.158-1.612 2.612-4.237 4.203-6.622 6.035.26-.788.896-.952.788-1.747-.203-.04-1.184.496-1.103 1.27-.098-.22-.608-.023-.63-.316.47-.69 1.177-1.143 1.89-1.59zm1.892-.318c-.56.283-1.142.544-1.42 1.113.562-.283 1.143-.544 1.42-1.113zm0-1.587c-.967.188-.395.764 0 0zm.316.635c.045.28-.743.492-.316.635-.08-.315.87-.363.316-.635zM27.888 62.38c.433.876-.48 2.065.472 2.065.076.553-.395.555-.63.794-.224-.677-.925-2.288.158-2.86M50.276 74.927c1.677-.004 4.28-1.778 6.464-1.43.79.127 1.04 1.004 1.892.636.067.332-.108.42-.158.635 1.09-.49 1.552-1.613 2.68-2.065-.47 1.113-1.627 1.537-2.207 2.542 1.028-.024 1.198-.91 2.207-.954-.507.813-1.222 1.417-2.522 1.43-.442.157.23.424-.158.637-.876-.53-1.203-1.596-1.734-2.066-1.447.082-2.382.155-3.626.637-.677.262-1.224 1.01-1.576 1.11-.39.114-.252-.506-.158-.475-.597-.203-1.837 1.02-2.366.476-.316.428-1.352.962-1.892.636-.147.134-.53.818-.157.953-.6.368-.634-1.676-.63-2.065.01-1.074.383-1.933.63-2.86.525-1.96.954-3.958 2.207-5.24 1.022-1.045 2.132-1.772 2.523-3.335-.254-.453.07-1.453.788-1.43-.392 1.013-.55 2.602-1.26 3.653-.455.67-1.46 1.207-2.05 1.747-.652.596-1.023 2.36-1.577 3.494.794-.312 1.707-1.877 2.837-2.38-1.062 1.63-2.89 2.488-3.31 4.764 1.273-.782 2.053-2.06 2.996-3.177.643.816.644-.746 1.418-.16-1.373 1.002-2.47 2.278-3.47 3.654.444.064.672-.72.632.16 1.33-.777 2.39-1.827 3.31-3.017.27-.007.408.118.473.318-.637.788-1.627 1.22-2.207 2.066.046.33.426-.237.473.317 1.23-.505 1.883-1.596 3.152-2.065-1.01 1.153-2.326 2-3.626 2.86zm-3.31.794c-.204.21-.204.586 0 .796 1.178-.35 2.22-.835 2.837-1.748-.886-.788-1.49 1.878-2.838 1.112.088 0 .178-.13 0-.16zm.472-1.43c-.2.247-1.002.575-.316.796-.033-.317.67-.68.316-.795zM64.308 70.48c.39.412-.153.778 0 1.43-.3.067-.396.34-.79.317-.213-.753.05-1.53.79-1.747M68.092 41.574c2.146-.857 4.215-3.166 6.622-4.288-3.604 3.093-7.924 5.464-11.352 8.735-.357-.472.48-1.097.946-1.27.06-.537-.698-.25-.473-.953.688-.217.335.616.946.477.968-.615 1.372-1.796 2.524-2.223 1.345-1.576 3.36-2.9 5.045-4.13.396-.288.776-1.036 1.418-.793-1.917 1.456-3.803 2.945-5.676 4.447M61.943 75.245c.796-1.13 2.618-1.626 3.942-2.542 1.992-1.377 3.356-3.352 5.518-4.447-.69 1.158-2.144 1.547-2.838 2.7.82.054 1.387-1.437 2.523-1.588-.22.944-1.337.983-1.735 1.748 1.232-.296 1.622-1.438 3.154-1.43-.085.806.133.43.472.635-.25.807-1.022 1.09-1.734 1.43-4.092-1-6.083 2.587-9.303 3.495"/></g></svg>