<svg xmlns="http://www.w3.org/2000/svg" viewBox="0 0 89.372635 92.653954" width="89.373" height="92.654"><title>styracosaurus</title><g fill="#000" fill-rule="evenodd"><path d="M81.398 8.565h.386c-.337 1.098-1.413 1.662-2.057 2.465-.494.617-.668 1.455-1.415 1.817.794-1.665 2.192-2.72 3.086-4.282M69.955 12.717c-.02 1.105-.8 1.44-.77 2.596.038.176.32.107.513.13-.014.33-.43.257-.77.26-.238-.595-.024-1.483.384-1.818-.03-.14-.255-.088-.257-.26-.022-.368.435-.252.257-.778.364.108.334-.183.643-.13M76.512 13.755c.527.44-.942 1.723.257 1.947-.87.853-.736-1.007-.772-1.557.322.022.312-.29.514-.39M74.07 19.595c-.3-.693.445-1.45.642-2.076.238.63-.484 1.41-.643 2.075M74.97 17.778c.103.07.208.135.386.13.12.49-.864 1.028-.13 1.298-.067.104-.134.21-.128.39-1.146-.08-.265-1.212-.13-1.818M81.784 19.725c-.316.46-.954.595-1.415.908-.33.62-.8 1.095-1.543 1.298.928-.793 1.428-2.018 2.957-2.205M77.155 24.916c-.007.684-.54.837-1.028 1.037.034-.236.462-.727.128-.908.246-.265.558-.26.9-.13M74.584 26.603h.643c.235.58-.54.677 0 1.297-.897.33-.263 1.185-.13 1.817-.556 0-.59-.527-.9-.78.164-.918.318-1.208.387-2.334M83.07 28.808c-1.754.22-2.97.982-4.5 1.428.864-1.074 2.8-1.066 3.985-1.817.337-.037.553.047.514.388M80.498 29.976c.23.095.02.237 0 .39-1.076.255-1.678.99-2.57 1.427-.32.154-.156.795-.773.65.384-1.56 2.253-1.62 3.343-2.467M70.727 33.87h.257c-.024.11.05.122.13.13-.304.306-.04 1.483-.645 1.816.116.506.473-.43.514 0 .31.438-.666.478-.9.778-.315 1.032-.816 1.645-.643 2.596-.288.314-.54.666-.77 1.038-.63.017-.01-.72 0-.78.036-.224-.195-.285-.13-.518.294-1.036 1.21-2.297 1.8-2.984-.067-.105-.133-.21-.128-.39-1.62 1.153-2.828 3.35-2.957 5.58-.334-.24-.208-.68-.128-1.168.262-1.61 1.486-3.657 2.7-4.412.012-.853 1.036-.684.9-1.687M76.512 36.854c.142.922-.662.89-.77 1.558-.432-.43.395-.835 0-1.3.24-.102.47-.215.77-.258M77.412 38.022c-.675.616-1.237 1.347-2.056 1.817.402-.892.94-1.647 2.056-1.818M7.34 38.8c.15-.02.23.03.258.13-.112 1.868-.258 2.944-.643 4.672-.09.41.057 1.183-.514 1.427.547-2.11.695-3.822.9-6.23M75.098 39.84c.3.032.075.57 0 .647-.3-.033-.074-.57 0-.648M70.598 44.25c.494.532-.408 1.696-.257 2.726-.483.1-.614-.16-1.028-.13-.945.17.194 2.445-.77 2.595-.04-.885-.19-2.245.385-2.853.585-.02.504-.108 1.028 0 .32-.647.255-1.512.643-2.336M8.37 48.144c.09.636.588 1.433.385 1.946-.562-.41-.51-1.464-.386-1.946M7.084 49.44h.385c.073.706-.474 1.497.385 1.56-.112.412-.516.438-.9.258-.5.102.058 1.27-.643 1.168-.094-.853.725-1.848.772-2.985M30.87 50.09c.47.045.48.554.9.65-.252.602-.84-.13-1.286-.13-.113-.417.333-.27.385-.52M8.37 52.426c.158-.394.442.14.77 0-.03.81.734.278.772 1.168-.908-.454-.55.18-1.414.26-.128-.675.01-1.102-.13-1.428M66.355 53.205c-.393.094-.468-.133-.77-.13.37 1.38-1.34 1.404-1.673 2.465-.612-.11-.324-.638-.257-.778.108-.223.815-.31 1.03-.52.624-.613.316-1.04.77-1.686.483.03 1.04-.012.9.65M10.684 52.945h.385c.548.83 1.038 1.72 1.414 2.725-.888-.227-.855-1.387-1.285-2.076-.017-.374-.55-.225-.516-.65M58.512 55.15h.9c.09.35-.265.252-.385.39.51.315.79.06 1.157.52-.61.395-1.337-.205-1.8-.39.1-.115.14-.292.128-.52M28.555 55.54c.518.125.407.497.514.78.348-.08.32-.543.77-.52-.042.648-.492.886-1.028 1.04.076-.415-.24-.403 0-.65-.63-.12-.49.543-1.028.518-.34-.54.51-.82.77-1.168M31.384 55.67h.385c-.408.458-.076.603 0 1.17-.62.842-.992 1.94-2.572 1.815-1.05.67-1.814 1.63-2.57 2.595.075-1.308 1.72-2.154 2.44-3.244.55.27.817.238 1.416 0-.044-.74.874-1.272.9-2.336M55.298 56.06c-.64 1.126-2.226.005-2.83-.13.35-.682 1.145.273 1.673.26.5.07.63-.232 1.158-.13M10.427 56.58c.35-.096.26.257.514.26-.59.622-1.81.67-2.57.777-.038-1.435 1.804-.06 2.057-1.038M13.512 56.58c.284.015.056.55.13.778-.538-.14-.65-.118-1.03.13-.144-.41-.01-.295 0-.78.267-.076.845.16.9-.13M52.598 57.227c.632.12.154 1.372 1.03.91-.104.544-.553.74-1.03.908.278-.4.162-.957-.257-1.298.068-.192.19-.328.258-.52M64.427 57.747c.586.315-.587.68-.9.908-.386-.55.745-.49.9-.908M59.54 58.914c.22-.027.334.222.387 0 .252.434-.41 1.055-.772 1.298-.442-.573.382-.766.386-1.298M40.898 63.975c-1.008-.547-2.64-.99-3.47-.39-.163-.355-.81-.22-.773-.778.69.13 1.755-.58 2.186.13.84-.125 2.28.172 2.058 1.038M27.27 63.456c-.178.21-.455.32-.386.78.465.295.616.137 1.157.258.12.64-.156.88-.385 1.168-.545.032-.91-.12-1.286-.26-.18-.87.01-2.032.9-1.946zm-.13 1.817c.222.007.33-.1.387-.26-.222-.007-.33.1-.386.26zM32.67 65.533c-.05.425-.63.316-1.03.39v1.167c-.872-.146-.315-1.18 0-1.557.45.182.824-.364 1.03 0M43.084 68.647c.812.477 1.362 1.22 1.67 2.207-.753-.45-.784-1.63-1.927-1.688.067-.192.19-.327.257-.52M53.627 68.907h.514c.086.566.425.44.9.39.342.334-.017.623.387.777-.51.037-1.792-.265-1.8-1.167M24.44 69.945c-.113.707-.445 1.194-.513 1.946-.615-.126-.21-1.943.513-1.945M25.598 71.373c.094 1.35-1.483 2.018-2.57 2.075.716-.702 1.876-.96 2.184-2.075h.386M26.498 71.502c.567.04.045.912-.385.778.05-.337.383-.39.385-.778M46.17 72.02c.512-.083.368.495.385.91.584.607 1.016.615 2.186.518-.874 1.407-3.11-.188-2.57-1.427M45.4 79.937c.426.477.368 1.443.64 2.076-.794-.338-.445-1.22-.64-2.076M36.784 83.96c.13.958-1.744.7-1.93.13.69-.086 1.103-.02 1.93-.13"/><path d="M72.912 13.366c.77-.695 1.65-1.275 2.057-2.336.566-.265 1.106-.722 1.67-1.168 1.32-1.042 2.816-1.92 4.244-2.984-.07.05.088.17.128.13.2-.203.057-.127.386-.26.418-.17 1.686-.753 2.572-1.168.83-.39 2.343-1.184 3.6-.648-.312 1.458-1.722 1.808-2.058 3.244-3.18 2.974-6.02 6.295-7.457 11.03 2.345-1.195 5.497-2.295 8.743-2.596.706-.065 2.006-.297 2.186.65-1.124.404-2.5 1.612-3.73 2.335-.87 1.198-2.363 1.766-3.085 3.114-1.198.537-1.892 1.647-2.7 2.595-.778.91-1.75 1.737-2.315 2.855 2.552-.716 5.694-1.577 8.23-1.298 1.177.74 2.744.225 3.984 1.038.07.978-1.085.953-1.672 1.168-1.844.677-3.895 1.654-5.143 2.985-1.575.616-2.72 1.666-3.857 2.725 2.665-.584 4.065-1.24 7.2-.91.084.647-.357.766-.514 1.17-.414-.03-.544.228-1.03.13-2.974 1.538-5.504 3.525-7.713 5.84.1.488-.156.62-.128 1.037-.44.248-.77.605-1.414.648.414.378-.024.767 0 1.17.025.426.32.688.386 1.166.094.677-.255 1.482-.128 2.465-.585.836-1.63 1.142-2.187 1.817-.057.068.064.33 0 .39-.477.422-.13.997-.386 1.816-.254.812-.813 1.12-1.286 1.816-2.203-.255-2.363 1.45-2.83 3.245-.198.77-.29 1.4-.384 1.945-.024.136-.218.103-.257.26-.196.772-.312 1.132-1.158 1.427.05-.018-.07-.19-.13-.13-.017.02.02.257 0 .26-.64.09-1.17-.445-1.928-.26-.55.135-.605.585-1.285.78-.256-.132-.293-.483-.515-.65-.473.337-1.02.596-1.285 1.168-.245.523-.09 1.174-.257 1.687-.51 1.554-1.73 2.317-3.343 2.336-.682.22-.41 1.403-1.158 1.557.7 1.1.664 2.553.514 4.023.523.603.802 1.315.772 2.077-.022.515-.398.9-.515 1.427-.047.218.16.462.13.78-.025.24-.253.453-.258.647-.02.905.227 1.892.386 2.855 1.625 1.222 3.12 3.653 1.414 5.838-.278.357-1.325 1.168-1.8 1.428-.133.072-.373-.058-.514 0-.626.255-1.34.888-2.186 1.297-.573.278-1.825 1.186-2.185 1.298-.793.247-1.816.255-2.572.26-1.255.01-2.085-.65-3.214-.39-.96.226-1.454 1.063-2.7 1.3-.322.06-.578.36-.77.388-1.085.17-2.26-.03-3.343.13-.252.037-.165.235-.258.26-.302.082-.81-.04-1.158 0-.37.04-.722.07-1.028.13-1.11.218-1.863.592-3.086.648-1.343.063-3.587 1.09-4.63 1.038-.404-.02-.717-.256-1.027-.26-1.252-.008-1.84.48-2.827 0-.34-.038-.332.272-.386.52-.776-.558-1.855-.81-2.186-1.816-2.3-.552-3.615-1.57-5.656-2.466-.8-.496-1.817-1.228-2.7-1.947-1.073-.872-1.975-1.304-2.7-2.595-.246-.437-.57-1.105-.257-1.557 3.118 1.225 5.81 1.667 9.128 1.427.584-.042 1.28-.133 1.8-.26.66-.16 1.305-.43 2.186-.778.533-.21 1.07-.613 1.415-.65.964-.097 1.944.345 2.443-.648 1.34.08 3.11.508 4.114-.39.782.055 1.372-.085 1.8-.388.8.482 2.073-.052 2.957-.26.924.61 1.638.206 2.442 0 .752-.192 1.73.03 2.315-.65.298.09.344.433.642.52.824-2.327-1.906-1.88-2.958-2.984-.212-.695-.042-1.774-.77-1.946-.126-.473.625-.06.385-.65-.583-.24-.584 1.11-1.157 1.298-1.887-.04-3.847.655-6.043.52-2.01.705-3.82-.058-5.786.648-.464-.223-.69-.686-.77-1.298-1.078-.274-2.144.515-2.443-.13-.956.585-2.816.766-4.5.65-.418.105-.37.586-.9.26-.23.242-.46.487-.643.778-2.122.53-3.566 1.07-5.786.648-.95-.548-1.935-2.106-3.47-1.557-.76.27-1.745 1.257-2.445 1.947-.35.344-.84.648-1.028.908-.647.895-.57 2.01-1.028 2.595-1.05-.185-1.18-1.434-1.543-2.206-.195-.41-.432-.86-.643-1.297-.4-.833-.69-1.928-1.413-2.985-.052-.692-.177-1.22-.258-1.816-.032-.235-.25-.525-.258-.65-.097-1.897.396-4.337 1.03-6.1.364-1.016 1.117-1.822 1.156-2.855.486-.33.673-1.055.9-1.557.69-1.524 1.42-3.25 2.7-4.412-.714-1.705-.813-3.15-1.286-5.19-.076-.33-.336-.706-.385-1.04-.098-.646.048-1.3 0-1.945-.088-1.15-.432-2.085-.386-3.373.073-2.048.434-3.668.772-5.45.2-1.05.345-2.078.643-3.114.266-.924.735-1.748.9-2.725.935-.918 1.286-2.424 2.443-3.115.238-.156.455-1.002.9-.52.424.265.157.928.13 1.298-.195 2.505-.772 5.352-.26 7.657.18.797.708 1.467.9 2.466.227 1.158.26 2.33.516 3.504.528 2.422 1.13 4.84 2.828 6.23-.006.394.117.66.386.777-.15.425.17.997.257 1.557 1.376-.087 2.8-.898 4.243-.906.317-.003.595.17.9.13 2.514-.347 4.45-2.268 6.43-3.116 1.01-.873 3.135-2.315 1.927-4.152.394-.77 1.05-1.275 1.8-1.687.226-.546.152-.77.514-1.3.23.36.963.355 1.285.26.626-.607 1.567-1.348 2.957-1.297 1.462.054 2.674 1.314 3.472 1.947.547-.077.98.1 1.543 0 .35-.064.04-.124.514-.39.374-.21 2-1.017 2.444-1.557.543-.664.593-1.73 1.157-2.466.452-.588 1.44-1.057 1.672-1.946 1.91-.19 2.82-1.4 3.73-2.984.472-.823 1.1-1.778 1.285-2.465.234-.873-.003-1.4.385-2.465.12-.333.548-.587.386-1.038.955-.377 1.52-1.148 2.57-1.427 1.237-.73 2.033-1.665 2.96-2.855.363-.47.796-.92 1.027-1.298.158-.257.098-.62.257-.908.283-.506.882-1.15 1.286-1.818.27-.444.5-.99.77-1.428.256-.41.505-.98.773-1.297.735-.868 1.764-1.178 2.444-2.077 1.044.06 1.288-.688 2.185-.778.203-.487.534-.845.514-1.557C69.244 8.09 73.682 2.185 80.756 0c.4.114.29.745.513 1.038-.226-.052-.258.2-.643.52-1.057.875-2.058 2.252-3.086 3.633-.852 1.146-1.467 2.498-2.442 3.375-.63 1.7-1.753 2.902-2.186 4.8zm4.5-10.77c-1.342.203-1.913 1.182-3.085 1.557-.794 1.015-1.935 1.68-2.443 2.985-2.405 1.94-4 4.7-5.4 7.655.406.675.025 1.504.77 1.947 1.332-.335 2.393.317 2.315 1.557-.462-.107-.622.293-.9 0-.094-.397.22-.382.128-.778-1.566.106-2.96-.042-2.7-1.43-1.125.294-1.66.554-2.443 1.04-.52.323-1.245.632-1.67 1.037-.404.383-.768 1.222-1.287 1.947-.465.65-1.15 1.266-1.414 1.817-.103.214-.02.58-.13.78-.037.07-.33.035-.385.13-.12.21-.023.555-.13.778-.076.16-.398.463-.513.65-.378.604-.58.723-.9 1.167-.575.795-1.094 1.42-1.543 2.206-.573.226-.99.625-1.415.91-.543.363-1.066.502-1.543.777-1.065.615-1.606 1.67-1.8 3.115-.17 1.25-.867 2.673-1.543 3.763-.14.225-.147.626-.257.78-.642.89-1.65 1.534-2.443 2.075-.73-.087-.868.422-1.415.52-.22.858-.993 1.16-1.415 1.816.074.724-.15 1.148-.257 1.687-1.218.63-2.245 1.454-3.086 2.465.44.12.92.196 1.286.39.078.526.312.897.514 1.297.773.007 1.666-.082 2.186-.648.606.08 1.56 1.134 1.67-.13-.428 0-.437.422-.9.39.172-.736-.662-.456-.64-1.04.278.023.056-.46.127-.648 1-.982 1.82-2.144 2.443-3.504.868-.595 1.115-1.816 1.93-2.466.594.416.01.846-.13 1.297-.487 1.56-1.52 3.483-2.314 4.932.328.014.66.023.643.388-.82 1.163-.504 3.26 1.286 2.336.2.1.192.41.514.39 1-1.458 1.004-3.552 1.285-5.58.14-1.006.623-1.75.772-2.596 1.485-1.186 2.113-3 3.47-4.023-.31-.118.293-.383.13-.78 1.553-1.4 1.762-3.408 2.57-5.06.664-.455 1.095-1.145 1.415-1.946 1.72-.14 1.154-3.08 1.67-4.024.376-.34.74.116 1.287 0 .145-.33.646-.3.77-.65-.66-.697 1.575-2.332 2.058-1.037.426.116.558-.722.772-.39.152.323.186.764.257 1.168 1.57.845 1.7 2.526 2.315 4.152-.402 1.155-1.206 1.9-1.416 3.244.166.47.532-.07.643.39-.537.3.314.815.514 1.168.072.648-.002.635.13 1.168-1.23 1.83-1.224 4.907-2.83 6.358h-.513c-.484 2.468-2.206 4.653-3.73 6.49-1.15.698-2.212 1.485-3.342 2.205-.164-.007-.178-.167-.386-.13.04.327-.238.328-.386.39-.755.312-1.665.62-2.315.778-.176.043-.293-.145-.386-.13-.53.09-1.106.442-1.543.39-.01 0-.096-.25-.128-.26-.477-.137-1.348-.232-1.928-.518-.49.112-.62.586-1.286.52-.215-.52-.112-.772-.257-1.17-.92.376-2 .23-2.056-.908-.49-.062-.82.037-1.03.26-.327-.274-.357-.85-.9-.908-.99.167-1.392.93-2.827.648-.126-.502-.134-1.148-.386-1.427-.312-.347-.99-.11-1.67-.26-.212-.046-.1-.235-.386-.26-.155-.012-.348.26-.514.26-.593.002-1.256-.55-1.8-.26-1.13-.854-1.923-2.278-3.986-1.816-.378.352-.52.558-1.03.91-.39.27-.85.187-1.285.39-.573.265-1.592 1.03-1.8 1.297-.587.745.217 1.594-.258 2.595.533.374.46.727.257 1.427.415.23.814.476 1.157.778-.202.648.26 1.185-.386 1.298-.195-.408-.243-.966-.513-1.298-1.228-.08-1.66-.06-2.7.13-2.02 1.724-4.926 2.554-7.2 4.022-.138-.12-.04-.478-.387-.39-2.147.632-3.468.496-5.784.91-.117-.23-.312-.38-.387-.65.226-.117.235-.454.386-.648-.39-.127-.506-.53-.772-.78-.524-1.42-1.6-2.56-2.186-4.15-.114-.31-.032-.682-.13-1.04-.13-.49-.498-.99-.64-1.557-.09-.348-.042-.794-.13-1.167-.077-.324-.334-.612-.385-.91.004.026.146-.338.128-.518-.085-.878-.454-1.906-.513-2.725-.237-3.276-.102-5.622-.258-8.175-1.407 2.248-2.27 5.5-2.7 8.694-.107.79-.002 1.55-.13 2.076-.44 1.833-.82 3.62-.642 5.45.066.684.38 1.364.514 2.077.39 2.068.418 4.063 1.543 5.71-.672 1.39-2.397 2.282-2.7 4.412-.51.144-.374.67-.514 1.037-.158.418-.436.85-.642 1.297-.62 1.347-1.324 2.747-1.67 4.283.19.022.473-.046.513.13-.24 1.278.486 2.595 1.03 3.503h.77v.65c.79.376 1.875.68 2.958.388.21.526-.68.598-.257.91.08-.31.792.02.9-.26.27.23.85.604.515 1.037-.314-.114-.14-.724-.643-.648-.655.19-.75.162-1.285.39-.35-.34-.176-.4 0-.78-.975.106-2.13-.46-2.7-1.168-.024.192-.31.118-.515.13-.6-1.126-.802-2.65-1.414-3.764-.284.928-.515 1.913-.515 2.855.002 1.432.508 2.506.9 3.504.39.99.7 1.784 1.03 2.466.372.773.563 1.82 1.285 2.206-.005-.567.355-.766.386-1.297 1.64-1.496 2.98-3.866 5.657-3.895 1.077.62 1.41 1.676 2.572 1.947.85.198 1.77-.348 2.83-.52 1.095-.177 2.208.064 3.085-.39.263-.166.135-.726.513-.777 2.3.2 3.785-.42 5.658-.65.378-.91 1.356-.696 2.186-1.037.815-.335 1.506-1.1 2.314-1.428.184-.074.45.057.643 0 1.134-.33 1.518-1.516 2.444-1.946.674-.313 1.627-.168 2.314-.39.63-.203 1.034-.683 1.543-.908.457.1 1.2.01 1.93.13.58-.15.758-.706 1.542-.65-.28.27.016.42.13.65 1.432.567 2.326.876 3.213 1.947-.092-.21.607-.21.514 0 .05 2.552 3.057 3.106 4.885 4.282.93.032 1.84.04 2.186-.52.09.408.344.17.644.13.82-.427 1.45-1.046 2.057-1.686.953-.122 1.03-1.126 2.187-1.04.26-.653.9-.92 1.157-1.557.53-1.317-.12-2.834-1.286-3.633.13-.268-.448-.928-.514-1.428-.23-.078-.534.38-.643 0 .03-.448-.152-1.033-.385-1.557-.5-.016-1.184.157-1.028-.52-.322-.17-.403.514-.515.13-.07-.317-.162-.683 0-1.167-.847.176-1.27-.03-1.67-.52-.822-1 .17-2.036.127-2.983.808-.263 1.39-.59 1.67.518-.402.205-.348.265-.9.13-.317.37-.24 1.14-.385 1.687.374.552 1.19-.032 1.672.26.39-1.598 2.275-1.684 2.7-3.244-.118-.653-1.025-1.163-.386-1.817 1.31-.168 1.918.408 2.315 1.037.866 1.37 1.48 3.13.386 4.152.977-.28 2.248-.042 2.572.26.097.485-.144.63-.514.648-.257-.13-.202-.574-.643-.52H57.87c-.97.964-2.498.653-2.572 2.596.95.405.273 1.96 1.414 2.336-.07-1.282.586-1.832 1.03-2.596 2.41.183 3.06-1.41 3.213-3.503.662-.715 1.32-1.437 2.314-1.816 1.04.428 2.593-.212 3.728-.13 1.29-2.374.657-6.69 4.243-6.748.67-.81.71-1.452.772-2.855.668-.968 1.69-1.582 2.572-2.334.33-2.61-1.445-4.82-.9-7.267.096-.433.48-.825.643-1.3.3-.865.287-1.687.642-2.205-.507-.893-.287-2.736.77-2.855-.342-.302-.525-.767-.513-1.427-.293-.102-.847-.607-.515-.91 1.2.737 1.036 2.85 2.7 3.116.45-.498 1.116-.78 1.543-1.3 2.914-1.427 5.292-3.396 8.357-4.67-2.45-.78-7.665-.17-10.8 1.037-.328.49-.896.74-1.543.91.13-.43.356-.766.9-.78-.016-.51-.56-.396-.258-.908.158-.188.49-.198.643-.39.462-1.31 1.575-2.21 2.443-3.244 1.042-1.24 2.172-2.736 3.6-3.375.178-.078.02-.498.257-.518 1.398-1.183 2.735-2.43 4.243-3.503-3.76.167-7.155 1.755-10.03 3.243-.15.41-.208.913-.64 1.038-.518-.088-.735.125-1.16.13-.07.19.152.67-.127.65-.33-.347-.134.3-.642.13.207-.552.175-.843.257-1.298 1 .144 1.067-.654 1.8-.78.258-1.21 1.096-1.834 1.286-3.113 1.084-1.028 1.21-3.02 2.444-3.894C81.47 10.54 84.02 8.53 85.898 5.84c-2.467.856-4.863 1.79-6.686 3.244-1.155.92-2.47 1.777-3.343 2.725-1.016 1.103-1.684 2.53-2.958 3.373-.255.953-.937 1.476-1.028 2.595.22.513.906.556 1.028 1.17-.217.254-.742.2-.643.777.454.274 1.128.425 1.285 1.297-.804-.163-.538.755-.77 1.17.48-.14.365.32.77.258.038-.48-.073-1.112.514-1.038-.18.52.003 1.365-.643 1.687-.19 0-.408-.548-.386 0 .24.895.69 1.677 1.287 2.205.237.21.924.074.77.648-1.092-.41-1.833-1.177-2.185-2.335-.395.09-.247.09-.643 0-.01-.465-.2-.75-.258-1.168.815-.194.327-1.215.772-1.947-.284-.276-.803-.314-.9-.778-.18-.946.294-.463.385-1.038-.102-.49-1-.318-1.157-.39.318-.7-.692-1.315 0-1.817.488-.19.025.58.514.39.363-.454.502-1.137.9-1.557-.31-.053-.28.236-.643.13-.43-.536.345-2.952.643-3.634.346-.792 1.214-2.06 1.542-2.596.28-.46.476-1.243.642-1.428.15-.168.406-.1.515-.26.213-.314.2-.74.385-1.038.11-.178.374-.194.515-.39.13-.18.136-.49.257-.648.07-.09.315-.046.385-.13.293-.347.52-.92.77-1.297.68-1.023 1.25-1.747 1.672-2.466-.655.29-1.36.53-1.8 1.038zm-3.343 10.77c.264.114.577-.336.257-.39-.03.186-.212.22-.258.39zm0 .13c-.637.173-.2.612 0 0zm-1.415 1.687c-.02-.173.523-.392.13-.52.018.173-.434.484-.13.52zM66.74 16.87c-.017-.242-.084-.434-.256-.52-.036.297.03.488.257.52zm-5.656 8.565c-.113 1.503-.448 2.51-.9 3.892-.713.562-1.513.833-2.057 1.558-1.13 1.503-1.027 4.072-2.7 5.06v.52c-1.272 1.225-2 2.998-3.343 4.153-1.257 2.143-.854 5.253-1.8 7.785 1.125.033 1.7.62 2.7.78.788-.53 1.873-.91 2.7-1.04.1-.287.27-.505.257-.908.583-.506 1.183-1.27 1.544-1.816.823-1.247 2.184-2.635 2.957-3.764.533-.778 1.063-1.64.9-2.726.203-.012.447.018.387-.26-.623-.113-.08-.32.128-.908.337-.947-.746-3.42.772-3.633-.32-1.217-.624-1.41-.643-2.597.395-.874 1.215-1.093 1.543-1.816.595-1.314.218-3.735.128-5.06-.032-.487.133-.876.13-1.298-.03-.103-.11-.153-.258-.132-.487 1.067-.41 2.7-2.443 2.207zm3.085-1.817h.257v-.26h-.258v.26zm.128.908c.377-.01.477-.296.643-.52-.1-.028-.15-.108-.128-.26h-.385c-.185.39.105.443-.13.78zm.386.65c.177-.3.64-.306.77-.65-.513-.122-1.054.395-.77.65zm-.13.648c.505-.227 1.107-.354 1.287-.908-.662.066-.963.497-1.285.908zm0 1.297c.697-.377 1.455-.694 1.8-1.426-.746.328-1.37.78-1.8 1.427zm.13.78c.636-.526 1.447-.876 1.928-1.557-.716.36-2.025.81-1.928 1.557zm.385.39c.455-.492 1.212-.68 1.542-1.298-.307.04-1.59.9-1.543 1.297zm1.542-.91c-.446.85-2.08 1.187-2.057 2.077.742-.678 1.81-1.028 2.314-1.946-.03-.1-.108-.15-.258-.13zm-2.057 1.17h.257v-.26h-.257v.26zm1.543.258c.39.163.666-.43.386-.52-.038.266-.348.256-.386.52zm-7.2.39c.322.022.312-.29.514-.39-.322-.02-.402.2-.514.39zm6.814.13c-.862 1.12-2.462 1.493-2.828 3.114.638-.466 1.167-1.133 1.928-1.687.567-.412 1.25-.62 1.286-1.428h-.386zm-1.414.908c.117-.228.474-.214.514-.52-.292-.023-.75.44-.514.52zm-1.03 2.725c.606-.86 1.68-1.245 2.316-2.075-.804.055-2.204 1.32-2.315 2.076zm.13.78c.81-.74 1.743-1.356 2.57-2.077-.295.04-.142-.374-.384-.39-.642.825-2.227 1.386-2.186 2.467zm.13.13c.188.492-.556 1.14-.26.908.987-.823 2.103-1.513 3.087-2.336-.15-.022-.14-.205-.128-.39-1.174.33-1.565 1.45-2.7 1.817zm0 1.298c.93-.617 2.242-1.543 2.7-2.207-.938.7-2.02 1.25-2.7 2.208zm-.773 1.167c.94-.667 2.217-1.428 3.086-2.076.26-.194.876-.52.644-.91-1.334.903-2.6 1.875-3.73 2.985zm12.73.26c.68-.437.914-1.326 1.413-1.947-.157-.015-.304-.04-.257-.26-.42.008-.49.37-1.028.26-.03-.245.146-.287.13-.52-1.187.16-.417 2.197-.258 2.466zm-11.316-.78c-.517.427-1.36.73-1.415 1.428 1.382-.638 2.384-1.66 3.6-2.465-.38-.113.3-.195.13-.52-.975.293-1.735 1.08-2.316 1.558zm14.914-.13c-.4.084-.5-.163-.9 0-1.39.57-1.93.78-2.957 1.428.14 1.43-1.612 2.337-1.158 4.413.737.05 1.12-.253 1.67-.39-.157-.59.353-.51.258-1.038 2.53-1.685 4.534-3.902 7.33-5.32-1.654-.162-2.928.637-4.244.908zm-16.457 0c.415.108.903-.37.642-.517-.166.222-.613.16-.643.518zm.128 2.337c1.358-.49 2.045-1.656 3.343-2.206-.123-.24.385-.434 0-.52-1.055.97-2.5 1.543-3.343 2.726zm13.757-2.206c.326.098.604-.495.386-.52-.038.265-.348.255-.386.52zM4.77 45.938c.31-2.675.944-6.206 1.8-9.344.134-.007.1-.166-.13-.13-.813 2.68-1.88 5.895-1.67 9.474zm57.728-6.878c1.292-.254 1.693-1.405 3.086-1.557-.063-.41.232-.458.128-.91-.028-.1-.107-.15-.257-.128-.906.945-2.227 1.47-2.957 2.595zm-.514 1.168c1.05-.67 2.536-1.59 3.085-2.335-.988.82-2.394 1.218-3.086 2.335zm-1.157 2.465c.93-.66 1.986-1.196 2.57-2.206-.808.224-1.375 1.378-1.927 1.428.43-1.384 2.097-1.517 2.7-2.725.52.085.944-.595.77-.778-1.49 1.306-3.447 2.142-4.113 4.28zM47.84 41.526c-.345.587-.46 1.412-.77 2.076-.294.625-.924 1.18-.772 1.817.72-1.653 1.776-2.967 2.443-4.673-.027-.1-.106-.15-.256-.13.178.504-.44.563-.643.91zM60.7 42.824c-.19.845-.79 1.28-1.157 1.946.894-.407 1.11-.986 1.8-1.557.763-.63 1.518-.867 1.8-1.687-.997.156-1.613 1.804-2.442 1.298zm13.37-.65c.073.23.067.54.26.65-.063-.41.182-.508.256-.78-.243-.028-.284.147-.515.13zM9.53 44.64c-.07-.708.035-1.594-.387-1.947.04.986.042 1.237.387 1.947zm52.07-.778c-.015-.133.555-.263.13-.39.067.187-.502.317-.13.39zm-16.2 1.297c.54-.238 1.123-1.113 1.03-1.558-.24.623-.682 1.043-1.03 1.557zm13.37.778c-.03.706-1.097 1.05-.9 1.557.943-1.127 2.253-1.88 3.216-2.985-.91.336-1.26 1.237-2.315 1.428zm-13.756 0h.257v-.26h-.258v.26zm11.957 1.687c.62-.543 1.14-1.186 1.542-1.947-.628.534-1.17 1.155-1.543 1.947zm-3.73 14.793c.987.043.854 1.215 1.544 1.557.06-1.756 1.7-1.916 2.57-2.854.23-1.186-.168-2.933-1.285-3.503.925 2.543-2.255 2.932-2.83 4.8zM40.128 71.89c-.42.212-.492-.028-1.03 0-.418-1.09-1.295-1.317-1.928-1.945-1.046-.048-1.824.674-2.7 1.038-.482.2-1.064.194-1.543.39-1.025.415-1.974 1.36-3.086 1.816-1.458.596-2.42.884-3.47 1.686.53.008.59.096 1.028.39-.112-.417.198-.406.386-.52.965.413 1.717-.283 2.314-.648.514.87 1.896.5 2.314-.39.314.13.275.043.772.13.178-.08.02-.5.257-.52.02.54.086.027.26 0 .446.844 1.79.438 2.312 0 1.36.475 1.993-.47 2.958-.778.365.665 2.09 1.552 2.314.13-.626-.017-.633-.66-1.157-.78zm-1.157-.907c.27.18.84-.207.9-.65-.546-.03-.48.555-.9.65zm.514.39c.72.12.78-.426 1.157-.65-.698-.1-.84.36-1.156.65zm1.028.13c.376.03.444-.245.643-.39.015.245.426.09.386.39-.15.193-.534.152-.513.518.304.182.863-.28 1.157-.518-.566-.34-1.39-1.098-1.672 0zm13.5 6.747c-.302.04-.482.205-.9.13.124.524.262 1.033.386 1.557.852.59 2.98-.484 3.214 1.168-.84.073-1.96.08-2.957-.52-.11.543.25.613.257 1.04-.7.1-1.08-.12-1.157-.65-1.112-.088-1.565-.843-2.443-1.168-.13.604-.236 1.232-.514 1.687-.552-.544.002-1.097 0-1.817-.456-.027-.254.61-.77.52-.333-.345-.62.017-.773-.39.206-1.095-.214-1.796.514-2.206.18.538-.367 1.004 0 1.3.29-.678.252.288.642.258.012-.578-.402-.804-.128-1.297-.774-.62-1.18-.806-1.543-1.816-1.898-.938-4.38-1.288-5.27-3.244-1.78.79-1.585 3.53-.13 4.542.838-.482 1.717-.183 2.83 0-.16.272-.775.083-.9.39.657 0 1.014-.174 1.542.13-.085.45-.826-.04-1.414.128.44.81 2.08.41 2.186 1.558-.53-.31-.482-.4-.9 0-.186-.42-.63-.576-1.03-.78.025 1.293.563 2.373.515 3.634-.335-.267-.46-.745-.515-1.297-.914.737-2.106 2.618-3.343 1.816.172-.3.744-.2 1.03-.388.06-.623-.786-.33-.644-1.038.383-.487.58.71.9.26-.427-.454.386-.13.257-.52-.53-.465-1.72.17-2.443 0-.005.672.877-.307.772.52-.084.174-.275.24-.515.26-.3-.09-.444-.332-.643-.52-.683.132-.978.657-1.415 1.038-1.405-.214-1.92.11-2.956-.26-.065.542-.84.366-1.158.65-.66-.765-1.727.255-2.443-.26-.202.012-.1.33-.386.26-.202-.013-.446.017-.386-.26-.653.834-1.47-.038-2.057-.39-.27.55-1.11.526-1.286 1.168.698.04.856-.178 1.415 0 .036-.227-.362-.647 0-.778.394 1.314 2.226.68 2.957 1.817-1.84-.072-4.048-.49-6.685-.39-.04-.302.02-.5.128-.65-.995.217-1.687.81-2.314 1.04-.19.07-1.314.068-1.67.128-.63.107-1.15-.15-1.8-.13-.393.012-.76.28-1.03.26-.302-.02-.585-.24-.9-.26-.2-.012-.452.136-.642.13-1.304-.036-2.515-.85-3.857-.52 2.793 2.295 5.782 4.76 9.772 5.452.414.424 1.005 1.254 1.8 1.557 1.217.463 4.14.29 5.786.13 1.29-.125 1.9-.322 2.57-.65 2.236.24 3.922-1.193 6.044-.908-.62-.98-2.122.412-2.828-.39.08-.18.495-.02.514-.26-.383-.045-.783-.074-.9-.39.192-.193.23-.545.514-.648.517-.124 1.025.427 1.286.13-.418-.443-1.317-.4-1.8-.78 1.235-.306 2.062.87 3.214 1.17 1.57.407 2.634.4 4.243.518.523-.337 1.06-.66 1.544-1.038.604.218.965-.307 1.412-.388.91-.168 1.76.185 2.186.26.46.08 1.023.135 1.414.128.453-.007 1.396-.06 1.672-.13 1.4-.353 2.106-1.705 3.6-1.946.076-.27.247-.442.514-.52 1.797-.477 3.268-1.285 3.086-3.762-.413.114-.176-.428-.515-.39-.33.18-1.302.677-1.543.13.348-.167.714-.317 1.285-.26-.064-.583-.727-.563-.643-1.297-.665-.513-1.54-.35-1.8-1.038 0-.215.356-.074.385-.26-.36-.552-1.17-1.862-.77-2.337.554.954.68 2.34 1.542 2.985-.173-1.513-1.516-2.308-1.158-3.633.344.128.16.79.642.78-.108-1.48 1.08-3.112.386-4.414-1.308.973-2.725 2.528-2.957 4.154.263-.254.27-.766.772-.778.094.353-.255.26-.257.518.377.15.478-.622.643-.26-.52.873-1.453 1.528-1.286 2.726zm-15.814-5.06c-.194.49-.48.774-.514 1.686.417-.075.598.088.9.13.344-.654.478-1.267.514-1.946-.446-.105-.494.193-.9.13zm-1.93.648c-.14.505-.616.674-1.027.908-.203-.74-1.552.05-1.54-.648-.447.094-.687.398-1.16.13-.34.39-.617.846-1.413.778-.03.245.144.286.128.52.76-.5 1.38.3 2.057-.39.036.266.344.258.515.39 1.03-.82 2.172-.106 3.342-.52-.12-.5.543-.907.385-1.298-.255.31-.895.307-1.286.13zm17.36.65c.19-.248 1.038-.5.77-.78-.266.17-1.002.537-.77.78zm-25.973.907c.16.42-.416.1-.257.52.622-.04 1.227-.557 2.186-.13-.1-.45.12-.57.385-.65.163.268.205.658.642.65-.186-.492.353-.25.257-.65-1.046-.85-1.654.523-3.215.26zm25.843-.26c-.07-.186.5-.316.13-.39.014.134-.556.264-.13.39zm-4.37 1.298c.563.555 1.35.887 1.156 2.206.672.316 1.332.644 2.057.908-.85-1.592.98-2.832 0-4.282-.776.685-1.99.93-3.213 1.167zm4.627-.52c-.14-.33.554-.453.13-.647 0 .193-.48.53-.13.648zM44.37 77.99c-.457.01-.7-1.068-1.03-.39.508-.115.7.756 1.03.39zm10.542 2.726c.653.354.48-.453 0 0zm-18.77.908c.072.795.786.17 1.027 0 .445.724 1.422.444 1.8-.13-.95-.27-1.655.016-2.83.13zm7.07.13c.328-.016.5-.19.515-.52-.403-.06-.574.113-.515.52zm-8.614 0c-.113.914 1.088.412 1.03-.13-.486-.1-.616.158-1.03.13zm-1.8.52c.567.008.886-.232 1.286-.39-.578-.02-1.01.105-1.286.39zm-2.57.128c.173.04.244.185.513.13.098-.442-.49-.505-.513-.13zm-3.73 1.038c.187.2.658.115 1.03.13-.007-.178.06-.284.127-.39-.464.263-.622-.012-1.028-.13.005.18-.06.286-.13.39zM37.04 88.5c.52.22 1.484.59 1.93.13-.79.18-1.69-.59-1.93-.13z"/><path d="M71.627 9.733c1.017-.81 1.803-2.924 2.7-4.283-.773.215-.95 1.033-1.286 1.688-.074-1.33 1.303-2.144 2.444-2.985.64-.473 1.322-1.073 1.928-1.168-.734.902-1.874 1.395-2.828 2.076-.94 2.815-2.87 4.63-3.6 7.657-.365-.976.917-2.1.643-2.984M38.198 48.533c.14.38.288.748.257 1.298.64.784 1.106 1.74 1.286 2.985-.418 1.088-.725 1.662-1.156 2.855-1.358.776-3.554.603-5.143 0-.657-1.42-.767-2.838-.256-4.282 1.12-1.162 1.573-2.997 3.47-3.374.645.516.815.394 1.544.52zm-.386 1.687c-.6-.04-.428-.474-.514-.78-.335.038-.643.045-.514-.388-.68.395-.833 1.322-1.93 1.298.123 1.184-1.848 2.467-.9 4.412.526-.01.836.447 1.415.52.692.085 1.536-.263 2.314-.26.68-.527.796-1.62 1.157-2.466.056-.176-.507-.586-.256-.91-.416.167-.99-.585-.772-1.426zM10.04 73.448c.602.13.748.717 1.16 1.04.415.074.596-.09.898-.13.093.353-.255.26-.257.518 1.52-.023 2.83-.258 3.215-1.428h.386c.637-.685 1.843-1.84 2.7-2.725-1.047.198-2.024 1.59-3.213 2.077-.178.08-.02.5-.258.52-.385-.046-.513-.35-.643-.65.65-.468 1.255-.982 1.8-1.557-1.042.175-1.754 1.323-2.7 1.167.428-.39.977-.656 1.542-.907-1.056-.076-2.472.088-3.343-.52.03-.635-.347-.86-.386-1.427-2.187-.463-2.146-2.624-1.927-4.413-.547.358-.52 1.292-.772 1.947-.352-.337.054-1.078.258-1.687.192-.574.412-1.27.643-1.687-.438-.05-.785 1.108-1.028 1.687-.306-.66.495-1.314.643-1.946-.577.025-.947 1.377-1.414 1.946-.463-.177.148-.707.258-.908.527-.96 1.405-2.13 2.057-2.985-1.027.822-2.668 2.01-3.214 3.374-.08.2.263.676-.257.65-.06-.496.037-.83.258-1.04-.102-.26-1.133.855-.513.91-.394-.01-.518.35-1.03.518.48-1.143 1.713-2.435 2.7-3.503.733-.794 1.99-1.382 2.83-2.207.668.222 1.437-.29 1.928-.65 2.085-.052 2.928.344 4.63.65.668.697 1.393 1.12 2.055 1.946 1.98 2.47 1.965 6.44.13 9.343-.47.744-1.833 2.51-2.7 2.465-.186.158-.173.518-.515.52-.33.005-.156-.098-.13-.26-1.374.533-2.496 1.527-3.984 1.168-.67-.163-1.23-1.4-1.8-1.168-.097-.103-.092-.454 0-.65zm2.7-13.106c-.855.57-1.33 1.17-2.185 1.947-.79 1.92-.88 2.972-.77 5.45.274.283.623.493 1.284.388.546.487.79 1.28 1.028 2.076 2.622.083 5.494.388 7.33-1.817.98-2.504-.102-5.833-2.444-6.488-.307-1.212-3.012-1.195-4.243-1.558zm-2.185.908c.038-.264.348-.254.386-.52-.282-.053-.708.39-.385.52zm8.485 8.954c.638-.172.2-.612 0 0zm0 .13c-.903.307-.49.724 0 0zm-4.5 2.336c1.024-.308 1.578-1.09 2.315-1.687-1.026.305-1.595 1.072-2.314 1.687zm2.572-.26c.44-.652 1.392-1.084 1.03-1.297-.743.808-1.48 1.622-2.316 2.335.807.236.946-.532 1.286-1.038zm.386.39c.26-.433 1.06-1.002.9-1.427-.23.464-1.11.952-.9 1.427zM53.755 83.44c.684.32-.15 1.087.13 1.428-1.4.23-2.48.786-3.344 1.557-.208.352-.24.88-.642 1.038-.198-.872.816-1.58 1.543-1.946-.314-.393-.836.098-1.285 0-.19-.406-.005-.53.257-.78-.98.094-1.43-.037-2.57.13.04-.996 1.968-.09 2.185-.907 1.353.086 2.725.053 3.728-.52M25.47 85.776c.04.3-.02.5-.13.65.57.117 1.406-.035 1.672.388.06.277-.184.248-.385.26.488.48.36.776.9 1.168-.336.696-.12.894.128 1.558-.417.074-.598-.09-.9-.13-.016-.233.158-.275.13-.52-.612-.378-1.455.01-2.058-.65.164-.463.42-.34.9-.258-.26-.386-.794-.496-.772-1.168.504-.075.746.112 1.03.26-.566-1.142-3.538.027-4.244-1.298h.772c-.17-.347-.81-.22-1.028-.52.31-.453 1.194-.29 1.8-.26.815.044 1.787.202 2.185.52zm-.386.13c-.657-.075-1.628-.515-2.315-.13.386-.043 2.04.512 2.314.13zm1.285 1.947c-.2-.03-.6-.5-.772-.13.2.03.6.5.77.13z"/></g></svg>