<svg xmlns="http://www.w3.org/2000/svg" viewBox="0 0 89.648246 65.820724" width="89.648" height="65.821"><title>tyranosaurus</title><g fill="#000" fill-rule="evenodd"><path d="M49.4 9.397c.174.334-.394.557 0 .67-.137.31-.617.28-1.073.27-.103-.774.507-.835 1.073-.94M77.708 11.41c.218.627-.67.545-.94.672-2.356 1.11-5.077 2.317-7.512 3.624.44-.95 1.545-1.067 2.415-1.476 1.935-.91 4.01-2.042 6.038-2.82M61.877 27.116c-.495.26-.986.598-1.475.94-.32.224-.602.89-1.074.537-.067-.65.653-.51.94-.805 1.136-.876 2.465-1.56 3.085-2.954.323.055.292-.245.67-.134.13-.585.466-.966.672-1.476h.536c.24-.736.958-.96.94-1.61.395-.014.77-.246 1.208-.538.656-1.317.09-2.522.94-3.356.062.372-.467.908.267.805-.414 1.42-.85 2.82-1.61 3.893-.333.015-.415.252-.67 0-.268.493-.633.89-.94 1.343-.596-.26-.93.48-.94 1.21-.594-.016-.465.696-.938.804-.477 2.073-1.932 3.167-3.085 4.564-.19.01-.38.022-.403-.135-.974.996-1.405 2.535-2.416 3.49.987-2.636 2.79-4.457 4.293-6.577zm-.805 1.477c-.176.24-.515.635-.402.94.794-.95 1.697-1.793 2.28-2.953-.666.47-1.35 1.29-1.878 2.013zM54.364 18.66c.165.058.275.17.27.402-.71.678-1.042 1.734-1.344 2.82.035.278.59.036.672.268.06.42-.287.428-.672.402.24.43.543.8.94 1.074.118.432-.443.184-.403.537-.367-.572-.69-1.188-1.207-1.61.507-1.373.913-2.845 1.744-3.893M82.94 19.868c.666.584-1.202.695-1.34 1.342-.255-.015-.094-.444-.404-.403.268-.628 1.336-.454 1.744-.94M16.262 22.955c-1.07 2.732-3.884 3.72-6.17 5.235-.024.29.475.06.67.135-.024.826-1.54.16-1.476 1.074-1.585.024-1.88 1.34-2.818 2.012-1.977-.198-1.92-1.412-1.878-2.55.46-.088.405-.658.67-.94.085-.09.322-.04.404-.134.427-.5 1.438-1.413 2.146-2.014.242-.206.588-.17.94-.403.518-.343.73-.583 1.475-.938.443-.212.81-.688 1.073-.806 1.41-.632 3.27-.318 4.56-1.074.195.075.33.21.404.403zM6.335 27.92c-.128.59-.54.894-.94 1.21.332.13-.185.515 0 .94.222.314.783.29 1.342.268V29.8c.553.28.326-.33.536-.536.504-.494 1.756-1.014 1.745-1.343.606-.107.85-.58 1.207-.938.503-.302 1.172-.437 1.475-.94 1.225-.43 2.23-1.08 2.953-2.013-4.065.005-5.742 2.398-8.318 3.89zM73.95 22.552c.556-.04.25.938-.266.672-.02-.334.21-.416.267-.672M22.836 23.224c.274.234.263-.1.536.134-.158.826-.91 1.058-1.744 1.208.164-.984 1.12-.35 1.208-1.342M18.14 28.996c-.082.038-.516.334-.536 0 .375-.987 1.732-1.053 2.28-1.88.453-.68 1.064-1.326 1.61-2.013 1.422-.14 2.57-.545 3.488-1.477.62-.05 1.425.084 1.61-.402 1.618.595-.086 2.3.27 3.758.223.92 1.066 1.024 1.474 1.88.212 1.464-.59 1.913-1.073 2.684.32.877-.23 2.316-.804 3.087-1.325.394-2.202-.364-3.355-.536-.566-1.582-2.44-1.854-3.488-2.953-.268 0-.172.365-.537.268-.002-.61-.552-.92-1.342-1.074.163-.7.115-.94.402-1.342zm3.623-2.953c-.93 3.297 2.135 5.374 4.696 6.442-.667-1.59 1.09-1.902.937-3.22-.07-.604-1.115-1.2-1.34-1.88-.38-1.13.01-1.63.402-2.82-2.077-.018-2.696 1.422-4.697 1.478zm-2.28 2.82c.733-.03 1.283-.95 1.206-1.344-.323.527-.886.813-1.208 1.342zm1.072 0c.373.214.37-.58.134-.538.03.253-.152.296-.135.537zm-1.61.938c.555.275 1.18-.028 1.342-.536-.336-.447-1.08.12-1.342.537zm.94.538c.358-.357 1.32-.11 1.34-.805-.41.22-1.39.57-1.34.805zm.67.27c.48-.104.922.414 1.073-.136-.104-.03-.156-.112-.134-.27-.293.156-.867.028-.94.405zm1.744.536c-.267-.002-.17-.367-.537-.27-.1.3.494.554.536.27zm1.072.804c.13-.327-.602-.444-.536-.267.21.058.114.423.536.268zm-.134.672c.343-.06.617-.188.805-.402-.4.002-.817-.013-.805.402zm.403.537c.54-.043.92-.243 1.075-.672-.502.08-1.002.162-1.074.672zm1.208.537c.72.028.712-.453 1.208 0 .36-.835-.943-.512-1.208 0zM78.11 24.03c.164.318.585.824.27 1.207-.554.016-.35-.724-.806-.805-.215-.528.58-.047.537-.403M72.34 24.834v.27c-.03.55-.446.197-.67.267-1.574.503-3.004 1.735-4.292 2.015.534-.693 1.463-1.087 2.28-1.477.852-.405 1.768-.783 2.683-1.074M43.9 29.935c.046-.162.356-.11.402 0 .122.29-.49.31-.403 0M49.266 33.828c-.113-.786.96-1.544 1.61-2.013-.397.81-1.108 1.307-1.61 2.013M40.948 33.29c.176.05.21.238.402.27-.382.475-.982 1.048-1.61.537.12-.238.324-.392.403-.67.298.056.727.307.805-.136"/><path d="M50.205 33.29c-.423 1.205-1.194 1.228-2.28 1.746.24-1.1 1.57-1.112 2.28-1.745M13.98 33.426c.218-.038.233.126.404.133-.48.46-.403 1.476-1.208 1.61.15-.7.69-1.01.805-1.744M79.184 34.365c.217-.038.23.127.402.135.335 1.947-.762 3.264-1.073 5.234-.608.242-.58 1.12-1.34 1.208-.154-.682.615-.917.938-1.476.5-.866 1.07-2.488 1.208-3.49.077-.557-.002-1.16-.134-1.61M27.8 34.767c.228.53.466 1.153 1.207 1.478-.207.37-.805.012-.938-.135-.265.23-.044.942-.404 1.074-.348-.23-.206-2.01.134-2.417M22.165 34.902c.363.435-.305.622-.537 1.074-.157.306-.112.768-.267 1.073-.017.032-.255-.034-.268 0-.095.238.093.827-.403.67.31-1.12.885-1.977 1.475-2.818M45.643 35.708c-.293.6-2.35 1.532-2.683.402.987.335 1.795-.24 2.683-.402M40.813 36.245c.09.608-1.645.324-1.744-.135.695-.102 1.14-.203 1.743.135M29.276 36.378c.376.296.895 1.012.805 1.343-.493-.087-.667-.494-.938-.805-.017-.24.164-.283.134-.537M23.238 36.513h.403c-.128 1.093.444 2.336-.268 3.088-.4-.274-.29-1.052-.134-1.61-.44.053-.326.657-.402 1.074-.634-.047.298-.827-.537-.672.104-.12.143-.303.134-.537.47.23.632-.843.804-1.342M31.423 37.05c1.078-.173 1.76.83 2.682 1.208.508.208 1.354.202 2.013.402 1.003.306 2.145.493 3.488.135-.55.747-2.14.455-3.085.806-.607-.78-2.19-.583-2.95-1.208-.126.1-.205.244-.27.403-.28-.122-.408-.396-.402-.806-.373-.433-1.5-.11-1.475-.94M81.867 43.09c-.42 1.014-1.458 2.12-2.146 2.417.057-.615.633-.71.94-1.074.274-.577.522-1.178 1.207-1.343M82.27 45.24c.216-.04.23.125.402.132-.045.67-.514.917-1.073 1.074-.22-.845.873-.378.67-1.207M76.232 46.983c-.434.67-1.777.574-2.683.403v-.403c.82.08 1.517.22 2.682 0M75.294 48.594c1.356.078.917 1.982-.135 2.148.038-.797.628-.69.535-1.342-.02-.248-.453-.083-.536-.27.103-.118.144-.302.134-.536M45.51 50.205c.216-.038.23.127.402.134-.197 1.404.777 1.638.805 2.818-.51.34-1.206.494-1.878.67 1.593 2.08 5.15 2.892 5.23 6.042-.352.04-.104-.52-.536-.402-.128-3.008-4.127-3.296-5.232-5.773.5-.484 1.614-.353 2.012-.94-.223-.826-1.333-1.41-.805-2.55M57.718 51.413c.286-.743.887-1.17 1.88-1.208-.603.428-1.124.935-1.88 1.208M58.792 51.01c.17.34-.32.967-.94.94.296-.33.374-.878.94-.94M74.622 51.145c.157-.022.24.03.27.134-.28 1.11-1.448 2.04-2.416 2.013-.468-.114-.28-.883-.67-1.074-1.242.28-2.496.66-3.355 1.61-.35.387-.307 1.09-.938 1.208.28-1.652 2.46-3.262 4.562-3.088.424.112.413.66.67.94.99-.22 1.5-.917 1.878-1.745M11.97 51.547h.402c-.176.317-.057.93-.27 1.21-.57-.174.014-.668-.133-1.21M26.056 51.816c.45-.05.223.582.403.805-.554.135-.642-.55-.404-.804M37.996 53.56c.137.088.14.31.403.27-.018.34-.197.52-.538.536.117-.475.017-.33.134-.805M35.18 54.232c.072.297-.257.19-.27.403-.145-.033-.09-.267-.268-.27-.057-.215.5-.45.537-.133M36.79 54.098c-.013.366.222.27 0 .537-.518.105-.518-.643 0-.537M54.498 56.65c-.208 1.595.382 1.833 1.073 2.683-1.19-.016-1.388-1.026-1.474-2.148-.754.344-1.54.903-2.415.403-.68-1.42-1.655-2.55-3.22-3.087.123-.51.54-.098.94-.134.85.896 2.034 1.455 2.415 2.82.156-.023.238.03.27.134 1.318.318 1.59-.915 2.413-.67M30.08 54.5c.625-.12.69.712 0 .538V54.5M29.142 54.903c-.117.197-.2.426-.537.403-.07-.108-.14-.218-.134-.403.256-.25.338-.014.672 0M32.764 54.77c.118.43-.348.277-.403.536-.144-.033-.09-.266-.267-.268.02-.294.338-.29.67-.27M26.46 54.903c.352-.04.44.186.4.537h-.535c-.057-.28.09-.355.134-.537M24.848 55.306c0 .267-.365.17-.268.537-.292.024-.427-.11-.402-.403.155-.112.36-.177.67-.134M11.298 55.44h.537c.115.428-.21.416-.27.672-.292-.02-.287-.34-.267-.672M22.568 55.71c.017.24-.164.282-.134.536-1.028.12-.516-1.045.134-.537M16.128 56.38c.332.188.237.462.134.805-.624.047-.368-.63-.134-.805M19.213 56.65c-.017.585-.83.382-.805-.136.21-.22.627-.057.805.135M14.653 56.917c-.476.045-.33.37-.806.134-.102-.52.856-.813.806-.133M67.378 56.783c-.417 1.048-2.288.01-3.354.537-.722.44-1.01 1.316-1.745 1.745-.096.44-.064 1.01-.537 1.074-.13-1.352 1.383-2.187 2.013-3.223 1.436-.285 2.464-.167 3.622-.134M62.146 57.185c-.437.96-.15 1.875-.805 2.685.116-.143-1.035.324-.938.806-1.118-.274-1.985-.173-2.684-.67.496-1.91 2.893-3.184 4.428-2.82zm-3.086 2.283c1.247.287 1.74-.34 1.878-1.477-.865.254-1.547.69-1.878 1.478zM61.206 60.273c.12.082.24.162.27 0 .358.156.01.712-.404.537-.017-.24.164-.284.134-.537"/><path d="M2.31 41.614c-.506.103-.642-.164-1.074-.135-.016-.36-.11-.96-.268-1.477-.17-.553-.34-2.073-.268-2.417-.285-.042-.03-.636.268-.537-1.188-.117-1.077-3.038-.67-3.624-.048-.21-.237.117-.27-.135.067-.625-.09-1.434 0-1.878.06-.29.274-.18.27-.135.033-.334-.3-.136-.135-.67.065-.21.242-.213.402-.537.32-.645.22-1.857 1.073-1.88-.423-.07.276-.655.27-1.476.38-.023.558-.247.938-.27-.37-.648.3-.844.537-1.34.126-.267-.107-.407 0-.538.726-.894 2.34-1.163 3.488-1.88 1.65-1.028 3.086-2.324 5.1-3.087.246-.2.47-.425.67-.672 3.036-1.18 6.785-2.05 10.33-3.087.27-.08.728.29.805-.268 2.462.185 5.995-.89 8.452-1.074-.08-.32.684-.314.94-.67 1.02.006 1.762-.15 2.548-.404 1.942-.624 2.736-1.94 4.16-3.222.452.04.916.068 1.207.27 2.424-.976 4.548-2.252 6.305-3.894 1.852-.562 4.164-1.71 6.038-2.685 2 .02 4.163-.805 6.037-1.342.698-.435.965-1.324 1.744-1.61.686-.25 2.448-.1 3.354-.268.983-.184 1.93-.168 2.818-.672.566.086 1.132.903 2.415.672.12.372.498.486.537.94 1.807.798 3.99.542 5.232 2.013.706-.03 1.162.283 1.61.67.548.477 1.836 1.082 2.683 1.612.8.5 1.744.922 2.415 1.476.253.21.323.6.537.806.644.625 1.51.84 1.877 1.61v.67c.24.567 1.31.303 1.61.806.042.49-.02.874-.133 1.21.98 1.12 2.733 1.47 3.488 2.818-.144 1.937.048 4.808-1.475 6.04.18.514.093.998.134 1.88-.288.47-.916.604-1.073 1.208-.705.13-1.514.486-2.415.402-.5-.045-.983-.372-1.477-.402-.913-.056-1.803.445-2.415-.27-.55.302-.972.728-1.342 1.21.498 1.994 1.086 4.71 2.147 6.846-.202.812.39 1.914.94 2.415.19 1.78 1.524 2.413 2.28 3.625.323-.055.29.245.67.134.82 1.45 2.072 3.216.94 4.833V44.7c-.41.69-.85 1.265-1.476 1.88-.347.343-.637.675-.94.94-.593.524-2.34.482-3.085 1.074-.58.46-1.55 1.68-2.013 2.416-.234.372-.27.956-.537 1.343-.12.173-.697.63-.94.94-.697.892-1.455 2.116-2.548 2.684-.103.598-.72.91-1.074 1.343-1.02 1.25-2.078 3.14-3.755 3.893-.523.863-1.52 1.252-2.28 1.88-.353-.14-.824-.16-1.342-.135-1.962 1.126-3.554 2.45-5.77 2.416-.207-.003-.485-.228-.804-.268-.274-.035-.582.17-.806.134-.43-.067-.895-.36-1.342-.403-1.1-.103-1.692-.073-2.414-.805-1.855.074-3.147-.205-4.428-.403-.228-.05-.253.103-.27.267-.862-.192-1.26-.336-1.877 0-.122-.236-.47-.245-.67-.402-2.353.105-3.91-.01-5.904.268-.653.09-1.29.42-2.013.537-1.33.213-2.79.065-4.16.27-.593.087-1.187.467-1.743.536-1.488.182-2.483.207-4.025.268-2.438.096-5.53.596-8.453.403-.735-.05-1.478-.298-2.013-.806-.42-.065-.354.464-.67.136-.795-.234-1.165-.894-2.28-.806-1.488-1.763-3.57-2.144-4.43-4.43-2.057-.037-1.797-1.82-3.218-2.282.063-.594-.185-.667 0-1.074-.898-1.69-.822-4.764 1.207-6.04.344.013.216.5.402.67.46-.468.73-1.365 1.208-1.88.064-.067.335.067.402 0 .375-.358.643-1.34 1.342-.938.34.883-.624 2.077-.268 3.22.943-.836 1.45-1.904 2.682-2.146.438.426.336.72.268 1.476.36.087.895-.8 1.342-1.074.413-.1.258.37.67.27-.362.723-.258 1.846-.134 2.415.553-.532.67-1.383 1.074-2.014.403-.627.938-1.17 1.476-1.61.996.583.19 1.473.67 2.953.42-1.46.736-3.023 2.28-3.356.275.77.162 2.017.404 2.82.755-1.125 1.06-2.7 2.683-2.954.447.92-.255 1.89.402 3.087.464-1.103 1.233-1.898 1.745-2.953.512-.065.856.038 1.073.268-.228.755-.01 1.196.134 2.148.65-1.274.932-2.914 1.877-3.893 1 .488.344 1.974.806 2.82.503-.66.774-1.552 1.207-2.282h.67c.138.937.14 2.008.537 2.685.723-.753 1.053-1.9 2.012-2.416.003.13.164.103.268.133.256.708-.376 1.645 0 2.55.85-.537 1.563-1.21 2.013-2.147.394-.367.992-.53 1.208-1.074 1.34-.405 2.403-1.087 3.756-1.477.094-.71.423-1.188.672-1.745.49-.144.927-.005 1.34-.134.713-.223.718-.73 1.208-1.208.14-.135.366-.012.537-.135.51-.364.584-1.122 1.074-1.342-4.48.387-7.68 1.618-12.075 2.283-.282-.12-.597-.208-.806-.403-1.246.457-2.894.472-4.024.403-.97.597-1.326 1.806-1.88 2.82-1.012-.374-1.783-.99-1.743-2.417-.882.415-.793 1.8-1.61 2.282-.662-.367-.772-1.285-1.34-1.745-.687.676-.558 1.674-.94 2.416-1.444-.422-1.473-2.403-1.61-3.76-.75.775-1.145 1.988-.94 3.356-1.976.413-2.126-2.337-2.28-3.49-1.022.355-.33 2.322-.805 3.222-1.934-.55-1.492-3.16-2.012-4.43-.93 1.19-1.67 2.84-1.61 4.296-.53.315-.647-.132-1.074-.27-.364-1.424-.604-3.076-.268-4.295-.87.873-1.004 2.485-1.61 3.624-1.113-.32-.684-2.18-1.744-2.55-.054-.572-.062-1.192-.27-1.612-.682.005-.078.52-.535.806-.174.185-.584.133-.94.135-.518-1.1-.307-1.66-.94-2.686-.676.26-.174 1.853-.804 2.282.115.418.393.578 0 .94.294.345.486 1 .402 1.34-1.016.456-1.046-.776-1.743-.804.146-.42.136-.43-.404-.403-.302.335.418 1.59-.535 1.745-.617-.326-.815-.99-1.073-1.342-.257-.182-.595-.008-1.074.134-.312-.98-1-.667-.938-1.476zm74.057.67c1.537.53 3.726-1.226 5.098-2.146.16-1.227 1.003-1.77 1.073-3.09-1.437-2.05-1.96-5.017-2.817-7.65-.23.007-.343-.103-.402-.27-.18-1.822-1.35-3.36-.536-4.696.566-.933 2.06-1.084 2.683-2.014.22 1.082 1.146.886 2.012.94.548.033 1.242.53 1.61.537 1.012.02 1.574-.495 2.28-.94.104-.665-.003-.71 0-1.476-.692.108-1.976.91-2.414 1.34-.235-.122-.466-.25-.403-.67-.396-.02-.946.39-1.073-.135.47-.245 1.1-.33 1.61-.536-.01.232.03.416.134.535 1.16-.138 1.396-1.2 2.55-1.342.727-1.628.864-3.08.94-5.235-.88-.465-1.788-1.61-2.684-1.61.47.644.02 1.85-.268 2.147-.178-.135-.5-.127-.537-.403.973-1.993-1.022-2.76-1.474-4.16.002-.223.372-.076.402-.27-.232-.617-.518-1.182-.805-1.745-1.053-.065-1.324-.912-2.28-1.074-.375-.66-.694-.724-1.342-1.208-1.005-.752-1.846-1.366-2.95-2.014-.424-.246-.857-.64-1.208-.804-.2-.092-.607-.03-.805-.134-.593-.315-.945-.774-1.476-.94-.78-.244-1.39-.075-2.28-.134-.162-.464-.676-.577-1.207-.67-1.446-2.043-4.338-.978-6.842-.673-.76.093-1.36-.035-1.878.27-.52 1.336-1.922 1.23-2.414 1.878-.005-.198.674.025.67.27-.834.91-1.85 1.638-2.95 2.28.474-1 1.782-1.168 2.28-2.147-3.01.793-5.62 1.984-8.32 3.087C52.67 5.63 55.67 5.23 58.39 3.76c-1.486.233-3.015.93-4.963 1.073-1.33.987-3.106 1.317-4.562 2.013-.102.05-.164.342-.268.403-.194.114-.504.023-.67.133-.408.27-.68.69-1.074.94-.38.24-.936.466-1.474.806-1.63 1.024-2.91 2.224-4.83 2.146-1.087.748-1.6 2.07-2.952 2.55-.023.202.048.497-.135.538-.58.093-.824.518-1.342.67.13.712-.252.912-.67 1.075-.237-.034-.307-.232-.27-.538-1.554.804-4.803 3.415-6.707 3.624-.373.042-1.03.296-1.207-.402.54-.093.766.128 1.208.134 2.176-.77 4.307-2.133 5.904-3.356.555-.426 1.314-.714 1.476-1.342-2.382.27-4.456 1.26-6.843 1.61-.782.116-1.477.01-2.012.135-1.286.297-2.753.51-3.89.805-1.795.467-3.848.754-5.367 1.208-1.453.435-2.417.826-3.622 1.343-1.62.695-3.045 1.61-4.294 2.417-1.198.775-2.454 1.4-3.487 2.282-.69.158-1.273.426-1.745.804.282.038-.194.358.134.537-.885.33-1.05 1.278-.94 2.015-.315.355-.862.48-1.34.67-.016.164-.04.32-.27.27.287.32-.162.39-.267.67-.302.8-.345 2-.94 2.282.007 1.58.168 2.14 0 3.76.124.574.883 1.204.537 1.878.442.006.668.227 1.208.134-.07.333-.327.478-.537.67.92.35 2.955.75 3.756 0 .015.212-.016.467.27.403.82.104 1.255-.175 2.012-.134.415-.033.227-.67.806-.537.315.042.08.636.536.536 2.836-.432 4.426 1.548 6.574.94.066.42-.463.354-.134.67.424-.02.81-.004.94.27-.202.022-.496-.05-.537.133 1.768-.188 2.672 1.42 4.158.806.014.21-.018.464.27.4.817.21 1.502.556 2.413.673.448 0 .458-.437.94-.404.514.788 1.333.852 2.55.67.763.568 1.744.68 2.816.27.373.703 2.337.803 2.683 0 1.428.577 2.91-.094 4.294-.135.78-.023 1.533.204 2.28.135.557-.052 1.045-.393 1.612-.537.85-.218 1.723-.228 2.548-.404 3.145-.67 6.363-1.516 9.526-1.075.2.16.38.338.536.537.02-.157-.023-.38.135-.402.622.803 1.235 1.055 2.28 1.343.872.238 1.96.93 2.684 1.073.378.076.914-.09 1.342 0 1.292.27 2.763-.168 3.89 0 .354.053.617.257.94.27 1.342.05 3.577-.51 5.367-.27.435-.57 1.8-.85 2.548-.67.377-.653 1.374-.684 2.012-1.075.19.393.737.428 1.074.673-.02-.38.328-.387.67-.404.068.42-.316.548.134.67 1.832-.988 3.283-3.05 4.16-4.83.133-.273-.23-.89.4-.807-.787 2.567-1.933 4.777-4.29 5.772zm-36.895-30.47c.08-.29.926-.494.536-.806-.04.325-.825.593-.536.805zm45.884.94c.234-1.085-.67-1.03-1.208-1.343.285.566.563 1.138 1.208 1.343zm.67.67c-.17-.008-.186-.17-.402-.134-.21.33.456.395.402.134zm-49.372.94c.16-.065.305-.143.404-.27-.18-.02-.74.212-.404.27zm33.81 29.263c-.944.512-2.577.193-3.89.27-.798.046-1.496.287-2.148.268-.52-.017-1.01-.24-1.475-.27-2.426-.157-5.284.43-8.183-1.207-1.073.537-2.13 1.092-3.49 1.342-.316.353-.598.744-1.206.805-.14.444-.684 1.074-.94 1.21-.39.205-.527.46-.803.67-.745.568-1.596 1.19-2.28 1.61-1.275.783-2.295.553-3.49 1.075-.338.325.468-.227.403.268-.192.435-1.163.09-1.207.67.342-.07.47-.177.67.135-3.306 1.122-6.81 2.047-10.867 2.417-.273.04-.263.363-.536.403-1.387-.632-2.517.225-3.89.268-.54.017-1.158-.176-1.745-.133-.217.016-.485.243-.67.268-.213.03-.462-.16-.672-.134-1.467.185-2.624 1.15-4.292.94-.253.015-.093.445-.402.403-.233-.684-.573-.32-1.074-.402-.206-.033-.357-.12-.536-.134-2.567-.174-4.695-.55-6.172-.134-.074.24-.068.558-.268.67-.69.23-1.225-.222-1.476.404.257.057.578.05.537.403-.31.377-.043 1.034 0 1.475.773.39 1.215 1.11 1.743 1.746h.67c.653.814 1.025 1.504 1.745 2.148 1.412 1.265 2.98 2.71 4.83 2.283 1.418 1.652 3.038 1.54 5.634 1.477 1.86-.046 3.957-.724 5.904-.67 3.867.104 8.354-.8 11.135-1.21 2.577-.38 5.874.02 8.453-.133 2.25-.134 4.657.68 5.904.268-.098.366.266.27.268.537 3.762 1.205 7.51-.112 9.794-1.746.273.125.846-.06 1.206.268 1.325-1.002 2.924-1.728 3.757-3.22 1.472-.9 2.3-2.443 3.354-3.76.874-.29 1.063-1.263 1.878-1.61.887-1.71 2.21-2.98 2.95-4.834.756-.57 1.48-1.482 2.148-1.745-.017.242.133.315.403.27 1.55-.552 2.785-1.42 3.488-2.82-.073-.753.648-3.355-.134-3.893.636-.22-.404-.884-.403-1.343-.96-.068-1.143-.914-1.744-1.342-.155.315-.11.587-.268.94-.372.832-.504.554-.268 1.476.202.795.735 1.486.536 2.15-.384-.874-.846-1.24-.805-2.282-.426-.01-.308.58-.536.804-.168.166-.676.2-.94.403-.554.426-.85.96-1.34 1.208-.842.427-2.765.675-3.49.806-1.253.226-2.548.602-3.354 0-.227.63.63.174.403.805-.61-.508-2.238.002-2.816-.538zM9.956 40.27c.533-.494.758-1.3 1.208-1.878-.4-.27-1.266-.076-1.878-.134-.035.93-.055 1.844.67 2.013zm-6.708-1.073c.31-.136.625-.27.67-.67-.61.082-1.573-.484-1.877.133.417.13-.116 1.112.135 1.074.03-.104.113-.155.27-.133-.155.423.21.327.267.538-.53-.023.043.205-.268.402.533-.13.055.75.536.67-.007-.23.103-.343.268-.4.03.103.004.263.135.267-.02-.483-.215-1.176.268-.94-.643-.662.024-.35-.402-.94zm3.89.672c.69-.23.126-1.104.806-1.478-.864-.105-1.32.2-2.146.135.292 1.34-.038 2.07.804 2.55-.042.18-.19.256-.134.537.552-.064-.128.36.403.402-.07-.193.523-.327.135-.402-.275.108.65-1.29.134-1.745zm-2.682 1.34c.395.298.543.49.94.27-.177-.482.008-.492-.135-.94h.404c.03-1.012-.207-1.303 0-2.013-.623-.04-1.162 0-1.477.268-.258 1.015.426 1.33.27 2.416zm8.318 1.612c.593-1.376 1.34-2.597 2.55-3.356-1.196-.192-2.037-.737-3.22-.94-.16 1.41-.76 3.822.67 4.296zm2.683 1.208c.53-1.35.842-2.916 2.147-3.49-.87.11-1.337-.184-1.878-.402-.487 1.138-.75 3.167-.27 3.892zm3.22-.134c.682-.706.51-1.52.94-2.55-.79-.09-.893-.07-1.477-.404.244 1.132.51 2.07.537 2.954zm31.26-1.61c.774-.255 1.877-.18 2.414-.672-1.122-.525-1.944-.324-2.414.67zM21.762 44.97c.34-1.17.376-1.92 1.208-2.685-.69-.16-1.355-.344-2.012-.537-.037 1.38.348 2.337.805 3.222zm30.99-3.087c-1.364.756-3.513.334-4.292 1.878 1.574-.474 3.43-.97 5.1-1.475-.275-.128-.532-.274-.806-.402zm21.198.268c.203-.022.497.05.54-.134-.18-.174-.5-.176-.54.135zm-.4-.134c-.12-.12-.382.114-.403.135-.425.426.606.07.402-.134zM24.847 44.97c.317-.846.786-1.54 1.074-2.417-.55.014-1.1.027-1.476-.133-.212 1.068-.144 1.81.402 2.55zm49.64-2.282c.235-.122.67-.046.806-.268-.326-.045-1.087.15-.805.268zm-47.36.268c-.058.628-.227 1.38.404 1.61-.017-.776.51-1.01.67-1.61-.512.12-.856-.22-1.073 0zm3.22 1.88c.122-.685.725-.887.94-1.477-.144-.072-.638-.14-1.207-.135-.117.735-.444 1.31.27 1.61zm40.518-1.21c1.072-.132 1.424.17 1.878-.267-.69-.112-1.418-.16-1.878.267zm-22.27.54c-.35.132-1.21.04-.94.535.728-.36 1.974-.26 2.55-1.073-.462.033-1.066.33-1.61.538zm-1.343.804c-.534.136-1.34.384-1.61.805 1.06-.46 2.663-.38 3.488-1.074-.615.098-1.27.116-1.877.27zm-1.744 1.074c-.176.36-.43.646-.806.805.82.103 1.256-.177 2.013-.135.2-.607 1.638-.684 1.34-1.343-.586.486-1.615.53-2.548.672zm-3.355 2.013c1.585.02 2.96-.17 3.757-.94-1.335.23-3.245-.114-3.757.94zm-.805.537c.452.408.407-.496 0 0zm-1.61 1.343c.717-.002 1.586-.558 1.476-.94-.39.414-1.26.35-1.475.94zm-8.317 2.55c.417-.007 2.18-.035 2.28-.403-.97.026-1.564-1.352-1.61-2.684-.684.57-.703 1.8-.67 3.087zm-6.172.537c.54-.086 1.427.174 1.745-.134-.82-.545-.386-2.675-.94-3.088-.474.868-.955 1.73-.804 3.222zm8.72-.805c.482-.013.777-.21 1.21-.27-.24-.835-.873-1.275-1.21-2.013-.01.953.73 1.742 0 2.282zm2.282-.404c.465.108.516-.2.94-.134-.093-.624-.432-1-.538-1.61-.342.372-.462.968-.402 1.744zM11.03 53.83c.69-.07 1.147-.374 2.013-.27-.254-.77.127-2.812-.538-3.355-.748.912-1.322 2.545-1.475 3.624zm11.672-.135c.212-.348.784-.26 1.476-.402-.244-.383-.344-.91-.67-1.21-.003.357.073.79-.27.807-.158-.065-.304-.143-.402-.27.163-.373.334-.738.67-.938-.39-.102.122-1.106-.268-1.21-.36.913-1.17 2.114-.536 3.223zm5.77-.805c.602.065 1.004-.068 1.474-.134-.324-.857-.913-1.145-.804-2.148-.03-.105-.113-.157-.27-.135-.206.772-.8 1.43-.4 2.417zm-13.82-1.074c-.26.48-.323 1.203-.403 1.88.474.022 1.254.436 1.61.133-.476-.807-.236-1.918-.134-2.954-.37.105-.89.6-1.073.94zm4.965 2.282c.754-.05 1.75.14 2.01-.403-.314-.003-.393.23-.803.134-.305-.098.123-.93-.403-.806-.144.344.41.64 0 .805-.548.047-.435-1.58.135-1.61-.017.175-.02.97.134.536.116-.85-.19-1.138-.27-1.477.002.003.34-.694-.133-.404-.394.83-1.11 2-.67 3.222zm-2.416-.134c.237-.078.79.162.807-.135-.562-.334-.194-1.597-.806-1.88-.107.676-.212 1.366 0 2.014zm-7.78.94c.523.025.81-.38.94-.806.153-.5-.106-1.744-.404-1.88-.586.556-.512 1.945-.536 2.685zm7.11-.94h.27c.08-.008.158-.02.133-.135-.177-.003-.123-.235-.27-.27.007.186-.062.295-.133.404zm45.213 10.47c.54-.13 1.094-.248 1.476-.537-.543.13-1.23.112-1.477.537z"/><path d="M83.477 12.35c.074.298-.256.19-.268.403.53 1.48.113 3.708-1.343 4.027-.592-.334-1.117-.612-1.744-.402-.36.12-.43.6-.805.94-.428.387-1.317.68-2.013 1.073-.844.48-1.61 1.526-2.95 1.478-.844.842-2.342 1.086-2.416 2.282-.07 1.102 1.25 1.825 1.744 2.82.956-.136 1.46-.776 2.683-.94-.215.23-.502.392-.805.536.76.16 1.145.773.67 1.477-.17-.233-.453-.352-.402-.806-.69-.163-1.184.002-2.146.134.924 2.77.56 5.856-.27 8.19-1.235 1.09-2.284 2.367-3.755 3.222-1.36.042-2.65.9-3.758.402-.315-.14-1.713-1.59-1.878-2.013-.215-.55-.218-1.667-.135-2.28.156-1.15 1.06-2.33.805-3.626.894-.652.827-1.707 1.475-2.684.103-.157.598-.508.806-.806.21-.304.332-.81.536-1.074.162-.21.393-.19.537-.402.088-.134.03-.457 0-.403.56-.933 1.297-1.65.4-3.088.005-.978.486-1.316.404-2.013-.124-1.046-1.104-1.655-.94-2.953.09-.697 1.47-2.727 2.013-3.22 1.79-1.628 4.958-1.733 6.708-2.954 1.005.35 3.067.073 4.293.536.85.322 1.306 1.125 2.147 1.477-.08.428.25.414 0 .67.058.2.172-.052.402 0zm-13.55 1.88c2.495-1.22 4.735-2.036 7.245-3.356-2.593.462-5.395 1.72-7.245 3.356zm7.78-3.356c-1.12.686-2.46 1.287-3.756 1.88-1.785.815-4.48 1.542-5.096 3.355 2.722-1.264 5.6-2.742 8.184-3.894.934-.416 1.975-.578 2.683-1.342H77.71zm2.55.268c-2.933 1.237-6.07 2.82-8.72 4.162-.964.487-2.223.705-2.55 1.61 1.003-.11 1.872-.858 2.818-1.342 1.988-1.017 4.175-1.923 6.17-2.685 1.035-.394 2.127-.94 3.22-.94-4.134 1.643-8.845 3.398-11.94 5.64.788.44 1.478-.468 2.148-.807 2.748-1.39 6.63-2.578 9.525-3.624.413-.15 1.213-.046 1.342-.67-.488-.632-1.255-.983-2.012-1.344zm-7.11 5.772c2.395-1.155 4.898-1.98 7.245-3.087.244-.106 1.455-.652.804-.403-4.086 1.415-8.32 2.68-11.537 4.967 1.267-.095 2.31-.91 3.487-1.476zm7.78-2.953c.374-.194 1.184.03 1.343-.67-.444.227-.964.378-1.342.67zm-5.902 2.686c-1.33.603-2.466 1.158-3.622 1.745-.56.285-1.452.478-1.61 1.21.705.063 1.238-.505 1.878-.806 2.006-.943 4.35-1.786 6.575-2.55.97-.774 2.414-1.075 3.757-1.477-.066-.424.24-.475.134-.94-2.477.722-5.088 1.9-7.11 2.82zm7.513-.94c.03-.293.606-.722.27-.94.018.344-.596.734-.27.94zm-1.342-.268c.264-.04.267.18.403.268-.08-.24.392-.557 0-.67-.016.253-.445.092-.404.402zm-11.27 4.564c.224.42-.668.38-.267.537 2.195-.935 4.183-2.078 6.84-2.552.225-.58.998-.612 1.208-1.208-2.84.83-5.173 2.162-7.78 3.222zm8.453-2.55c-1.03.44.43-.186 0 0zm-3.623 1.342c.237.22.666-.123.938-.27-.415-.012-.744.062-.938.27zm-5.098 2.148c-.096.497.228.576.133 1.073.62-.142 1.782-.45 1.475-1.073-.232.17-.35.453-.804.402 1.07-1.122 2.89-1.494 4.025-2.55-1.683.644-3.2 1.454-4.83 2.148zm0 2.013c.533-.226 1.376-.143 1.34-.94-.6.16-1.23.29-1.34.94zm-.538 1.477c.536-.583 1.48-.758 2.146-1.208-.31.04-.15-.39-.402-.403-.64.39-2.007.764-1.744 1.612zm-1.208 1.476c1.47-.497 2.724-1.212 4.025-1.88-.502-.09.098-.445-.403-.536-1.252.76-3.017 1.01-3.623 2.416zm4.294-1.476c-2.148 1.02-5.348 1.664-5.903 4.027 2.017-.83 4.646-2.232 6.305-2.552-.887.838-2.24.99-3.354 1.477-1.14.498-2.113 1.204-3.22 1.61-.022.345-.57.85-.268 1.075 2.27-1.31 4.506-2.65 7.38-3.356-.105-.97-.57-1.58-.94-2.282zm-6.708 6.04c.097.41-.232.395-.134.805 2.708-1.08 5.35-2.924 7.915-3.356-.117-.583.117-.74-.267-.938-2.75.918-5.05 2.285-7.513 3.49zm3.085-.402c-.666.317-1.362.74-2.012 1.074-.585.298-1.723.448-1.476 1.34 1.175-.767 2.547-1.5 3.89-2.146 1.368-.657 2.688-1.53 4.16-1.61-.343.455-.598.357-1.342.536-1.767.9-3.705 1.915-5.366 2.82-.558.302-1.466.47-1.61 1.207.764.044 1.336-.577 2.01-.938 1.468-.783 3.014-1.546 4.428-2.15.682-.288 1.588-.445 2.013-1.073.317-.196-.006-.878-.133-1.074-1.3.655-3.045 1.29-4.562 2.014zm4.293-.27c-1.812.774-3.854 1.854-5.366 2.685-.343.19-.737.352-1.073.537-.61.338-1.81.64-1.61 1.61 3.005-1.124 5.386-2.91 8.317-3.757-.036-.484.248-.647.268-1.074h-.537zm-7.78 5.37c.556.672 1.092-.125 1.61-.403 1.916-1.03 4.12-1.892 6.036-2.684-.064-.422.192-.525.27-.806-2.912 1.026-5.496 2.377-7.917 3.894zm.67.67c1.082.535 2.068-.465 2.952-.938 1.016-.544 1.99-1.197 3.22-1.343-.045-.412.763-.656.268-1.075-2.147 1.12-4.453 2.08-6.44 3.356zm1.475.405c1.84-.314 3.21-.733 4.16-2.148-1.612.49-2.938 1.266-4.16 2.148z"/><path d="M77.172 19.733c-.412-.17.154-.408.133 0 1.422-.407 2.37-1.16 3.757-1.073-.25.912-.85 1.473-1.476 2.013.087.137.31.14.27.403-1.038.216-1.78.726-2.818.94 1.017-1.13 2.812-1.482 3.488-2.954-.88.24-2.462.937-3.623 1.343-.273-.513.623-.52.27-.672M78.782 33.56c.404.728.173 2.87-.27 3.893-.18.416-.655.923-.938 1.074.957-1.328 1.01-2.81 1.208-4.968M57.718 6.98c-.574.142-.975.457-1.744.403.143.77-.233 1.02-.268 1.61.57.578.715-.56 1.207-.133.045-.537-.172-1.336.403-1.342.144.422.092.71 0 1.208.012.21.8-.257.67.403.218-.203.99-.203 1.208 0-.38.28-1.778.858-2.146.267-.294.198-.723.262-.94.537-.256-.057-.242-.384-.67-.268-.11-1.193.304-1.476 0-2.417-.664.05-.92.51-1.61.536.537-1.303 2.368-.872 3.488-1.342.196.117.425.2.402.537M62.012 7.115c.798-.153 2.415-1.326 3.488-1.208-1.044.7-2.533.956-3.488 1.745 1.44-.24 2.843-1.58 4.695-1.477-1.588.6-3.22 1.104-4.293 1.88 1.294-.138 2.746-1.28 4.427-1.477-.388.598-1.26.552-1.877.805-.6.248-1.045.647-1.61.806 1.062-.06 2.416-.984 3.89-1.075-.907.658-2.204.926-3.354 1.342 1.515.32 2.652-.815 4.16-.537.027.494-.49.233-.672.27-.764.15-1.546.415-2.28.536.81.658 1.876-.58 3.085-.403-.167.64-1.355.256-1.744.67.845.286 1.663.11 2.145-.267.83-.024 1.607-.16 2.28-.403 1.286-.465 2.29-1.423 3.355-1.61-.627.838-1.752 1.276-2.952 1.744-1.054.412-3.023.775-4.158 1.343-.25.124-.247.592-.67.268-.1-.457.494-.22.536-.537-.185-.105-1.657-.32-2.147.27-.262.052-.197-.61.133-.403-.65-.725-1.973-.155-2.95-.537-.23-.09-.338-.606-.672-.537.433-.464.428-1.106.135-1.745.694-1.09 1.95-1.568 3.085-1.88-.254.73-1.283.685-1.744 1.21.595.1 1.682-.464 2.28-.807.218.134.31.36.135.538-.848.26-2.644.517-3.218 1.477M64.963 11.948c-.515.368.27 1.31 0 2.282-.354.36-.46.97-.805 1.342.51.385.682 1.108 1.073 1.61.293 1.99-.682 2.265-.804 4.028-1.01.555-1.404 1.743-2.683 2.148-1.03.325-2.207.052-3.22.67.222.96-.31 2.148-.67 2.954.618 1.03.275 1.656.67 2.685-.07.465-.63.442-.805.805.744 1.938-1.097 2.933-2.147 3.893-.506-.342-.784-.914-1.206-1.343-1.12.582-1.715 1.686-3.354 1.745-.2-.466-.038-1.576-.134-2.147.433-.12.47-.54.67-.94.223-.445.245-1.202.67-2.013.458-.872 1.33-1.795 2.014-2.82.793-1.188 1.027-1.645.805-3.22-.315-2.244.52-4.59 1.073-6.713.367-.012.27.224.537 0-.082-1.693.633-2.588 2.147-2.684-.326-2.75 2.592-3.802 5.366-3.088.22.316.31.763.805.806zm-3.488-.135c-.275.89-1.456.87-1.744 1.745.93-.502 1.894-.97 2.684-1.61-.465.107-.516-.2-.94-.135zm.537.806c-1.177.652-2.636 1.203-2.55 2.28.985-.74 2.032-1.192 2.952-1.744.415-.25.963-.487 1.207-.94-.364-.557-.952.038-1.608.403zm-1.745-.27c-.065.546.474-.104.67-.134-.378-.11-.346.19-.67.134zm.268 2.148c-.285.202-1.17.573-.67.94 1.075-1.162 3.042-1.43 4.16-2.55-.18-.002-.123-.236-.27-.27-.843.692-2.277 1.218-3.22 1.88zm3.22-1.074c-.877.91-2.545 1.033-3.22 2.148 1.333-.06 2.818-.87 3.49-2.014-.03-.104-.114-.156-.27-.134zm-5.768 2.282c.143-.574 1.265-.13.938-.805-.038.46-1.417.275-.938.806zm3.622.27c.608-.117 1.423.014 1.61-.807-.03-.105-.005-.265-.135-.27-.39.46-1.138.563-1.476 1.075zm2.548 1.207c-.253-.786-.848.51-1.207 0-.052-.59.724-.35.806-.805-.46.1-.17-.546-.67-.403-.254.24-.623.363-.807.67.286.74 1.366 1.478 1.878.538zm-6.708-.403c-.406.76-.607 1.326-.94 2.148-.13.322-.466.658-.536.94-.498 2.015.346 4.138 0 5.906-.66 1.072-1.492 2.52-1.878 2.82-.042.03-.238.226-.27.268-.955 1.285-1.338 2.685-2.01 4.564 2.224-.727 2.207-3.698 3.622-5.236.392-.035.412.304.805.27.515-.502.32-1.166.536-1.746.116-.313.366-.29.536-.67.216-.486-.13-1.088-.135-1.612-.002-.49.484-.845.404-1.343.706.124.71-.454 1.208-.538 1.176-.015 2.71.127 3.622-.537 1.442-1.05 1.353-3.038.134-3.892-.356-.25-1-.18-1.342-.537-.202-.212-.413-.642-.402-1.074-1.3-.145-2.466-.416-3.354.268zm4.293-.134c.324.69.346-.462 0 0zm2.55 1.88c-.125-.235.004-.722-.404-.672-.28.276 0 .68.402.67zm-8.99 12.35c.357-.854 2.236-.894 1.878-2.014-.38.827-2.054 1.073-1.877 2.013zm-.805 1.207c.535-.133.404.4.94.27.222-.585.822-.79 1.34-1.076-.022-.2.05-.495-.133-.536-.78.435-1.634 1.028-2.147 1.343zm1.208.537c.247-.295 1.264-.517.94-.94-.2.343-1.156.628-.94.94zM43.363 34.365c.154-.393-.486.41-.94.268-.522-.416-.503-1.375-.67-2.148-.724.05-1.647.497-2.28 1.21-.262.293-.226.695-.538.938-1.517 1.188-3.64 1.162-5.366.134-1.904.314-3.25-1.027-4.294-2.013-.2-1.77 1.675-2.494 1.878-4.295-.414-.913-1.295-.824-1.744-1.478-1.41-2.058.25-4.375 1.476-6.175 3.73-2.443 8.792-3.553 12.745-5.772 1.554-1.31 3.152-2.574 4.83-3.76.862.102 1.27-.25 1.88-.4.677.17 1.214.483 2.01.536.362.504.18.877.136 1.612.612.75 1.867-.517 2.55.268-.006 1.466-.845 1.724-.538 3.088-.628 1.205-1.627 2.04-2.28 3.22.02.836-.087 1.5-.27 2.417-.1.516-.4.78-.4.94-.004.907.476 1.398 1.072 2.148-.084.378.064.685-.27 1.074-.314.37-.434.634-.803 1.342-.57 1.09-1.42 2.154-2.147 3.087-.12.392-.12.412 0 .805-1.92 1.126-3.517 3.278-6.172 3.22-.02-.154.03-.238.135-.267zm6.976-22.552c-3.168 1.35-5.662 3.375-7.782 5.773 3.142-1.466 5.493-3.722 8.183-5.638-.17-.008-.184-.173-.4-.135zm.536.403c-1.662 1.558-3.89 2.55-5.367 4.296.838-.06 1.182-.6 1.61-.94 1.084-.868 2.344-1.658 3.353-2.416.328-.246 1.097-.364.805-.94h-.402zm.402.67c-1.437 1.337-3.37 2.178-4.56 3.76.73.013 1.27-.77 1.877-1.208 1.003-.728 2.145-1.303 3.086-2.014-.224-.016.153-.572-.402-.537zm.27.94c-1.06 1-2.597 1.52-3.49 2.686 1.85-.342 2.667-1.718 4.026-2.55-.183-.043-.257-.192-.537-.135zm.938.27c-1.178.925-2.395 1.81-3.49 2.818.744.15 1.45-.262 1.88 0 .838-.726 1.807-1.324 2.55-2.147-.758.05-1.483 1.29-2.416 1.61.003-.936 1.032-.846 1.34-1.476.563-.11.87-.472 1.21-.805-.377.155-.7.155-1.074 0zm-.94 2.953c.81.715 1.23-.434 1.88-.672.02-.424.004-.81-.27-.94-.52.552-1.232.914-1.61 1.61zm-11.27 1.073c.58-.093.8-.545 1.61-.403-.03-.65 1.522-1.023.94-1.342-.954.477-1.804 1.058-2.55 1.745zm.27-.672c-.884.28-1.808.52-2.282 1.21.972-.192 1.57-.756 2.28-1.21zm5.768.538c-1.266-.684-2.09.1-3.086.403-.227.07-.523-.052-.805 0-.79.15-1.62.6-2.415.806-.225.06-.596-.067-.804 0-.416.135-.668.468-1.073.537-.9.154-1.57-.11-2.146.135-.496.21-.81.726-1.476 1.074-.27.14-.488.012-.805.134-.24.092-.947.528-1.476.805-1.685.883-2.684 1.943-2.414 4.028.726 1.115 2.362 1.202 2.414 2.55.046 1.19-1.875 2.72-2.012 3.76.356.18.403.67.94.67.47-.18.41-.38.535-.67.098.495.405-.058.67.267 1.59-.782 4.12-.623 5.77-1.34.45.43.692.26 1.208.536 1.53-.878 3.534-1.656 5.5-.805.354-.184.51-.565.94-.672 1.425-.357 2.21-1.308 3.488-1.476.236-.256.475-.51.67-.806h.403c.197-1.01 1.343-1.633 1.207-2.55-.704-.192-1.044-1.158-.94-2.146.173-1.643.8-4.067 1.477-4.967-2.454.386-3.826-1.575-5.77-.27zm-14.758 3.76c.14-.354.532-.453.67-.806-.357.05-.963.545-.67.805zm11.94 11.543c1.796-.314 2.65-2.107 4.428-2.013.28-.57.75-.948 1.073-1.476-1.516 1.48-3.998 1.996-5.5 3.49zm-1.207-1.475c.52.03.84-.143.938-.538-.337.155-.92.064-.94.538zm.536.403c.08.277-.166.88.134.94.526-.55 1.238-.91 1.88-1.343-.937-.313-1.37-.134-2.014.403zm2.415.67c.978-.23 1.716-.7 2.282-1.342-.828.38-1.608.81-2.28 1.343zm-7.646-.134c.25-.018.448-.088.537-.27-.306-.035-.504.034-.536.27zM35.447 34.5c1.265-.21 1.83-1.123 3.086-1.343-.025-.378.528-.337 0-.537-1.06.596-2.165 1.145-3.086 1.88zm-2.28-.537c.955-.208 1.74-.587 2.28-1.21-.836.328-1.767.56-2.28 1.21zm4.292-1.21c-.422.072-.75.237-1.073.404-.255.03-.297-.15-.537-.135-.558.47-1.413.646-1.88 1.21.483-.08.65.155.94.268.61-.824 1.838-1.025 2.55-1.746zm-4.964.94c.312-.044.578-.137.67-.402-.42-.063-.548.17-.67.404zm4.158.94c.495-.31 1.337-.273 1.477-.94-.558.247-1.184.427-1.476.94zM33.837 15.438c-.632 1.336-2.355 1.58-3.756 2.148-.31-.038-.308-.36-.134-.537-1.02.454-1.957.993-3.22 1.207v.537c-.192-.21-.337-.467-.67-.537-.074-.298.256-.19.27-.403-.794-.22-1.58 1.085-2.148.806.408-.932 1.798-.938 2.55-1.21.423-.152.585-.44.938-.536.776-.208 1.753-.18 2.55-.268.33-.037.823.036 1.34 0 .923-.064 1.266-.99 2.28-1.208zM26.86 17.72c.507.265 1.19-.285 1.745-.403-.823.064-1.5.07-1.744.403zM61.072 46.446c-.466.597.877.382.403.94.434-.076.675.04.804.268-.494.457-1.06.386-.94 1.21-.842-.344-1.25.288-2.146.267-.112-.155-.177-.358-.134-.67-.618.188-.993.618-1.61.805.452-1.113 1.826-1.305 2.952-1.744-.043.315-.416.3-.537.537.088.402.287-.128.537 0 .324-.122.355-.54.402-.94-.978-.17-2.99-.265-2.952-1.878.156.02.24-.032.27-.136.768.662 1.106 1.755 2.95 1.342M73.415 49.13c-.236.476-.67.14-1.074-.133-.878.63-.982 1.362-.937 2.282-1.785.812-2.807-1.876-.806-2.015-.02.605-.76.493-.804 1.074.18.49.63.713 1.342.67-.02-.248-.455-.082-.538-.268.58-.603.294-1.24.94-1.745-2.948-.532-5.04.953-6.977 1.88.515-.738 1.423-1.083 2.28-1.477-1.374-.256-2.678.72-3.62 1.342.116-1.117 1.628-1.265 2.816-1.61 1.145-.335 1.825-.524 3.22-.672.753-.08 1.952-.245 2.415-.134.42.1 1.16.492 1.745.805"/></g></svg>