<svg xmlns="http://www.w3.org/2000/svg" viewBox="0 0 89.77581 64.170914" width="89.776" height="64.171"><title>deinonychus</title><g fill="#000" fill-rule="evenodd"><path d="M3.956 23.915c.404.187-.066.694-.29.73-.064.275.197.877-.29.728-.336-.643.242-1.07.58-1.458M4.39 21.582c.84.402.565-.533 1.45-.437.368.356-.305.31-.145.875-.537-.103-.622.25-1.16.146.02-.263-.177-.308-.144-.584M5.115 23.04c.584-.773 2.1-.61 2.9-1.166-.152.89-2.04 1.075-2.9 1.166M5.695 19.98c.14-.274.224-.684.435-.876.074-.067.37.074.435 0 .454-.52 1.915-1.366 2.754-1.895.424-.27.81-.736 1.16-.876.827-.333 1.896-.194 2.754-.437.506-.144.864-.726 1.45-.438.165.458-.23.353-.29.582.353.536.9-.402 1.16 0 .048 1.035-1.71.584-2.03 1.313v.582c-2.057 2.03-4.386 3.447-7.104 3.79-.065-.647.103-1.06.29-1.457-.207-.245-.786.186-1.015-.29zm3.045.145c1.232-1.045 2.762-1.79 3.77-3.062-1.975.007-2.957 1.012-4.06 1.895.912.074-.012.966.29 1.167zM6.275 24.353c.707.056.36 1.11-.145 1.166-.125-.145-.06-.918.145-1.167M10.044 23.332c.36-.417.75-.8 1.305-1.02.198.332-.375.548 0 .582-.287.198-.676.295-.726.73-.396.105-.292-.29-.58-.292M10.334 58.76c.064-.13.127-.26.29-.29.377.397 1.06.488 1.16 1.165-.718-.056-1.048-.5-1.45-.875M13.813 19.687c-.428.492-.39 1.455-1.16 1.604-.385-.777.657-1.245 1.16-1.603M14.103 21.728c.13.622-.876 1.353-.58 2.625-.738-.683.082-2.224.58-2.625M16.858 20.27c-.554.367-.845.996-1.305 1.458-.14-.504.608-1.774 1.305-1.458M15.988 58.906c.587.188.962.59 1.305 1.02-.843.07-1.076-.473-1.305-1.02M17.003 58.323c.538.144.38.31 1.014.146-.023.168.032.258.146.29-.35.387-1.145-.007-1.16-.437M17.727 26.54V26.1c.304-.06.385.1.58.147-.094.194-.31.27-.58.29M19.467 24.79c.59-.15.773.68.145.583-.113-.13-.156-.33-.145-.583M19.757 22.02c.382-.197 1.676.593 1.305 1.166-.595-.227-.792-.857-1.305-1.166M19.902 59.49v-.73h.58v.73h-.58M22.51 48.992V48.7h.29v.292h-.29M23.526 25.81c.657-.078.34.826.58 1.167-.56.002-.83-.808-.58-1.166M24.396 58.323c.623.46 1.53.336 2.03-.147.256.365.184.158.724.147-.28.66-3.09 1.098-2.754 0M24.25 57.157c.118.077.236.15.436.145.02.26-.178.308-.145.584-.316-.022-.31-.368-.29-.73M25.7 61.676c.515-.624 1.572-1.402 2.465-1.167-.797.34-1.62 1.352-2.464 1.166M26.86 26.393c.338.483.003 1.296-.58 1.312-.262-.405.097-1.196.58-1.312M28.02 26.977c.04.235-.137.252-.145.438-.465.127-.3-.378-.58-.438.123-.427.467.086.725 0"/><path d="M28.165 26.25c.212.174.14.635.725.435v.584c-.72.13-1.258-.778-.725-1.02M30.195 27.85c.02.36.022.704-.145.877-.55-.105-.47-.847.145-.876M30.92 57.594c.3-.92 1.965-1.22 2.464-.874-.84.57-1.407.522-2.465.874M32.224 28.727c-.225-.52.492-.09.436-.438.46.228-.182.873-.436.437M35.268 27.705c.398.004.345.69.145.876-.397-.002-.344-.687-.145-.875M36.284 57.302c.093-.148.333-.15.29-.438.628.69 1.104-.537 1.884-.582-.442.664-1.35 1.61-2.174 1.02M38.603 28.872c.05-.19.255-.23.29-.437.944.942 1.72-.69 2.464 0-.373.638-2.28.818-2.754.437M42.517 8.46c-.47-.198.418-.78.58-.874.668-.39 2.6-.542 3.77-.874-.585.786-1.926.53-2.9.874-.567.2-1.047.6-1.45.875M43.676 57.74c-.17-.024-.122-.266-.144-.438.927-.138 1.488-1.526 2.32-.874-.64.524-1.645.68-2.176 1.312M44.69 26.685c.91.2 1.427.153 2.03.438-.403.802-1.206-.188-1.884.438-.174-.226-.463-.568-.145-.875M48.315 27.123c.032-.62.964-.628 1.16-.292-.032.454-.72.248-1.16.293M49.91 26.685c-.018-.26.178-.307.145-.583h1.015c.112.778-.655.83-1.16.583M52.954 27.705c-.04-.235.137-.25.145-.436 1.962.242 3.48-1.917 5.218-1.897-1.622.853-3.438 2.27-5.364 2.332M58.463 45.2c.586-1.013 2.17-1.023 3.48-1.31-1.035.562-2.143 1.053-3.48 1.31M63.537 44.618c.445-.578 1.218-.735 2.03-.583-.398.474-1.43.313-2.03.583M72.09 11.377c-1.786.39-3.853 1.762-4.64 3.645.587-2.813 4.203-3.84 6.96-4.957-1.432-.272-2.786.794-3.915 1.312 1.168-1.28 4.344-2.293 6.524-1.895 1.048.19 1.773.9 2.753.875.378.933 1.8.812 1.74 2.186.587.916 1.55 1.455 2.61 1.896.69 1.35 1.53 2.982 1.014 5.102-.625-.593-.1-1.108-.145-1.75-.17-2.4-1.92-3.365-3.48-4.665-.013.942.4 1.75.436 3.207-.377.087-.522-.06-.435-.437-.476.966-.586 2.075-1.16 2.916-.387.566-.476 1.32-1.015 2.04-.21.28-.73.434-1.015.73-.69.716-1.254 1.63-.87 2.187-1.043-.03-.77 1.267-1.594 1.457.055-.478.423-.642.58-1.02-1.006.044-1.13 1.175-1.596 1.75-.302.37-.698.568-1.014.874v.585c-.69.327-1.304.73-1.45 1.603-.594-.14-.93.36-1.305 0-.3.038-.04.64-.29.73-.27-.286-.53-.046-.87 0-.033-.453-.403-.568-.58-.876-.35-.06-.314.266-.724.146-.508.04.365.543-.144.583-.723-.076-1.41-1.38-2.175-1.895-.69.113-.642-.518-1.303-.436.04-.334-.035-.55-.29-.585-.047-.338.023-.56.145-.728-1.372-3.274 1.122-5.52 1.594-8.602.61-.603 1.065-1.36 1.305-2.333.362.022.45-.23.726-.292.995-1.33 2.203-2.45 3.624-3.353zm5.654-.583c-2.022-.654-3.643-.11-4.93 1.312-2.185.91-3.207 2.994-4.783 4.52.006.562-.47.947-.724 1.457-.467.94-.606 1.896-1.015 2.916-.213.535-.747 1.012-.87 1.603-.253 1.242.25 2.46.146 3.646.678.8 1.507.787 2.755 1.165.557-.56 1.115-1.115 2.03-1.313.64-.658.797-1.704 1.74-2.187.468-.24 1.124-.11 1.595-.29 1.516-.586 2.594-1.8 3.914-2.626-.203-.786.55-.612.434-1.313.765-.153.96-.88 1.594-1.166.895-1.84.66-4.063 1.16-5.83-.598-1.085-2.035-1.57-3.044-1.896zm-9.133 17.64c-.27.02-.484.097-.58.293.258-.033.727.146.58-.292zM69.626 28v-.437h-.29V28h.29zm4.93-2.333c.286-.442.584-.87.87-1.312-1.45.203-3.588.45-3.625 1.896.562-.458 1.066-.97 1.885-1.17-.886 1.152-2.546 1.523-3.19 2.918 1.575-.466 2.505-2.33 4.06-2.333zm-.58.437c-1.078.763-2.186 1.495-3.19 2.333 1.232.174 3.176-1.86 3.19-2.333zm2.9-3.062c-.358.47-1.88.535-1.74 1.02.573-.252 2.036-.377 1.74-1.02zm2.463-2.915c-.427-.032-.884.653-.58.874.165-.32.485-.485.58-.875zM66 15.022c.975-1.4 1.862-4.285 1.306-6.27.573-.233.51 1.524.435 2.333-.137 1.506-.925 3.442-1.74 3.937M67.74 12.106c.377-1.03.81-2.004 1.885-2.332-.694.71-1.064 1.746-1.884 2.332M68.32 43.307c-.046-.79 1.96-.876 1.885 0-.8-.472-1.424-.026-1.884 0M73.54 7.586c-.315.025-.066-.517-.145-.73.527-.223 1.564-.26 1.45.585-.534-.352-.887-.272-1.305.146M74.99 39.515c1.47-1.95 3.735-2.542 6.088-3.353-.83.82-2.11 1.095-3.19 1.604-1.104.52-2.014 1.058-2.898 1.75"/><path d="M75.28 27.415c.064-1.053.887-1.343 1.304-2.042.56.033-.355.833-.58 1.02.06.644.04 1.206-.725 1.022M78.178 39.662c-.257-.345-.646.408-1.16.29.27-.87 1.7-.936 2.176-1.166.476-.006.347-.623.87-.583.05.633-.4.764-.87.875-.287.1-.387.39-.436.728-1.052.367-1.84 1.723-2.754 1.75.594-.764 1.427-1.286 2.174-1.894M76.874 28.58c-.115.767-.484 1.73-.29 2.77-.54-.358-.287-2.285.29-2.77M77.454 27.56c-.14-.004-.113-.178-.145-.29.025-1.287.798-2.12 1.304-3.064.48-.897.75-1.974 1.594-2.624-.003.722-.686 1.502-1.16 2.333-.643 1.132-1.225 2.114-1.594 3.646M80.354 21.582c.33-1.124.788-2.122 1.304-3.06-.07.806-.613 2.393-1.304 3.06M80.5 10.357c.54-.64 1.77-.738 1.883.29-.02.468-.33.643-.87.584-.125-.464.228-.45.29-.728-.44-.178-.777.122-1.304-.145M83.687 16.625c.035-.256.25-.332.58-.29.146.437-.322.257-.58.29"/><path d="M69.915 2.192c.55.177.502.953.87 1.312 2.808.15 6.14.725 8.698 2.187 1.813-.024 2.326 1.26 3.77 1.605.896 1.82 3.27 2.153 4.35 3.79.62-.14.558.41 1.013.438v1.166c1.185 1.987.946 4.667 1.16 6.123-.54.863-.94 1.87-1.595 2.623-.5.08-.77.39-1.304.438-.158.424-.13 1.035-.29 1.458-.722.488-1.47.952-2.754.874-.566.403-1.026.913-1.45 1.46-.56.126-.515-.357-.87-.44-1.396 2.426-1.96 6.328-1.304 8.603 1.548-.227 3.12.28 4.35 1.02-.02.953-.4 1.543-.435 2.478-1.176 1.102-2.214 2.343-3.77 3.062-.38 1.124-1.29 1.714-2.03 2.48.344 3.277-1.722 4.57-2.464 7.143-1.364 1.594-3.29 2.62-4.64 4.228-.734.357-1.346.665-2.03.875-1.174.36-2.203 1.448-3.19 1.75-.95.292-2.276.144-3.333.437-.64.177-2.46.55-3.624.438-.904-.088-1.688-.74-2.61-.876-.887-.128-1.772.186-2.61.146-.547-.025-1.865-.572-3.188-.146-.187.396-.793.37-.87.876-1.765.19-3.793.77-5.22 1.603-2.55.453-4.905.8-7.392 1.166-.597.088-1.55.29-2.03.437-.378.117-.647.438-1.014.584-1.052.417-2.207.56-3.336.875-.53.148-1.042.463-1.594.583-.523.115-1.193 0-1.74.145-.27.074-.45.385-.725.438-.166.034-.213-.273-.29-.29-.102-.024-.737.293-.724.29-.348.03-.79-.068-1.16 0-.35.067-.65.34-1.014.44-1.68.453-3.78-.197-5.8-.146-1.43.035-2.607.377-3.623.29-2.244-1.047-4.55-2.03-6.523-3.353-1.08-1.797-1.668-4.965 0-6.56.602.22 1.154.492 1.015 1.458.77-1.17 1.517-2.36 2.754-3.06.79.512.356 1.15.29 2.04.767-.247.85-1.186 1.738-1.313.797.42.626.764.435 1.75.764-.932 1.047-2.35 2.465-2.624.125.214.217.463.58.44-.16.725-.65 1.235-.29 1.747.547-1.004.67-2.434 2.174-2.478.32.844.61 1.717.87 2.624.727-1.164 1.067-2.72 2.03-3.645.276.062.364.313.724.29.208.652-.08 1.02 0 1.895.292-.05.453.03.435.292.425-1.274.92-2.477 2.03-3.06 1.046.016.478 1.657 1.016 2.186.537-.627.712-1.616 1.594-1.896.572-.088.642.326.725.73.467-.31.692-.86 1.305-1.02.437.19.482.776.725 1.166.64-.67.747-1.874 2.03-1.896.5.615.84 1.39 1.16 2.186 2.926.117 5.694-1.386 7.972-2.77 2.66-.502 4.618-2.293 6.813-3.79 1.204-.82 2.737-1.117 3.625-2.333 2.035-.817 4.93-1.023 7.103-2.187 3.096.102 6.022-1.16 9.133-2.04-.49-1.063-1.625-1.476-2.03-2.626.102-.535.25-1.108 0-1.602-.862-.54-1.765-1.043-1.883-2.333-.92-.145-1.544-.586-2.175-1.022-2.68.63-5.283.918-8.698.584-1.464-.143-2.864-.533-4.35-.728-2.512-.333-5.63.225-8.117.144-.38.106-.493.476-.87.584-.33-.25-.81-.352-1.45-.292-.804.68.26 4.066-.58 4.81-1.554-.476-2.09-1.977-2.9-3.206-.388 1.015.15 1.9-.578 2.625-1.274-.518-1.463-2.126-2.466-2.915.1-.587-.14-.832-.145-1.313-.516.776.03 1.57.144 2.48-1.513 1.233-2.744-.828-3.48-1.75-.41.702-.23 2.004-1.304 2.04-.488-.577-.988-1.143-1.304-1.895-.466.16.053 1.422-.725 1.604-.786.062-.745-.707-1.014-1.165-.332.2-.466.6-.725.874-.88-.378-1.267-1.253-2.028-1.75-.198.287-.14.833-.29 1.166-1.337-.016-1.448-1.266-2.03-2.04-.423.205-.153 1.11-.725 1.166-1.132-.417-1.644-1.457-2.03-2.625-.357.807-.69 1.638-.87 2.625-.457-.072-.51.262-1.014.145-.157-.96-.836-1.395-1.015-2.333-.3.573-.207 1.54-.724 1.896-.798.072-.664-.79-1.015-1.166-.22.39.03.805-.436 1.166-.874-.238-1.235-.994-1.74-1.604-.442.04-.318.653-.724.73-1.018-.29-1.227-1.392-1.885-2.043-.502.285.178.583.145.875-.112.448-.783.665-1.015.73-.76.037-.806-.647-1.16-1.02-.37.014-.232.543-.434.728-.554.023-.885-.387-1.45 0C.956 29.15-.244 26.652.043 23.478c.15.044.102-.08.145-.146 1.473-2.277 3.882-3.43 5.073-5.977.17-.122.39-.192.725-.146.696-1.05 2.076-1.412 2.9-2.334.845.202 1.59-.225 2.464-.437.413-.102.822-.273 1.304-.584.672.144 1.727.19 2.61 0 .458-.1.733-.44 1.16-.584.945-.314 2.075-.32 3.043-.583 1.087-.295 1.983-.822 2.754-1.313.86-.073 1.467-.21 2.176-.583.258-.136.446-.523.58-.583.354-.16 1.073.242 1.16-.436C28.624 9.45 30.6 8.36 32.37 7.732c5.902-.097 9.294-3.504 14.64-5.103.32-.262.767-.396.87-.875 1.1.42 1.88-.607 2.755-.875.247-.075.58.047.87 0C52.347.744 53.32.052 53.97.005c.92-.067 1.594.54 2.464.73.64.138 1.29-.044 1.884 0 1.992.143 3.98.315 6.09 0 .548.08.652.607 1.013.874 1.12-.465 1.878.617 2.756.874.615-.11 1.36-.37 1.74-.292zM85.717 21c.12-.414-.204-.38-.145-.73.545-.406 1.098-.25 1.595-.145 1.128-1.802 1.487-5.256.29-7.582.013-.23.37-.113.29-.437-1.63-.792-2.614-2.23-4.35-2.915-.672-1.384-2.387-1.752-3.19-2.624-.985.226-1.78-.577-2.898-.875-.496-.13-1.154.013-1.74-.144-.268-.073-.757-.438-1.306-.583-.782-.21-3.15 0-3.914-.876-.063-.072-.355.058-.435 0-.418-.302.02-.916-.434-.874-.518.657.482.75.145 1.166-.793.024-1.038-.694-.58-1.167-1.268.125-3.362.52-3.48-.73-.7.62-.836-.41-1.593-.582-.558-.126-1.133.15-1.74.146-1.585-.006-3.19-.232-4.203-.583-.806.548-1.766-.095-2.61-.145-2.36-.143-4.415.76-5.655 1.457-3.036 1.708-7.06 2.41-9.713 4.374-2.705.3-5.038 1.808-7.683 2.186-1.514.216-2.166.792-3.335 1.166-.566.182-1.226.11-1.74.292-.23.082-.463.33-.725.437-1.723.707-3.238 1.272-4.783 1.75-1.66.515-3.798 1.057-5.074 1.46-.7.22-1.657.177-2.465.436-.334.108-.565.393-.87.438-.48.07-1.073-.22-1.594-.146-2.424.335-4.2 2.103-6.234 3.353v.584c-1.494 1.51-3.263 2.744-4.494 4.52.258.745-.28 1.342.29 2.04.443.008.348-.525.87-.437.236 1.026.98.24 1.595.292-.29.297.065.285.146.582.573-.006.84-.32 1.304-.437.386.293 1.006.35.87 1.166.675.05.807-.45 1.305-.58 2.82.18 6.177.82 9.278 1.455.453-.175.72-.54 1.45-.436.472.19.783.63 1.304.728.323.06.687-.35 1.015-.293.295.053.603.387.87.438.19.037.266-.332.435-.292.284.07.407.38.724.44 1.366.247 3.236-.53 4.35.728-.448 1.123-.157 2.28.29 3.208 1.184-.218.938-1.877 1.595-2.625-.43-.384-2-.264-1.595-1.02 2.33.492 2.97.397 5.51.583v.438c1.862-1.342 3.954 1.442 5.653.294.345.283.75.507 1.304.582 5.167-1.05 9.16.274 14.352-.146.567.644 2.04.376 2.898.73.54.055.38-.59 1.015-.438.348-.058-.08.665.435.438.716-.126 1.096.01 1.74-.584.822.2 1.676.004 2.61.146.19.028.128.253.29.292.25.06 1.042.134 1.45.146.41.01.987.165 1.158-.292-.826-.186.21-.694 0-1.167.935.178.444-.234.725-.582.426.01.54.333.726.583-.386.36.057 1.016-.725 1.168.236-.105.236.687 0 .582-.632-.005-1.31-.053-1.593.292.86.223 2.322 1.446 2.754 0 1.43.165 1.133 2.07 2.755 2.04.103.627.604.853 1.015 1.17-.014-.678-.585-1.347-1.015-1.752-.358-.338-.97-.216-1.16-.728 1.334-.11 2.34 1.33 2.755 2.623 1.206-1.054 3.616-.36 4.93.146-.713.653-1.13-.2-2.176 0-.294.362.46.572-.29.73-.13-.427-.13-.448 0-.875-.617-.01-1.013-.243-1.74-.144-.145.194-.136.542-.434.583.096.673.78.53.435 1.312 1.065-.002 1.93-.77 2.9-1.02.28-.073.537.053.87 0 1.21-.196 2.068-1.212 3.188-.73.04-.96-.535-1.896-.58-2.915-.12-2.74 1.48-6.865 1.885-9.768.408-.513 1.285-.554 1.884-.876-.287-.098-.33-.444-.58-.582.487-.63 1.433-1.57 2.175-1.46-.44.58-1.244.79-1.595 1.46.353.23.544.62.58 1.166-1.058-.17-1.328.756-1.884 1.458.86-.437 1.67-1.313 2.464-1.75.4-.218.967-.855 1.16-.146-.405.128-.716.35-1.16.438-.272.846-1.986 1.013-1.74 1.895.655-.654 1.87-.746 3.19-.73.08-.21.226-.355.435-.437-.297-1.512.927-1.497 1.45-2.186-.478-.21-1.088-.103-1.45.437zm2.9-4.375c-.593 1.527-.148 3.237-1.45 3.937 1.212.088 1.944-2.31 1.45-3.937zM2.07 28.29c-.195-.94.047-1.646 0-2.188-.348-.06-.314.266-.724.147-.33.903.424 1.355.725 2.04zm.58-1.02c.09-.01.173-.024.146-.147-.248-.046.133-.45-.29-.584-.12.17-.19.39-.145.73h.29zm1.16 1.457c.108-.437.006-1.67.58-2.042-.644.065-.767-.395-1.16-.583-.382.91.223 1.984.58 2.625zm1.45 0c-.017-.565-.213-1.45-.145-2.042.02-.177.542-.553 0-.436-.373.69-.356 1.873.145 2.477zm.58.29c.182-.545.137-1.32.435-1.748-.423.036-.5-.277-.725-.44.04.787-.15 1.803.29 2.188zm5.51 28.43c-.493-.768-.22-2.305-.726-3.06-.47.727-.82 1.73-.58 2.77-.62.52-.93-.157-1.594.145-.113-.47-.304-.86-.58-1.166-.22.41-.35.91-.29 1.604 1.53-.142 2.577-.517 3.77-.292zm-3.625.876C8.12 59.44 8.87 59.59 9.61 60.22c.657.557 1.097 1.304 1.74 1.748.604-.034.683.237 1.16 0 .702 1.165 2.112 1.107 3.333 1.02 2.203-.156 4.816.404 6.668.145.556-.077 1.126-.34 1.74-.436.56-.09 1.21-.036 1.74-.146 1.34-.28 2.61-.92 3.915-1.165 1.83-.343 3.66-.426 5.073-1.458 1.105-.186 2.122-.282 3.045-.292 1.37-.016 2.63-.412 3.914-.73.87-.213 1.76-.377 2.61-.582.907-.22 1.72-.778 2.464-1.02.674-.22 1.45-.202 1.885-.44.53-.285.793-.95 1.305-1.165.345-.145 1.344-.18 2.03-.146.697.037 1.46.41 2.32.438 1.14.035 2.026-.018 2.753.146.66.148 1.488.02 2.03.146.375.087.638.412 1.015.438 1.114.074 2.136-.532 3.48-.73.544-.08 1.14.166 1.738 0 .137-.038.48-.373.87-.582.355-.193.91-.285 1.16-.438.135-.082.123-.36.29-.438.626-.29 1.286-.233 1.74-.437.488-.22 1.195-.91 1.884-1.458.654-.518 1.515-.996 2.03-1.458.196-.178 1.13-1.124 1.16-1.167.255-.366.25-1.046.58-1.605.087-.148.43-.246.58-.437.497-.638.654-1.436 1.014-2.33.432-1.076.76-1.62.58-3.21 1.234-.688 1.743-2.17 2.9-3.206.7-.63 1.792-.864 2.318-1.605.246-.346.194-.85.435-1.167-.427-.152-.23-.936-.435-1.312-.697-.075-1.038-.508-1.74-.582-.46.217-.51.848-.87 1.167-2.305.328-5.394 1.16-7.682 2.332-.25.09.01.692-.29.73-.79.82-1.983.578-2.9.875-.895.288-1.856.63-2.9.874-1.737.41-3.593 1.124-5.363 1.458-.58.11-1.166.007-1.74.146-.814.196-1.696.723-2.61 1.02-2.03.662-3.52 1.353-5.217 2.04-1.554.63-2.71 1.157-3.77 1.896-1.616 1.128-3.565 2.228-5.218 3.062-.836.42-1.682.745-2.61.875-2.874 2.292-8.075 2.357-11.597 4.375-.336.046-.557-.024-.725-.147-.885.89-2.035.754-3.334.438-.792 1-1.885.63-2.9.876-.196.047-.034.228-.144.29-.094.055-.322-.134-.29-.144-.37.128-.352.212-.58.29-.98.338-1.53.3-2.465.292-1.77-.018-3.315.696-4.638.73-.094.73 1.04.986.723 1.457-.903-.065-.778-1.162-1.014-1.896-.696-.018-1.304.05-1.596.437-1.49-.386-2.51.187-3.48 0v.293zM8.45 29.31c-.09-1.112.412-1.626.58-2.48-.648-.1-.937-.178-1.305 0 .057 1.013.014 2.125.725 2.48zm.435 31.055v-.293h-.29v.293h.29zm.58-4.375c-.048.34-.175.603-.29.874.404.102.613-.724.29-.874zm0 4.665c.192.723.684.228 0 0zm.29-31.928c.395-.74-.506-.543 0 0zm.87 1.31c.043-1.266.43-2.19 1.014-2.914-.725.078-.823-.32-1.306 0-.092.77-.54 1.974.29 2.915zm1.45 27.12v-.583c-.27.02-.486.095-.58.29.213.076.364.217.58.293zm-.146-28.722c-.175 1.09.443.47 0 0zm.29 27.555c-.362-.138-.044.834 0 .292-.015-.238.24-.635 0-.292zm.144-28.285v-.29h-.29v.29h.29zm1.304 29.597c-.852-.318-.25-1.273-.87-1.894-.202.476-.39.966-.434 1.602.577-.073 1.083.907 1.304.292zm-1.014-27.7c.163-.76.728-1.115.724-2.04-.443.103-.527-.15-.87-.147-.063.826-.264 1.566.146 2.186zm2.03 27.7c-.19-.16-.062-1.38-.29-1.02.15.734-.15 1.017-.58 1.166.443.106.527-.15.87-.146zm.144-26.534c-.294-.093-.095-.682-.435-.73-.064.37.286 1.055.435.73zm.29-.584c.005-.967.75-1.19.87-2.04-.314-.123-.494-.378-1.015-.293-.145.808-.482 1.754.145 2.334zm2.175 26.826c-.067-.512-.63-.282-.87-.436-.83-.538-.75-1.703-.87-2.48-.704.718-.558 2.16-.725 3.063.92-.225 1.4-.314 2.465-.147zm0-27.41c-.176-.26-.027-.847-.29-1.02.105.332-.26 1.138.29 1.02zm.87 1.022c.09-.882.2-1.74.58-2.333-.343-.538-.788-.5-1.305-.585.025 1.19-.04 2.472.725 2.917zm-.436 26.098c.828.438 1.942.174 2.465-.438-1.266.285-1.286-1.64-2.03-2.333-.21.788-.924 1.752-.435 2.77zm2.755-25.078c-.122-.66-.73-1.594-1.015-1.604.425.448.32 1.428 1.015 1.604zm.29-.874c-.35-.735.356-1.81.145-2.333-.11.286-.464-.396-1.015-.146-.343.915.092 2.212.87 2.478zm.87 25.076c.61.692 1.967-.31 2.754-.73 1.134.77 2.5.193 3.334-.437.113.033.17.123.145.293.977-.33 1.984-.63 2.755-1.167-1.375.29-.982-.732-1.45-1.75-.148.787.23 1.802 0 2.188-.577.046-.22-.847-.58-1.02-.38.445.223 1.217-.29 1.312-.973-.09-.95-1.183-1.16-2.04-.372.816-.485 1.727-.725 2.332-.382-.244-.306-.582-.724-.147-.194-.97-.867-1.46-.87-2.624-.793.465-.928 1.594-.87 2.917-.855-.426-.483.493-1.014.728-1.352-.374-1.15-1.43-1.594-2.623-.39.652-.488 1.765-.725 2.915-.192 0-.132-.255-.29-.292v.584c.62.042.958-.203 1.305-.438zm-.435-26.826c.06.35-.265.317-.145.73.438.224.38-.755.145-.73zm1.74 3.208c.023-1.23.156-1.316.29-2.77.144-.31.747-.544.434-.875-.546.115-1.227.256-1.738 0-.38 1.375.124 3.068 1.014 3.646zm-.436 22.89c.08-.516-.12-.75-.434-.875-.007.445.132.742.435.875zm2.176-26.098c-.124.79-.22 1.835.435 2.478-.012-1.13.66-1.573.726-2.624-.36-.222-1.124-.036-1.45-.29 0 .388-.458.316-.435.728.447.11.28-.4.726-.292zm-.145 2.624c-.162-.42-.03-1.137-.29-1.458-.056.54-.253 1.058.29 1.458zm.29.73c-.032-.26.147-.73-.29-.584-.04.333.036.548.29.584zm1.74-3.21c-.455-.02-.498.376-.58.732.377-.06.42-.455.58-.73zm.435 3.5c.037-.25-.273-.862-.435-.436.275.015.1.48.435.436zm3.625.584c.003-1.33.2-3.02 1.304-3.645-1.504.05-1.732-.38-2.754 0 .05 1.52.175 3.033 1.45 3.646zm.434-24.055c-.445.183-1.098.16-1.304.584.4-.096 2.037-.744 1.304-.583zm2.32 43.74c-1.003-.063-.958-1.177-1.595-1.605-.546.617-.927 1.4-1.016 2.478.995-.488 1.8-.34 2.61-.874zm0-44.322c-.686-.01-1.377-.024-1.595.436.547-.13 1.244-.108 1.594-.436zm.58 25.22c-.073-1.593.53-3.237.725-4.08-.845-.28-1.38.02-2.176.436.497 1.203.52 2.88 1.45 3.645zm3.334.585c.014-1.64-.078-3.383 1.015-3.937-.952.256-1.313.13-2.465 0-.056 1.855.442 3.15 1.45 3.937zm17.54 8.747c-1.52.27-3.225 1.13-3.768 1.896 1.103-.786 2.582-1.194 3.77-1.896zm-1.594-12.1h.29c.226-.36-.492-.43-.435-.146.088.008.17.02.144.146zm13.772 3.207c.13-.257.533-.24.58-.584-.432-.202-.887-.172-1.015.292.286-.044.29.197.436.292zm1.305 0c-.44-.413-.905-.192-1.014.438.337.295.612-.354 1.015-.438zm-.29 2.916c.857-.548 1.746-1.064 2.32-1.896-1.033-.015-1.382 1.425-2.174 1.166.328-.836 1.398-.926 1.74-1.748-1.114.385-1.816 1.187-2.32 2.186.17.07.33.157.435.293zm1.306-2.77c-.703-.198-1.443.504-1.74 1.166.022.17-.025.413.145.437.456-.61 1.025-1.11 1.596-1.604zm-.87-1.167c.025-.365-.223-.457-.435-.584-.024.366.224.457.436.584zm2.174 2.625c-.89.418-1.67.944-2.174 1.75.658-.095 1.69-1 2.174-1.75zm-1.015 2.625c.212-1.1 1.614-1.003 1.74-2.188-1.114.24-1.613 1.1-2.32 1.75.228.015.503-.02.436.293-.33-.042-.544.034-.58.29.41.12.376-.205.725-.145zm2.175-1.312c-.513-.214-1.104.594-1.45 1.02.557-.265 1.42-.226 1.45-1.02zm-.58 1.457c.017.15-.625.295-.145.438-.077-.21.566-.356.145-.438zm10.003-15.016c.025.403-.222.5-.435.29.188.363-.323.71 0 .73.06-.34.92-.616.435-1.02zm2.61 12.247c-.156-.544.36-.416.29-.875-.09-.042-.56-.362-.58 0 .118.185.374 1.414.29.876z"/><path d="M18.452 17.646c1.99-1.595 4.187-2.98 6.38-4.374.356.776-1.084 1.01-1.596 1.313-1.498.888-3.174 2.11-4.35 3.206.586-.09.733-.623 1.45-.58-.38.547-1.287.91-.724 1.603-.56-.163-.516.515-.87.145-.147-.6.533-1.278-.29-1.312M40.922 8.753c1.394-.14 3.094-.646 4.784-1.02 1.332-.297 2.64-.75 3.77-1.167.186-.344-.02-.27.144-.73.56-.02.67-.49 1.305-.437.198.186.198.688 0 .874.04.512.54-.365.58.146.437.702-.204 1.4-.145 2.188 1.752.032.258-2.512-.145-3.645.84-.023.767.814.87 1.166.332.635.695 1.243.58 2.33-.215.17-.366.17-.58 0-1.29 1.854-2.588 3.643-4.06 5.396-1.464 1.744-2.016 3.998-3.334 5.977.55.672-.23 1.346-.29 1.75-.05.367.43.343.146.73-1.738.582-3.228 1.418-5.074 1.893.646.567 1.733.242 2.465.438-.168.57-.916.354-1.45.437-1.242.196-4.088.28-5.22-.727-.294.08-.283.438-.578.146-3.832-.863-5.442-3.96-8.554-5.542.126-.564-.243-.63-.435-.875.806-1.135 1.625-2.15 2.61-3.207.31-.332.593-.753.87-1.02.71-.686 1.77-.892 2.32-1.75 2.703-1.203 5.35-2.624 8.408-3.207.09-.018.294-.094.434-.147 1.747-.664 3.148-2.135 4.93-2.48-1.387.892-3.02 1.535-4.35 2.48zm-8.553 4.52c-2.083 1.113-4.005 2.388-5.075 4.518.97.802 2.053 1.977 3.045 2.772.198.16.395.454.58.583.487.342 1.125.44 1.594.73.535.33.79.845 1.45 1.02-.058-.016.4-.165.58-.147.745.085 1.86.39 2.61.438 2.392.155 4.227-.642 5.943-1.458-.38-.747.36-1.17.58-1.75-.488.053-.242-.63-.435-.874.704-.07.38-1.173 1.014-1.313-.11-.72.444-.776.145-1.31.545.11.317-.557.726-.583 1.254-2.773 3.346-4.703 5.22-6.853-.333-.775.114-.984.144-1.75-.542.156-.413-.36-.87-.29-.158.44-.49.63-.87.874-1.338.86-3.585 1.624-5.218 1.896-2.054.34-3.52-.142-5.074.29-.654.183-1.223.638-1.885.876-1.78.642-2.86 1.075-4.204 1.75-.39.374.388.208 0 .582zm-.146 9.62c-.328.026-.637-.7-.87-.29.328-.024.638.7.87.29zm7.103 2.043c.02-.604-1.008-.152-1.45-.292-.268-.396-.944-.62-1.45-.73-.347-.074-1.062-.177-1.014.147 1.196.643 2.302.57 3.914.876zm6.09-16.475c.56-.19 1.22-.346 1.45-.728-1.435.503-3.306.565-4.495 1.312 1.356.06 2.172-.286 3.044-.583zm.434 8.603c.05-1.313.978-1.74 1.306-2.77.86-.74 2.004-1.968 2.174-2.916-2.006 2.245-4.186 5.248-4.784 8.018.498-.714.674-1.75 1.305-2.332zM45.56 52.053c.812-.11 1.874-1.224 2.61-1.895.125.466-.228.45-.29.73.328.377.318-.46.725 0-.592 1.006-2.19 1.003-3.044 1.75-.97-.686-2.45.114-3.333.437.4-1.006 1.965-.843 3.044-1.168 1.236-1.606 3.212-2.72 5.075-3.936 1.463-.953 2.863-2.152 4.494-2.33-.63.624-1.76.825-2.61 1.312-.817.464-1.527 1.118-2.32 1.602-1.605.982-3.37 1.85-4.35 3.5"/><path d="M61.797 20.125c-.694.196-.985 1.062-1.74 1.457-.078.04-.183-.214-.29-.146-1.288.828-2.657 2.65-4.058 2.77-.294.025-.466-.196-.726-.145-1.104.22-1.82.632-2.9.584-.945-.042-1.86-.028-2.9-.29-.73.146-1.11.722-1.883.436-.372-.313.122-.815-.144-1.02-.113-.324-.702.48-1.015 0-.125-.565.355-.52.436-.876-.173-2.757.835-5.863 2.174-7.872.453-.68.874-1.19 1.45-1.895.318-.39.544-.906.87-1.313.345-.432.9-.628 1.16-1.02.637-.964.62-2.52 1.884-3.062.21-.663.47-1.277.87-1.75-.04-.51-.54.366-.58-.145.133-.4.457-.61.87-.73-.192-.554-1.16.518-1.16-.29 1.903-.05 3.438-.932 4.93-.584.17-.217.363-.41.58-.583 3.04-.38 5.855.44 8.697 1.02-.064 1.016-.936.508-1.74.584.024-.362-.227-.452-.29-.73-2.22-.137-4.763-1.137-6.522-.437.952.133 1.824.153 2.9.438.418.356.45 1.102.87 1.458.437-.195.823.217 1.304.29.592.094 1.22-.255 2.03.293.326.222.995.988.87 1.604-.504.116-.558-.218-1.016-.146-.263.485.36 1.14.58 1.604-1.168 3.205-3.03 6.03-4.784 9.185 2.084-1.26 2.986-4.967 4.35-7.436.428.396-.126 1.08-.29 1.46-.413.94-.914 2.017-1.45 3.06-1.338 2.6-3.632 4.957-5.51 7.143.25-.867 1.694-1.795 2.175-2.915zm-8.843-8.602c-2.798 2.72-5.867 6.166-5.073 11.225.528-.092.57.303.58.73 1.12-.23 2.593-.03 3.77.292 1.19-.554 2.906-.577 4.204-1.022.158-.422.463-.7.724-1.02 1.794-.577 2.838-1.908 4.35-2.77 1.565-3.17 3.837-6.303 4.783-9.622-.855-.466-.43-1.038-.433-2.04-1.55-.434-3.623-.343-3.915-2.042-1.302-.29-3.522-.033-4.93-.146.087.46-.532.145-.723.29-.702.538-1.04 2.08-1.16 2.772.125-.214.216-.463.58-.438-1.077 1.106-2.515 1.846-2.756 3.79zm13.772-4.228c-.403.697.476.353 0 0zM69.625 9.044c-.936-.245-.947-1.224-.434-1.895.467-.032.353.52.58.728-.63-.234.284.374-.145 1.166M35.268 57.448c.485-1.034 1.366-2.398 2.61-2.187-.54 1.062-1.68 1.52-2.61 2.188M60.927 45.493c-.14-.705.713.282.726-.146 2.384-.32 3.38-.03 5.653-.146.004.144.178.114.29.147.155.38.352.715.29 1.312 1.234.604 1.45 2.232 2.32 3.207-.253.57-.756.892-1.305 1.166-.346.916-1.158 1.362-1.594 2.186-.817.304-1.372.81-2.174 1.166-.873.388-1.727.398-2.61.73-.125.046-.125.143-.145.292-.855-.084-1.262.284-1.74.582-.404-.37-.81-.74-1.16-1.166-1.73-.03-2.534-1.29-4.348-1.605-.652-.79-.257-1.148 0-2.187 1.438-.93 2.606-3.012 4.348-4.08.562.136.597-.57 1.015-.148-.295-.54.552-.778.58-.875.082-.292-.395-.305-.146-.437zm-4.06 6.998c.222.42-.003.457.146 1.022.978.814 3.014.565 3.48 1.896.56.16.515-.517.87-.147.07-1.22-1.254-1.04-1.74-1.457-1.03-.886-1.258-3.483-.58-4.81-.524.177-1.102.658-1.595 1.02-.49.36-1.205.678-1.16 1.166.193-.206.914-.624 1.16-.293-.445.342-.112.142.145.438-.597.614-1.698.722-2.174 1.458.62.04.716-.446 1.448-.292zm-.144-1.165c-.352.186-1.392.438-1.014.874.196-.344 1.2-.63 1.013-.875zm2.32-3.5c-.75.752-1.748 1.256-2.32 2.188.845-.562 2.477-1.104 2.32-2.187zm1.305.293c-.42 1.617-1.18 3.037-.29 4.665.987.35 1.86-.03 1.884 1.166 2.172-.587 3.818-1.7 5.654-2.625.3-.67.437-1.505 1.015-1.895-.005-1.695-1.897-1.494-2.03-3.062-1.08-.016-1.988-.624-2.898.146-.7-.397-1.343-.377-2.175.145.384.682-.6 1.237-1.16 1.458zm5.218 5.54c-.65.122-1.21.336-1.594.728.677-.096 1.272-.274 1.594-.73zm1.45-1.02c-.216.275-1.172.56-.87.874.113-.38 1.26-.474.87-.875z"/></g></svg>