<svg xmlns="http://www.w3.org/2000/svg" viewBox="0 0 89.525757 53.676346" width="89.526" height="53.676"><title>parasaurolophus</title><g fill="#000" fill-rule="evenodd"><path d="M87.54 5.28c-.282.04-.255-.186-.585-.102.034-.438.62-.29.585.1M86.488 4.874c.02.22-.096.322-.35.304v-.304h.35M85.202 7.71c.087.344-.43.166-.467.404-.386-.152.243-.247.117-.506.094.054.19.105.35.1M84.5 3.862c-.126.396-1.392.163-1.285-.304.62-.064.68.356 1.286.304M83.566 8.114c-.336.182-.365.628-.7.81-.62-.352.497-.47.116-.91.33-.085.303.142.584.1M81.112 8.316c-.47-.266-1.008-.476-1.285-.91-1.037-.154-2.117-.027-3.038-.304-.08-.42.535-.002.7 0 .095 0 .22-.204.233-.203.73.037 1.56.418 2.688.404-.002.543.744.436.702 1.012M80.06 2.444c-.21.013-.246-.124-.467-.1-.02-.222.096-.323.35-.305.092.09.126.228.117.404M79.593 3.254c-.235.525-1.82.086-2.103-.303.943.105 1.125.36 2.103.304M78.54 1.938c-.355.236-.895-.232-.817-.71.52.023.332.658.818.71M74.802 8.418c-.557.01-.64-.39-1.17-.405.185-.375 1.047.087 1.17.405M70.83 7.203c.364.032 1.17.005.583-.203.48-.21.945.462 1.753.304.427 1.004-2.118.45-2.337-.1M73.166 2.546c-.186.566-1.66.494-2.104.506.156-.487 1.394-.246 2.104-.506M71.18 1.533c.053.317-.102.452-.468.405.014-.258.17-.393.467-.405M70.01 4.874c-.198.334-.616.478-1.05.608.134-.39.48-.597 1.05-.608M67.673 4.47c-.13.526-.908.494-1.402.708.176-.697.81-.373 1.403-.71M65.686 3.963v.405c-.366.112-.308.047-.584-.1.08-.202.312-.272.584-.305M59.727 4.773v.304c-.166-.01-.33-.017-.35.1-.16-.03-.097-.253-.117-.404h.467M59.493 7.102c-.11.41-.82.727-1.168.607v-.305c.357.003.69-.167 1.168-.303M57.506 6.393c-1.18.732-2.624 1.236-4.09 1.72.45-.432 1.21-.518 1.87-.81.79-.346 1.406-1.026 2.22-.91M54.585 11.556c-.115.474-.728.517-1.052.81-.227-.408.542-.714 1.052-.81M52.832 32.313c-.424-.004-.237-.537-.467-.71-.288-.417-1.073-.742-.935-1.214.65.482 1.35.92 1.402 1.923M51.43 10.443c-.246-.32.05-1.034.584-1.013.16.29-.382.712-.584 1.013M52.014 7.81c-.107.178-.217.352-.584.304.107-.177.217-.352.584-.304M50.26 25.226h-.583c-.003-.51.487-.59.818-.81.252.38-.183.428-.234.81M45.704 12.873c-.412-.003-1.296.948-1.87.81.936-1.315 2.312-2.25 3.388-3.443.6.648-.874.998-1.168 1.52.002.283.318-.242.233.2 1.695-.69 2.226-2.39 3.74-3.24.022.578-1.046 1.04-1.52 1.52-.494 1.023-1.546 1.562-2.102 2.53-1.186.257-1.57 1.745-2.805 1.622-.015-.35.608-.148.7-.405.404-.192.57-.587 1.053-.71-.02-.253.18-.316.35-.404M49.91 45.78c-.18.82-.6 1.436-1.285 1.82-.19-.263.3-.637.584-.808.046-.5.266-.85.7-1.013M49.794 17.226c-.162.367-.484.594-.82.81-.186-.394.282-.745.82-.81M48.04 47.6c.16-.407-.21-.357-.35-.505-.09-.653.978-.3.7-1.113.32-.074.237.2.47.202-.43.336-.236 1.214-.82 1.417M47.69 36.262c-.07-.5.113-.78.7-.71.265.537-.09.684-.7.71M48.274 24.314c.12.34-.363.158-.584.203v-.405c.373-.087.362.16.584.202M47.34 32.718c-.542.453.045 1.86-.234 2.025-.333-.15-.336-.67-.35-.912-.022-.34.18-.698.116-1.01.104-.08.264-.11.468-.102M47.106 25.53c-.55.51-1.167-.493-1.753-.608.124-.23.354-.368.7-.405.143.315.317.603.936.506.032.176-.374.543.116.506M45.353 34.237c-.29-.296-.13-1.387 0-1.924.544.197-.11 1.675 0 1.924M43.366 18.037c-.086.228-.445.22-.467.506-.593-.153.086-.892.466-.506M41.263 19.15c-.44.428-.86.875-1.402 1.215.086-.685.86-1.257 1.403-1.215M41.263 27.757c.07.363-.136.49-.234.708-.314-.108-.305-.785.233-.708M41.03 14.797c-.644 1.265-2.335 1.622-2.923 2.936-.37-.046-.083-.348 0-.507.494-.927 1.875-1.918 2.922-2.43M40.562 24.72c.035.4-.225.547-.7.506.12-.265.335-.452.7-.507M40.094 35.654c-.033.235-.312.233-.467.102.033-.235.312-.233.467-.102M39.627 48.715c-.594-.093-.678-.628-1.052-.91.423-.162.817.57 1.052.91M39.392 40.11c-.803.146-.274 1.448-.7 1.923-.455.084-.12-.3-.117-.507.006-.54-.122-1.412.35-1.518.24-.204.23.044.467.1M38.925 43.754c.103.325-.303.21-.35.405-.312-.12-.01-.538.35-.406M38.575 14.695c.095.387-.25.392-.468.507-.137.488-.27.98-.817 1.113.235-.614.372-.715 0-1.214.775.166.786-.33 1.285-.405M38.107 39.3c-.572.023-.61-.415-.7-.81.403.122.632.396.7.81M36.94 38.894c-.17-.19-.766-.012-.936-.203.05-.326 1.168-.33.935.204M35.07 48.614c.002.238-.202.298-.118.607-.63-.043-.286-.892.117-1.112.25-.048.222.145.233.304.474-.13.096-.998.7-1.013.064.303-.282 1.53-.934 1.214M35.653 51.246c-.103.657-.655-.098-.934-.202.36-.372.445.35.933.202M32.5 24.72c-.215.477-.842 1.064-1.287 1.012.338-.417.642-.86 1.286-1.013M31.914 36.464c-.442-.066-.473-1.09 0-1.113.038.61.137.53 0 1.114M30.628 45.78c-.53.608-1.853.094-2.57 0 .446-.428 1.43.162 2.57 0M30.628 46.387c-.042.363-.313.37-.116.708-.897.53-2.082-.05-2.688-.405.275-.406 1.008.27 1.402.405.447-.25.907-.81 1.402-.708M30.16 39.603c.173.295-.52.295-.35 0h.35M28.408 28.364v.202c-.29.468-.69.904-1.052 1.317-.347.396-.686.942-1.285 1.113.02-.868 1.33-1.988 2.338-2.632M27.356 31.604c0 .438-.082.806-.584.81-.258-.146.147-.247-.117-.303.073-.308.26-.518.7-.506M27.356 46.387c.064.99-1.57.746-1.636 0 .52-.087 1.1-.014 1.636 0M27.006 40.615c-.375.09-.243-.262-.468-.304.05-.123.15-.207.35-.2.1.117.155.27.118.505M26.422 31.503c-.46.48-.487 1.333-1.17 1.62.243-.668.385-1.423 1.17-1.62M25.253 39.704c-.415.33-.468.867-.468 1.316-.655-.155-.152-1.674.468-1.316M23.383 29.58c.265-.716.592-1.378 1.286-1.722.09.09.124.23.115.405-.855.102-.59 1.177-1.402 1.316M24.2 45.982c-.593.72-1.808.444-2.57.405-.015-.182.143-.214.117-.405.64.204 1.108.315 1.87.202-.036-.137-.292-.084-.467-.1-.064-.508.92-.312 1.05-.102M22.682 25.53c-.373.89-1.456 1.168-1.987 1.923-.25-.452.502-.726.818-1.013.354-.322.626-.874 1.17-.91M21.98 28.77c-.04-.375.292-.424.585-.507.182.187-.088.597-.585.506M21.397 48.918c-.243.515-2.057.896-2.104.1.664.022 1.186.124 2.104-.1M19.293 36.16c.042-.3.186-.513.35-.708-.963.486-1.527 1.393-2.336 2.126-.93.84-2.065 1.547-3.04 2.43-1.293 1.173-2.36 2.452-3.972 3.34 3.52-3.327 7.59-6.18 10.634-9.922.314.12 0 .53 0 .71.188-.03.2.095.35.1-.188.445-.16 1.078-.35 1.52-.587.325-.986.21-1.637.404zm1.402-1.822c-.136.455-.454.753-.467 1.316.618-.017.888-1.024.467-1.316zM18.475 40.615c.204-.518 1.384-.664 1.987-.506-.585.235-1.25.4-1.987.505M16.49 35.047c-2.617 2.695-5.067 5.534-8.065 7.897-.604-.24-.754.32-1.285.102.244-.53.905-.7 1.635-.81 1.41-1.04 2.557-2.308 3.974-3.342.154-.473.47-.807.934-1.012.63-1.017 1.432-1.87 2.337-2.734.744-.71 1.838-1.555 2.455-2.532.417-.66.32-1.61 1.17-2.126.13.703-.693 1.324-.936 2.026.356.136.473-.802 1.05-.81-.867 1.408-2.5 2.152-3.155 3.746-.104.062-.208.122-.233 0-.015-.182.143-.214.117-.405M19.76 51.145c.033.164-.11.175-.116.304-1.402-.077-3.16.392-4.09.404.3-.285.978-.434 1.518-.506.867-.116 1.87-.042 2.688-.203M19.06 47.6c-.613-.042-.502-.712-1.286-.606-.045.376.473.265.35.71-.65-.047-.907-.43-1.168-.81.505.283.46.066.818-.204.708.06 1.094.402 1.285.91M17.307 48.816c-.422.227-.26-.162-.468-.303-.392-.265-1.148-.326-1.053-1.013.355.065.32.465.585.608.44.022.567.318.935.405v.303M16.84 30.49c.02.22-.096.322-.35.304-.023-.22.094-.322.35-.304M15.787 32.718c.02.118-.025.18-.117.203-.803 1.464-2.3 2.326-3.272 3.645-1.16.51-1.8 1.45-2.687 2.228-.665.582-1.348 1.02-2.22 1.518-.51.292-1.01.527-1.402 1.014.06.557.367.897.584 1.317-.923-.15-.996-1.266-.7-1.924.36-.07.224-.07.583 0 .495-.65 1.32-.86 1.987-1.316 2.113-1.45 3.618-3.502 5.726-4.96.327-.73.907-1.24 1.52-1.722M15.32 50.03c-.928.27-2.798.11-3.156-.91.64.653 1.658.82 3.156.91M14.502 48.513c-.347-.105-.847-.077-1.052-.304-.018-.253.184-.314.234-.507h.934c.328.32.175.562-.116.81zm-.585-.405c.068.21.757.126.7-.1-.083-.084-.807-.273-.7.1z"/><path d="M13.567 35.857c-.628 1.345-2.082 1.976-2.688 3.34-.388-.218-.02-.715.116-.91.127-.185.524-.525.818-.81.52-.505 1.16-1.135 1.753-1.62M11.58 35.857c-.368.376-.772 1.193-1.402 1.012-.104-.328.38-.143.468-.305.284-.26.32-.734.934-.708M9.944 40.21c-.293.657-.92 1.026-1.52 1.418.29-.66.858-1.08 1.52-1.418M9.243 39.906c.057.454-.413.453-.468.81-.64-.247-.49.34-1.168.304.42-.48.848-.952 1.636-1.114M8.192 41.12c-.1.657-1.004.617-1.286 1.116-.25-.558.833-.83 1.286-1.115M5.27 49.323c-.017-.285.286-.292.584-.304.433.413-.417.744-.584.303M3.868 44.26c-.36-.318.2-.7.233-1.012-.188-.317-.144.402-.583.203.154-.407.525-.625.935-.81.3.595-.4 1.118-.584 1.62M2.7 44.97v.303c-.286-.057-.602-.087-.585-.405.275-.248.217.15.584.1"/><path d="M22.8 51.854c-2.11.755-4.845 1.345-7.597 1.822-1.508-.355-3.19.146-4.79-.607-1.043.066-1.645-.42-2.573-.406-.272-.473-1.182-.393-1.285-1.013-.844.006-1.243-.74-1.986-.505-.203-.268-.852-.676-1.053-.607-.416-.84-1.743-1.193-1.753-2.126-.012-1.15 1.385-.946 2.688-1.317-1.6-.027-3.306-.658-4.44-1.62-.14-1.638 1.066-2.113 2.22-2.632.643-1.025.97-2.018 1.752-2.835.114-.12.16-.345.234-.405.095-.08.446-.087.584-.203.15-.124.163-.357.234-.405.248-.165.67-.243.935-.405.312-.19.482-.4.82-.506.667-.898 1.887-1.86 2.804-2.733 1.077-1.026 1.692-2.037 3.038-2.632 1.562-1.78 3.452-3.07 5.142-4.76.528-.528.958-1.134 1.52-1.72 1.05-1.098 2.558-2.005 3.972-2.734.725-.374 1.593-.63 2.22-1.113.29-.222.52-.558.82-.81.31-.26.71-.466.934-.71.322-.347.4-.84.7-1.214.135-.166.438-.328.585-.506.985-1.187 2.486-2.005 3.622-3.24.875-.322 1.69-.696 2.922-.708 3.012-1.41 5.602-3.225 8.413-4.86.614-.358 1.13-.798 1.753-1.216 1.166-.78 2.855-1.45 3.973-2.024 1.36-.7 2.977-1.18 4.557-1.823.962-.392 1.915-.77 2.92-1.114 1.04-.355 2.215-.442 3.273-.81.912-.318 1.678-.946 2.57-1.215.84-.253 1.9-.033 2.572-.71 1.136-.018 2.27-.16 3.39-.404.835-.18 1.64-.608 2.454-.708.325-.04.584.1 1.05.1.46 0 .9-.177 1.404-.202.304-.014.602.11.935.102.72-.02 1.47-.257 2.22-.304.497-.03 1.073-.002 1.636 0 2.278.01 5.13.154 6.545.912.96.513 1.4 1.643 2.805 1.518.45.42 1.13.64 1.636 1.013-.238.35.143 1.085.35 1.62-.44.53-.91 1.034-1.52 1.417-.06.593-.32.85-.7 1.418-.705 1.05-.926 1.176-2.454 1.72-.208.075-.72.257-.818.304-.957.463-1.11.733-2.688.507-.145-.02-.297-.18-.468-.203-.095-.01-.26.143-.467.1-.71-.142-1.376-.443-2.103-.606-.74.317-2.11.29-2.337-.405-.488.12-.74-.04-1.168-.204-1.318.39-3.65-.05-5.025.71-1.917-.096-3.614.447-5.376 1.012-1.947.624-3.98 1.463-6.075 2.126-1.547.49-3.23 1.168-4.558 2.025-1.49.96-2.213 2.34-3.506 3.34-.273.842-.644 1.6-.934 2.43.17.29.31.114.818.203.523 1.133 1.44 1.924 2.22 2.835-.62 2.376 1.215 3.076 1.87 4.556.117.263.112.723.234 1.114.18.575.574 1.824.35 3.24-.05.315-.27.7-.467 1.113-.343.725-.733 1.627-1.4 2.128-.928.693-2.168.203-3.156-.405-.275-.545.317-.49.35-1.012-.574-.194-.312.337-.7.304-.004 1.32.648 2.07 1.4 2.734.624 1.836.986 3.543 1.403 5.163.067.26.31.542.35.81.117.77-.59 1.496-.466 2.432.485.33 1.038-.01 1.403.1.82.168.926.954 1.636 1.216-.476.325-.004.47.116.81-.472.425-.804 1.04-1.402 1.518-.26.21-.56.277-.82.507-.475.423-1.492 1.417-1.985 1.62-.41.168-1.104.263-1.637.405-.545.145-1.145.275-1.753.303-.17.09-.452.082-.35.406-.47-.358-1.55.03-2.572.203-1.06.18-1.853.15-2.92.404-2-.39-3.777-.04-5.727-.1-.89-.03-1.87.187-2.687.1-.403-.043-.77-.308-1.168-.405-.613-.15-1.257-.092-1.87-.204-.788-.143-1.55-.496-2.337-.607-1.255-.177-2.424-.06-3.623-.507-.574.102-1.205.608-1.753.405-.033-.164.11-.175.117-.304zm61.7-50.22c-.992-.152-1.882-.393-2.803-.608-.182.147-.456.213-.702.305-.136-.264.36-.435-.117-.404-2.736-.427-5.063-.2-7.712-.102-1.985.073-3.63.504-4.91.81-.94.226-1.875.226-2.686.405-1.237.27-2.41.832-3.623 1.214-.626.197-1.25.293-1.87.507-.582.2-1.157.527-1.752.71-.596.182-1.194.224-1.753.404-4.056 1.302-8.088 3.357-11.336 5.265-.537.315-1.134.477-1.52.91-2.497 1.448-4.97 2.916-7.478 4.354.323.058.655.107.584.506-.725.114-1.425-.564-1.636 0 .204.094.627-.003.584.304-.488.345-.526-.075-1.05-.1-2.537-.127-4.198 2.666-6.195 3.846-.693 1.83-2.538 2.662-3.973 3.848-.294.06-.392.08-.818.203-.062.352-.55.334-.702.608-2.033.802-3.4 2.183-4.557 3.746-.772.41-1.31 1.026-1.753 1.72-.435.03-.8.312-1.052.507-.154.12-.285.263-.467.406-.125.1-.354.302-.468.405-.95.87-1.963 2.134-3.155 3.242-.855.794-1.91 1.43-2.688 2.126-.302.27-.42.654-.7.91-1.055.97-3.77 2.32-4.324 3.342-.195.357-.01.727-.117 1.013-.122.328-.557.875-.818 1.113-.718.66-1.954.74-2.103 1.924.743.436 1.477.88 2.22 1.317.372-.222.932.197 1.636.1.238-.03.23-.273.467-.303.28.57 1.502.202 1.636.506.1.23-.584.246-.235.608 1.004.417 1.725.25 2.922.202.474-.196.47-.806 1.052-.91.07.18-.344.42 0 .505.966-.732.966-1.677 1.05-3.14.145-.383 1.057-.632.818-1.01 0 .1-.205.126-.234 0 1.072-.534 1.805-1.43 2.806-2.026.412-.246.924-.28 1.168-.71.222.19.294.01.584 0 1.554-1.253 2.627-2.922 4.44-3.948.725-1.5 2.31-2.252 2.455-4.253.653-.72 1.063-2.154 1.87-3.04.27-.296.852-.486 1.285-.91.405-.396.636-1 1.052-1.417.26-.262.61-.427.934-.71.316-.273.507-.63.82-.91.125-.113.473-.1.583-.203.155-.145.098-.29.235-.404.514-.432.98-.854 1.402-1.215.288-.247.5-.36.818-.202.046-.175-.173-.26 0-.304.282-.042.254.185.584.102.392-.403.875-.727 1.402-1.013-.033-.704.59-.84.7-1.418 2.525-1.978 5.87-3.738 8.532-5.264.78-.128 1.083-.537 1.636-.81 1.568-.775 3.272-1.31 4.79-2.126.752-.403 1.418-.9 2.222-1.215.845-.332 1.824-.42 2.57-1.014 3.044-.67 6.694-2.23 9.934-2.733.617-.682 1.7-.387 2.687-.608 1.552-.345 3-1.414 4.324-1.214 1.312-.556 2.88-.63 4.207-.708 2.318-.14 4.86.743 7.01.81.243.185.85.592 1.053.202v.405c1.204.02 2.198.59 2.922.708.37-1.17 1.457-1.382 1.168-2.936.07-.006.138-.015.117-.1-1.375-.667-3.118-1.013-3.974-2.128zM61.83 9.43c.92-.89 2.29-1.39 3.506-2.025-2.234.495-4.543.924-6.194 1.924-.03-.143-.256-.117-.35-.204-1.728.78-3.458 1.63-5.26 2.228-6.903 2.297-12.885 5.858-18.112 9.72-.14.926-.93 1.287-1.402 1.924-1.936.044-2.866 1.837-4.44 2.53-.63.81-1.297 1.348-1.988 2.127-.54.608-1.05 1.082-1.52 1.62-.182.21-.307.422-.466.608-1.42 1.648-2.213 3.557-2.338 6.277-.564.12-.84.488-1.636.405-1.152.892-2.155 1.913-3.39 2.734-.203.206.088.198-.115.404-.275.072-.963.306-.702.506.712-.192 1.366-.786 1.87-.405-.165.35-1.317.125-1.52.71 1.236-.092.988 1.1 1.637 1.518.156-.783 1.477-.302 1.285.405.553.04.253-.66.702-.71.668-.213 1.14.417 1.402.406.075-.003.92-.727.817 0 .438.076.255-.387.584-.405.228.207.552.332.82.506.204-.16.242-.466.584-.507.293.083.37.354.584.506.204-.195.137-.624.584-.608.338.045.276.435.584.506.205-.194.138-.623.585-.608.29.12.28.502.468.71 0-.304.21-.426.467-.507.214.417.53.253.818 0 .247.09.203.43.585.404-.03-.33.364-.293.467-.506.252.085.414.25.35.608.482-.09.385-.68.936-.71.22.115.25.393.47.507.165-.26.272-.573.7-.608.306.072.112.578.467.608.184-.18.418-.62.7-.405.43.337.55.943.936 1.316.128-.684-.528-.69-.468-1.316.27-.03.13.292.35.303-.162-1.077-1.16-1.386-2.103-1.82-1.086-.503-2.29-.847-3.505-1.115-1.668-.367-3.306-.096-4.675.203-.515.112-1.315.376-1.752.1 1.72-.744 4.085-.795 5.842-1.01 2.052 1.162 6.21.39 6.428 3.34.047.195.453.08.35.405-.07.243-.168.462-.117.81.276.243.682.53.35 1.013.297.283.807.382 1.404.405.213.838 1.04.926 2.103.81.425-1.285 1.235-2.238 1.87-3.34.387.34.366.21.935.1-.048.244.213.22.116.506.547.043.673.124.936-.202-.1.47.184.106.234.304 1.354.025 2.102-1.013 2.104-1.823-.36.194-.46 1.04-.936.81.138-.724.8-.996 1.286-1.417-.07-1.637-.214-2.584-1.17-3.443-.53.147-.66.642-1.284.71.045-.502.53-.622.935-.81-.135-.222-.023-.656-.35-.71-.607.15-.358.587-.702.81-.013-.19-.386-.07-.35-.303.078-.405.613-.414.7-.81-2.005-.746.236-2.515.352-3.848-1.612.9-2.344 2.56-4.208 3.24-.124-.094-.036-.374-.35-.303-.688.337-1.4.27-1.987.608-.088.05-.168.34-.233.405-.113.11-.27.19-.468.304-.5.28-1.627.65-2.69.607-.522-.616-1.542.015-1.635-.708.252-.097.427-.052.584-.405-.47.002-.325-.528-.35-.91-.6.542-1.482-.105-2.105-.102.025-.29-.03-.515-.233-.607-.918.646-2.485.653-2.805-.404-.22-.725.204-2.663.7-2.43.084-.975.678-1.507 1.053-2.228 1.255-.567 1.748-1.786 2.805-2.53.56-.397 1.196-.56 1.753-1.014.274.322.725-.403 1.285-.1-.11-.468.633-.195.818-.406.12-.507.59-1.012.35-1.52.728-.247.237-1.55 1.17-1.62-.137.192-.552.662-.233.913.274-.3.53-.62 1.168-.607-.515.43-1.105.797-1.636 1.215-.227.783-.192 1.792-.936 2.126.444.092.086.407.117.71.292-.133.486.296.585 0-.118-.002-.147-.18 0-.203.596-.158.916-.556 1.402-.81.12-.494-.106-.685.118-1.012.15-.006.16-.13.35-.1.086.417-.104.912-.117 1.416-.475.03-1.172.398-1.05.608.604-.2 1.21.168 1.634.1.115.615.567 1.03.117 1.823 1.764-.41 1.98-3.075 3.74-2.835-.122.472-1.523.366-1.17.912.484-.38.915-.185 1.52-.405.055.738 1.215.422 1.752.708.24.128.56.56.702.71.342.36.668.768.935 1.214.837-.456 1.3-1.237 2.57-1.317-.944-.53-1.605.27-2.22.202.664-.542 1.447-1.156 2.453-1.113.56 1.118 1.88 2.427 1.753 3.847-.094 1.038-1.162 1.523-1.52 2.43 1.046.004.97.982 1.637 1.316.006.466-.052.99.117 1.316-.136.017-.128.16-.117.303-.03.144-.79.385-.234.406.496.332.136-.78.817-.607-.037.237-.184.38-.117.71.275 0 .345-.176.702-.102.564-.826 1.044-1.727 1.635-2.53.185-2.456-1.103-3.635-1.752-5.367-1.456-.383-.67-2.06-.818-3.34-.662-.575-.947-1.476-1.987-1.722.087-.31-.32-.194-.234-.506-.428.274-.436-.382-.818-.1.018-.252-.06-.422-.234-.508-.398.704.66.513.818 1.013-.42.288-.88-.245-1.05-.204-.272-.75.397-2.14 1.167-2.632.156-1.268 1.406-2.493 2.22-3.24.403-.37.507-.727.817-1.012.632-.58 1.667-1.165 2.455-1.52.312-.14.76.063.818-.404-1.215.4-2.553.69-3.39 1.417-2.095.884-3.868 2.05-5.49 3.342.22.404.36-.203.582.202-.32.33-1.1.797-1.05 1.113.553-.297 1.09-1.144 1.635-1.114.203.344-.44.264-.585.505-.117.197.174.217 0 .405-.604.655-1.866 1.033-1.87 1.924.307-.445.834-.897 1.287-1.316.423-.394.858-1.01 1.4-1.013-.097.357-.693.344-.35.81-.865.668-1.552 1.49-2.337 2.228.95-.267 1.93-2.01 2.92-2.127-.24.365-.693.547-.933.912.137.016.332-.018.35.1-.62.478-1.284.913-1.753 1.52.415-.012.425-.375.935-.304.387.17.54.545.818.81.714-.127 1.484.25 1.753.81-.15.005-.162.13-.35.102-.252-.322-.63-.535-1.052-.71-.195.135-.248.392-.7.305-.005-.323-.1-.84-.7-.91-1.513.56-3.978.973-5.026.506.152.435-.242.397-.468.505-.143-.492-.89-.23-1.052-.707-.13-.38.767-.762 1.052-1.317.193.002.065.28.233.305.067-.21.29-.29.234-.607.83-1.123 2.374-1.556 3.388-2.43.274-.236.456-.544.702-.81 1.183-1.283 2.416-2.596 3.856-3.544.218-.145.365-.352.7-.304-1.045.916-2.32 1.633-3.154 2.733 1.33-1.006 2.796-2.213 4.324-3.038.35-.19.804-.53 1.285-.406-2.377 1.08-4.244 2.6-6.076 4.152.008.214.067.18.232.1.768-.373 1.343-.998 1.987-1.416.808-.527 1.755-.905 2.57-1.317.872-.44 1.724-1 2.687-1.316 1.156-.378 2.645-.87 3.623-1.216.194-.07.495-.03.7-.1 1.058-.36 2.055-.92 3.157-1.216.96-.258 2.22-.472 2.92-.71.683-.23 1.173-.473 1.754-.607 1.314-.3 2.523-.204 3.74-.404 1.1-.738 2.637-.058 3.857-.81.583.575 1.81-.015 2.454 0 .218.183.268.512.352.81.61-.18 1.364.04 1.986-.202.206.092.362.226.468.405 1.043.007 1.79.495 2.804.505 1.453.014 2.518-1.036 3.973-1.215.258-.586.867-.87 1.052-1.518-.65-.206-1.617-.105-2.337-.405-.19-.08-.348-.412-.584-.507-.16-.064-.415.042-.584 0-.186-.046-.368-.28-.468-.303-.23-.052-.582.03-.818 0-.638-.082-1.256-.407-1.87-.506-1.152-.186-2.41-.357-3.272-.303-.268.016-.498-.008-.7.202-.008-.17-.044-.183-.235-.203-.617-.066-2.263.04-2.92.202-1.365.333-3.112.8-4.208 1.113-.088.507.43-.135.466.202-1.662.518-3.416.394-4.44 1.52h-.702c-.047.126-.15.206-.35.2-.317.313-.786.78-1.286 1.115-.448.3-1.268.864-1.52.608-.064-.3 1.304-.604.702-.608zm-6.66 1.013c.137-.05.264-.108.35-.203-.156-.015-.645.16-.35.203zm-1.52.405v.203h.234v-.202h-.234zM41.964 47.6c-.378-.124-.09.33-.467.204-.097-.286.164-.262.117-.506-.435-.04-.306.41-.82.303.16-.233.47-.334.352-.808-.606-.087-.18.72-.818.607-.022-.526.476-.6.35-1.216-.538.284-.52-.175-.35-.506-.478.282-.656.246-1.17.405-.366-.467-1.828-.21-2.102-1.013-.927-.118-.933-.214-1.636-.303.044.56-.664.985-.935 1.518-.26.51-.278 1.03-.818 1.215-.082-.51.21-.696.35-1.012-.137-.016-.33.017-.35-.1.287-.13.808-.578.467-.912-.444.42-.868 1.723-1.52 1.316.503-.612 1.143-1.103 1.52-1.823-.22-.35-.28-.84-.584-1.114-.247.36-.308.88-.935.91-.033-.343-.186-.58-.116-1.012-.718-.047-.513.704-1.17.71-.254-.22-.33-.592-.468-.913-.558.09-.394.808-1.052.812-.178-.184-.42-.31-.35-.71-.434.03-.317.536-.818.507-.155-.17-.31-.34-.234-.71-.56-.048-.256.655-.818.608-.366-.02-.015-.662-.467-.607-.483-.08-.355.368-.818.304-.38-.66-1.194.202-1.753-.303.046.445-.144.686-.585.71-.462-.072-.18-.79-.7-.81-.182.45-.228 1.017-.82 1.113-.305-.073-.11-.578-.467-.607-.128.326-.37.555-.934.506-.32-.553-.856-.454-1.286-.71 4.104 2.44-.543-.19-.116-.303-.647.17-.472 1.124-1.17 1.62-.304.125-.89-.06-.583.303.575-.128 2.35.188 3.04.608-1.204 1-2.4-.506-3.974-.303-.7.09-1.528.756-2.338.81-.412.027-.83-.143-1.285-.203.14.303.126.426-.233.506-.107-.547-.403-.192-.468-.202-.18-.03-.213-.483-.584-.405-.125 2.515-4.705 2.59-6.428 1.316-1.19.404-1.966.444-3.038.607-.244 1.59 2.006 1.253 2.454 2.632.696-.076.86.373 1.285 0 0 .44.685.284.82.606 3.124.125 5.122.293 7.83.304-.46.362-1.283.098-2.104.1-1.906.01-4.24-.068-5.726-.1 2.476.892 5.358 1.5 8.18 1.316.984-.064 2.038-.378 2.57-.405.692-.032.775-.184 1.17-.302.246-.074.556-.038.817-.102.392-.094.616-.144.935-.202.31-.057.387-.338.585-.405-.042.013.213.133.35.1.44-.104.728-.48 1.052-.607.555.067 1.187.216 1.87.1.572-.096 1.062-.482 1.635-.505.775-.032 1.54.437 2.22.1-.013.2.2.507.117.608-.954.03-1.834-.428-2.454.102 1.33-.04 2.087.42 3.272.506.364.44 1.26.304 1.987.405.946.13 1.185.424 1.752.606.754.243 1.33-.048 1.986-.1 1.27-.102 2.723.405 3.74-.305 1.348-.024 2.062.36 3.272 0 1.48.417 2.408-.21 3.506 0 .853-.68 2.338-.602 3.505-.91 1.988-.524 3.064-1.71 4.557-2.734-.353-.632-.076-.99 0-1.72-.21.013-.273-.1-.234-.304-.51.21-1.224.072-1.636-.102.617 1.215-.81 1.43-1.17 2.126-.027-.144-.19-.17-.232-.303.32-.415 1.165-.815 1.168-1.114.014-1.26-.66-3.528-1.052-4.456-.325-.772-.516-1.437-.816-2.025-.18-.353-.835-.725-.35-1.014.913 1.37 1.556 2.972 1.986 4.76.784-.403.246-1.146.117-1.722-.045-.195.03-.41 0-.608-.087-.576-.456-1.1-.702-1.72-.233-.59-.218-1.226-.467-1.722-.393-.78-1.148-1.39-1.403-2.126-.507-1.47.03-2.698 0-4.354.32-.436.663-.787.468-1.418.524-.696 1.274-1.497.935-2.632-.9-.132-.75-1.174-1.636-1.316-.32.092.355.226 0 .405-.8-.017-1.012.473-1.402.81-.16.004-.257-.048-.35-.1-1.092.808-1.55 2.167-2.455 3.137-.168 1.374-1.047 2.13-1.17 3.544.465.138.598.563 1.17.608.718 1.194 1.93 2.307 1.987 3.847.04 1.154-.735 2.143-1.17 3.24 1.322-.078.768-1.292 1.637-1.62-.135.42.245.393.232.708-.575.502-1.105 1.393-1.986 1.316.386 1.22.437 2.383.7 3.848 1.192-.095.38-1.827.82-2.33.644.248-.066 1.335.35 1.925-1.023.16-1.168 1.44-.467 2.025.574-.11.702.404 1.167.506.948.208 1.668-.355 2.454-.405-.884 1.112-3.278.665-4.206-.1-1.805.828-4.178.804-5.843.1-.68-.288-1.413-.894-1.518-1.418 1.006 1.113 3.123 2.135 5.258 1.62-1.807.023-4.052-.244-4.674-1.923.704.807 1.634 1.42 3.04 1.62-.004-.24.2-.3.115-.608-.428-.034-.107.58-.7.405-.056-.32.36-.23.234-.61zM52.95 27.86c.136.32.212.692.467.91-.06-.386-.137-.758-.468-.91zm-1.053-1.52c-.017.252-.022.492.234.507.018-.25-.06-.42-.233-.506zm-1.17 6.785c-.36-.362-.642-.793-1.167-1.012-.232.41-.382 1.42-.117 1.924.332-.387 1.154-.35 1.285-.91zm-.232-2.835c-.085.435.154-.783 0 0zm-1.052-3.443c.18.453.49.792.818 1.114.016-.622-.404-.866-.817-1.115zm-.935-.708c.07.283.84.48 1.052.303-.208-.225-.48-.395-1.052-.303zm-1.87-9.113c-.742.74.268-.02 0 0zm-.467 1.822c-.84.357.355-.15 0 0zm-.7.203c.148-.345.648-.384.7-.81-.36.095-.993.483-.7.81zm.35 8.504c.09.225.068.55.35.608-.058-.253.005-.612-.35-.608zm.117 19.946c-.35.135-.45.488-.584.81.31-.002.688.057.7-.202-.423-.092-.07-.3-.116-.608zm-1.052.405c.602-.086.736-.578.82-1.113-.59.096-.568.724-.82 1.113zm0-27.44c.2.184.46-.03.468-.302-.224.042-.503.036-.468.303zm-2.57 5.267c-.56.325-.647.58-1.17 1.012-.808.67-1.705 1.482-2.22 2.227-.227.33-.486.343-.35.81-1.086 1.12-1.923 2.452-3.506 3.14.386.323.108.95-.468 1.013-.088-.354.587-.562.233-.81-.453.416-1.047.713-1.636 1.013-.15.742.36.965.116 1.518.26.247.74.303.935.608.07-.246.09-.433.118-.91.148-.244.512-.3.467-.71.4.164.77-.447 1.17-.608.157-.032.222-.144.466-.1.485-.6 1.39-.83 1.988-1.318.49-.396.99-1.06 1.403-1.417.12-.105.38-.11.468-.204.504-.524.862-1.292 1.286-1.72.752-.762 1.414-1.423 2.22-2.026.35-.134.893-.103 1.402-.1.103-1.01-1.937-1.015-2.92-1.418zm2.22 20.857c-.08.504-.487.725-.468 1.315h.468c-.028-.6.73-1.052.584-1.417-.107.176-.41.262-.585.1zm0-26.53c.33.017.293-.285.467-.404-.297.013-.453.148-.467.405zm.117 2.43c.613-.682.063-1.435-.234-2.125-.543.036-.577.94-1.168.608.12-.405 1.02-.665.7-1.114-.74.843-1.578 1.6-1.986 2.733.877.31 1.447.086 2.688-.102zm-.117 20.656c-.376-.09-.16.334-.468.305-.324-.826-1.76-.207-2.337-.506.018.44-.366.222-.584.607.13.462.616.614.935.913 1.347-.43 1.172.678 1.87 1.215.058-.343.612-.197.468.203h.467c.196-.57-.165-2.186-.35-2.734zm.117 5.266h.35v-.304c-.255-.02-.372.083-.35.304zM43.482 31.2c.775-.578 1.65-1.805 1.286-2.735-.38.887-1.277 1.862-1.285 2.734zm-1.868 1.316c.508-.358.74-.916 1.05-1.418.53-.86 1.086-1.61 1.403-2.532.24-.095.557-.125.585-.404-.137-.018-.127-.16-.117-.304-.703 0-.585.708-1.17.81-.635 1.777-2.396 3.12-2.57 4.96.388-.27.746-.568.82-1.112zm1.752 15.794c-.01-.16.016-.35-.234-.303h-.35c.048.244-.213.22-.117.506H44.3c-.004-.14.056-.223.118-.304-.37-.2-.5.033-1.052.1zm.117-1.62c-.106.224-.503.825.117.81.223-.212.377-.483.467-.81h-.584zm-.117-26.527c-.033-.178.55-.314.234-.405-.035.12-.618.254-.234.405zm-.35 27.438c-.188.283.504.28.467.103-.22.022-.258-.114-.467-.102zm.234-16.705c.337-.587-.29-.266 0 0zm-2.338-8.81c.026.193-.132.225-.117.406.515-.13.48.007.82.204.26-1.055 1.004-1.694 1.635-2.43-1.098.14-1.497 1.99-2.338 1.822zm1.636 25.112h.234c.006.06.018.12.117.1-.08-.377.575-.64.232-.91-.14.316-.504.44-.584.81zm.35-1.72c-.826.058-.967.712-1.168 1.315.466-.137.304-.817.935-.81.33-.02.293.398.467 0-.242-.026-.03-.445-.233-.506zm-.467-13.366c.122-.27.755-1.05.47-1.012-.187.247-.64.79-.47 1.013zm-3.388 1.823c.6-.108.57-.202 1.17-.202.28-.418.34-.97.583-1.417.542-1 1.66-2.147 1.753-2.734-1.215 1.41-2.806 2.495-3.506 4.353zm3.39 13.466v.2h.233v-.2h-.234zm-.234-.406c.297.045.465-.53.233-.607.032.296-.263.31-.232.607zm-.234.203v.202h.234v-.203h-.234zm-.7-.71c.41-.013.332-.453.466-.708-.343.073-.492.314-.467.708zm0-3.948c.2.004.298-.08.35-.204-.202-.005-.3.078-.35.203zm-.118 3.037c.385-.004.446-.288.468-.608-.604-.098-.63.303-.468.607zm-.234-1.114c-.365.026-.594.693-.35.91-.004-.392.66-.568.35-.91zm-2.92-10.125c.97-.102.9-1.11 1.4-1.62-.765.28-1.15.893-1.4 1.62zm-4.442-7.796c-.225-.197-.47.106-.818.1-.788 1.227-2.786 2.143-3.04 3.747-.034.238-.404.187-.35.505.414.047.64.256.936.405 1.132-.13 1.612-.904 2.454-1.52 1.645-.024 2.182-1.01 3.038-1.72.068.246.442.225.7.304.484-.146.675-.45.82-.71.035-.063.316-.05.35-.1.18-.268.42-.792.117-.91.015.18-.116.236-.35.2-.133-.285-1.66.22-1.754-.606-.387.032-.718.015-.818-.203-.25.323-.994.22-1.285.507zm3.74 2.53c-.525.678-1.172 1.592-1.286 2.228.888-.782 1.54-1.77 1.987-2.936-.358.062-.493.44-.7.71zm-.35 5.772c.376-.116.975-.567.7-.91-.226.245-.827.696-.7.91zm0-15.29c.2.007.3-.077.35-.2-.2-.006-.3.077-.35.2zm-2.22 12.657c.598-.368.97-1.036 1.4-1.72.34-.536.64-1.128.82-1.52-.883.958-1.588 2.07-2.22 3.24zm1.167 3.14c.408-.055.885-.578.7-.81-.275.233-.585.437-.7.81zm-2.454-2.33c.967-.26 1.166-1.22 1.636-1.922.495-.742 1.137-1.455 1.285-1.924-1.185 1.1-1.946 2.567-2.922 3.847zm.585-1.72c-.03.03-.212-.032-.234 0-.377.533-.784 1.21-.818 1.72-.08-.335.24-.162.35-.1.666-1.448 1.845-2.452 2.57-3.847-1.116.37-1.176 1.497-1.868 2.227zm1.402-6.074v.303h.35v-.203c-.15-.006-.16-.13-.35-.1zm-.35 10.53c.245 0 .606-.407.35-.507-.036.238-.406.187-.35.506zm0 9.213c-.088-.312.32-.196.233-.507-.29-.07-.495.432-.234.506zm-.936-3.04c-.353.134-.33.592-.584.81.438-.216.353.196.935.103.04-.336.193-.848-.35-.912zm.35 1.52c-.28-.04-.253.185-.583.1.182.316.113.85.468 1.014.094-.31.368-.822.117-1.113zm-2.102-4.05c.076.312.668.43 1.05.608.335.156.914.684 1.053.303-.612-.38-1.195-.786-2.103-.91zm.7-8.2c-.602.637-.712 1.936-1.52 2.024.265-.65.794-1.07 1.053-1.72-.997.153-1.918 1.76-.818 2.227.15-.005.162-.13.35-.1.252-.936 1.34-1.917 1.87-2.937-.34.053-.707.265-.935.506zm-.583 0c.247-.258.75-.295.816-.71-.595-.107-.86.6-.817.71zm.7 10.53c-.475.162-.564.66-.7 1.113.264-.074.91.182.816-.202-.42-.065.032-.485-.117-.91zm-.468 1.72c.142.18.02.59.234.71.023-.318.462-.275.35-.71h-.584zm-1.402-.71c.488-.05.79.058 1.052.204-.12-.403-.355-.898-.35-1.113-.375.183-.495.585-.702.91zm-.468.508c.457.11.342.716.7.91.04-.405.447-.49.585-.81-.63.204-.97-.366-1.285-.1zm-.117-10.327c.436-.232.96-.92.818-1.316-.202.5-.703.74-.818 1.317zm-.818.203c.687-.148.735-.848 1.17-1.215-.713.125-.845.754-1.17 1.215zm.7 8.91c.05.244-.212.22-.115.506h.467c-.014-.26-.215-.355-.352-.507zm-1.05 1.316c.31.035.105.515.35.606.294-.218.436-.567.7-.81-.272.002-.71-.06-1.05.203zm.584-11.34c-.873.018-.94.736-1.285 1.214.834.345 1.235-.892 1.286-1.215zm-.583 10.124c-.067.212-.29.29-.234.607.22.024.257-.113.467-.1.018-.25-.06-.42-.233-.506zm-.234-10.428c-.116.475-1.054.77-.7 1.315.048-.52 1.172-.995.7-1.314zm-.585.405c-.158-.35.526-.477.117-.71-.03.187-.42.57-.117.71zm.117 11.34c-.09.023-.23.003-.233.1.154.003.107.18.233.204.046-.144.14-.17 0-.303zm-.35-.91c.39.187.492-.365.233-.406-.06.15-.172.255-.233.405zm-.584-.61c-.365.056-.42.38-.467.71.282-.04.254.185.585.1-.19-.364.02-.488-.117-.81zm-1.635.913c.24-.062.812.163.7-.202-.275-.07-.74-.232-.7.203zm.35-.912c-.037.138-.166.195-.117.406h.35c.034-.23-.027-.38-.233-.405zm-1.168.913h.467c.08-.4-.492-.332-.467 0zm.233 8.302c.01-.16.298-.08.234-.304-.24-.087-.525.264-.234.305zm-.233-9.112c.005.14-.055.222-.117.303h.35v-.202c-.117 0-.14-.082-.233-.1zm-1.052.1c-.433-.07-.292.356-.468.508h.585c.096-.286-.165-.262-.117-.506zm-.7 1.216c.306-.03.09.392.466.303-.025-.192.133-.224.118-.405-.138-.13-.44-.043-.584.1zm-.352-1.216c-.592-.04-.336.685.117.607.085-.308-.12-.367-.117-.606zm-.35-7.087c.162-.13.07-.48.233-.608-.296-.046-.465.528-.234.607zm-.7 8.302c.058.25-.005.61.35.606-.086-.31.2-.297.116-.607h-.468zm-.586-7.088c.283.1.517.133.7-.203-.248-.218-.635-.04-.7.202zm.468 5.974c-.022.702-.54-.003-.702-.102-.098.118-.153.272-.116.507.517.195 1.404-.057.818-.404zm-2.455 1.012c.554.142 1.055.54 1.637.91.22-.246.446-.49.583-.81-.756-.07-1.614-.13-2.22-.1zm.117-1.417c-.275.426.186.4.117.81h.468c-.027-.416-.29-.626-.585-.81zm-.7 3.95c.258.01.95.5.934.1-.17-.096-.763-.34-.934-.1zm-.585-3.04c.034-.636-.43-.842-.467-1.416-.35-.068-.623-.203-.818-.405-.16.347-.57-.04-1.052 0-1.88 1.17-3.8 2.308-4.207 4.758.433-.022 1.874-.083 2.57 0 .94-.66 1.962-.627 3.04-1.114.138-.655 1.09-.608.934-1.518.255.018.372-.084.35-.305h-.35z"/><path d="M60.895 10.038c.207-.19-.452.434-.7.506.193-.203.313-.47.7-.506M59.376 11.05c.246-.15-.836.518 0 0M43.016 51.246c-.138.51-.8-.06-1.052-.1-.308-.03-.302.21-.35.404-2.035-.46-4.14-1.03-5.143-2.632.93.68 1.79 1.42 2.922 1.923.254.02.054-.358.118-.505.357-.005.595.092.7.304.308.03.093-.394.47-.305.71.362 1.515.643 2.336.91M28.642 23.403c1.17-.235 1.53-1.172 2.337-1.722-.23.983-1.383 1.167-1.637 2.128-1.62.96-3.22 1.935-4.674 3.037-.073-.704 1.165-1.148 1.635-1.72.996-2.076 3.556-3.09 4.908-4.962.27-.374.372-1.132 1.052-1.114-.316.468-.713.867-1.052 1.315.918-.52 2.256-1.555 3.272-2.328.055.715-.9.845-1.403 1.214-.937.693-1.803 1.88-2.804 2.736-.597.508-1.253.72-1.636 1.417zm-.7.304c.262-.45 1.165-.877 1.05-1.316-.227.48-1.18.867-1.05 1.317zm.466.1c.41-.41-.376-.238 0 0zM4.57 44.868c-.07.328.078.47.116.71-.2.02-.303-.174-.35 0 .04-.082-.344-.76.233-.71M63.7 4.672c.572-.28 1.017-.672 1.636-.91-.813.71-1.73 1.335-2.688 1.922.317-.873 1.12-1.325 1.753-1.923-.428.1-.7.338-1.167.406.088-.537-.306-.096-.468-.304.378-.818 1.695-.475 2.337-.405-.468.404-1.017.738-1.402 1.215M27.707 36.262c-.287.52-.604-.24-.818-.405-.353.22-.464.346-.82.1-.305.242-.563.524-.7.912-.233-.002-.15-.277-.468-.203-.02-.254.263-.246.35-.405-.05-.125-.15-.208-.35-.203.273-.88.908-1.442 1.052-2.43.443-.008.666.535.818.81.324.583.45 1.36.935 1.822M11.697 50.436c-.285.59-1.334.338-2.103.102.196-.33.298-.327-.117-.507.15-.376 1.457.357 2.22.406M8.892 44.868c-.047.346-.315.13-.117.506-.947-.01-1.197.974-2.337.91-.312-.282.11-.5.117-.808.788.19 1.244-.73 2.337-.608"/></g></svg>