<svg xmlns="http://www.w3.org/2000/svg" viewBox="0 0 89.424004 77.848946" width="89.424" height="77.849"><title>triceratops</title><g fill="#000" fill-rule="evenodd"><path d="M70.74 1.412c.205.046.27.234.54.217-.192.348-.21.55-.108.98-.329.157-.552.017-.54-.436-.46.044-.458.555-.972.544.095-.702 1.003-.586 1.08-1.306M72.36 4.786c-.066.097-.13.194 0 .217-.25.04-.103.477-.432.436-.03-.394-.027-.754.432-.654M76.572 5.003c.033.505-.19.753-.648.762-.048-.097-.095-.194-.216-.217.07-.38.553-.75.864-.545M21.276 15.996c-.27.386-.927 0-1.512.218.377-.535 1.03-.467 1.512-.218M30.672 17.846c-.423-.108-.627.24-.864 0 .114-.295.842-.5.864 0M21.708 18.064c.32.04.548.173.756.326.1-.24.475-.487.756-.217.017.27-.17.336-.216.544-.622-.026-1.332.036-1.296-.653M29.052 19.696c-.386.408-2.18-.085-2.16-.435.445.013 1.586.198 2.16.436M27.324 20.894c.373.388 1.237.48 1.728.435-.305.657-1.983.11-1.728-.436M36.504 22.2c.275.013.42.158.432.435-.362.074-.395-.182-.432-.435M34.992 22.308c.204.013.075.36.324.327-.15.15-.533.235-.648.11.032-.223.216-.29.324-.437M41.688 24.812c.623.315.872 1.008 1.188 1.632-.655-.283-.86-1.02-1.188-1.632M36.828 26.118c.452.09.314.772.864.762-.465.355-.963-.188-.864-.762M46.008 26.227c.232.092.382.268.324.653-.498.067-.62-.245-1.08-.218 0-.644.632 0 .756-.435M38.772 29.6c-.018-.235.383-.05.54-.108-.098.188-.378.28-.54.11M39.852 29.492c.272.044.496.372.324.544-.324.008-.548-.32-.324-.544M41.364 29.927c.087.058.176.113.324.11.096.396-.19.578 0 .76.338-.14.056-.224.216-.543.445.085.554-.167.972-.11-.364.468-.903.76-1.188 1.307-.396.03-.196-1.1-.648-.652-.4-.375.338-.524.324-.87M39.204 30.798c.598-.022.787.367 1.188.544-.153.335-1.114-.106-1.188-.544M81.54 31.56c-.975.505-2.583.372-3.132 1.306 1.202.237 1.525-.2 2.484.217-.474.345-1.343.014-2.052.327-.463.204-1.133.386-1.62.544.495.34 1.25-.045 1.404.762-.77-.117-.962-.24-1.728-.435-.82.226-1.25.844-2.16.98.997-1.064 2.998-1.115 3.456-2.72.88-.514 2.154-1.14 3.348-.98zm-3.24 1.85c0-.18.3-.06.324-.218-.22-.093-.595.17-.324.218zM77.112 32.974c-.158.35-.66.35-1.08.436.176-.33.744-.266 1.08-.436M48.816 33.192c.194-.014.228.133.432.11-.423.733-.407 1.91-.972 2.502-.34.052-.422-.155-.648-.217-.358.4-.693.825-1.296.98.367.21.543.612 1.188.543-.18.723.24.995 0 1.415.156.152.792.794.864.327.028.334.503.218.432.652-1.326-.02-1.688-.764-1.62-1.958-.28-.263-.818-.265-.864-.763-.255.143-.747.047-.972.218-.2.724-1.393 1.63-2.268 1.634.16-.525.83-.494 1.188-.762.443-.33.584-.7.864-1.197 1.103-.16 1.838-.688 2.268-1.524.128.163.408.17.54.328.784-.262.683-1.417.864-2.286M86.292 33.736c.03.392-.2.525-.216.87-.128-.16-.408-.168-.54-.325.092-.342.416-.45.756-.544M1.944 40.05c.334.1 0 .816.216 1.087-.538-.082-.256-.933-.216-1.088M84.348 41.354h.324c-.01.686-.01 1.26-.648 1.525.116-.57.287-1.177.324-1.526M3.456 42.443c.185.358.286.8.324 1.306-.48-.152-.39-.886-.324-1.307M54.864 43.64c-.773.054-.92-.524-1.512-.652-.033-.132.312-.376.324-.11.397.253.953.347 1.188.763M50.328 43.64h.324c.05.858.843.965 1.08 1.633-.906-.102-1.1-.924-1.404-1.632M6.156 44.185c-.345-.015-.826.107-.756-.327.128-.097.807-.09.756.327M7.236 45.164c.11.328-.24.193-.432.218.026-.192.186-.25.432-.218M9.72 45.164h.324c-.012.423-.55.71-.108.98-.016.27-.365.032-.432 0-.492.374-1.012.72-1.62.98-.107.798-.435 1.375-1.296 1.414-.005-.598-.294-1.042-.108-1.524.364.032.738.055.972.218.293-.14.31-.557.648-.653-.43-.294-1.277-.165-1.62-.545.18-.467 1.598.334 2.052.435.295-.1.46-.334.756-.435-.044-.21-.418-.086-.324-.435.282-.172.82.247.756-.436zm-2.808 2.83c.364.33.328-.403 0 0zM3.672 45.382c.297.39.747.626.864 1.197-.396-.292-.816-.557-.864-1.198M54.972 45.817c.14.15.47.108.756.11.092.824-.51.614-.972.434-.093-.346.17-.335.216-.543M47.952 46.144c.44.317.69.828 1.08 1.197-.45.482-1.215-.758-1.08-1.196M46.872 46.58c.488.632.808 1.434 1.296 2.067-.927-.19-.914-1.328-1.296-2.068M73.116 47.014c.532.516.296 1.806 1.296 1.85.087-.63-.917-.62-.648-1.088.65.505 1.7.608 2.484.98-.34.377-.905-.034-1.404-.11-.22.177.005.804-.216.98-.422-.01-.337-.53-.756-.544-.21.76 1.192 1.615.756 2.286-.49-.103-.494-.935-.864-1.633-.183-.344-.608-.446-.54-.87h.432c-.347-.448-.53-1.06-.756-1.633-.34-.15-.652.27-.756 0-.042-.44.673-.12.972-.218M67.5 47.56h.324c.09.582.193.476.324.978-.653-.09-.575-.49-.648-.98M82.404 47.56c.295-.08.217.215.432.216-.2.16-.162.563-.54.545-.3-.3.097-.454.108-.76M62.856 47.885c.486.038.313.326.432.544.2.27.686.252.648.76-.51-.174-.837-.533-1.296-.76-.017-.272.17-.338.216-.545M61.128 49.19c-.244.062.13.17-.108.327-.374.077-.387-.38-.216-.543-.165-.153-.466-.403-.216-.653.268.493.948.57 1.08 1.197-.363.076-.354-.223-.54-.326M49.032 48.647c.554-.014.866.216.972.653-.6-.143-.997-.064-.972-.653M81 49.19c.39-.102.15.43.216.654-.52.088-.87.825-1.296.653.19-.607.9-.69 1.08-1.306M40.284 50.28c.11.37-.176.943-.432 1.306-.27.384-.805.94-1.296.98.018-.128.197-.093.324-.11-.056-.16-.16-.274-.216-.435-.314.084-.28.517-.756.436.055-.734.645-.905 1.296-.762.485-.346.716-.947 1.08-1.414M10.26 51.368c-.682.8-1.612 1.35-2.376 2.068.06-.597 1.123-1.2 1.728-1.633.204-.146.355-.45.648-.435M69.876 51.694c-.012.28-.06.52-.216.654-.402-.03-.5-.367-.648-.654.175-.177.452.098.864 0M36.936 52.674c.572.42-.868 1.234-1.188 1.633-.298.018-.37-.168-.216-.327-.678.196-1.068 1.11-1.188 1.524-.392.014-.13-.586-.108-.653.167-.5.962-1.048 1.188-1.414.29-.075.21.225.324.326.546-.21.822-.695 1.188-1.088M76.788 55.068c.31.257.573-.07.864.11.086.605-.966.232-.54.87-.91.242-.898-.088-1.62 0v-.435c.757-.092 1.082-.02 1.296-.545M4.428 59.313c.377.09-.094.698-.108 1.088-.012.343.226.562.108.872-.54-.35-.238-1.304 0-1.96M6.048 60.075c-.366.343.398.604.108.87-.413.09-.127-.524-.54-.435.128-.162.094-.486.432-.435M7.776 60.4c-.083.41.132.522.108.872-.335-.02-.67-.915-.108-.87M5.076 61.6c.117.285.502.865.324 1.087-.41-.057-.3-.64-.324-1.088M6.804 62.687c.477-.01-.016.96.648.762-.18.43-.29.222-.648.107v-.87M30.456 69.76c-.28.767-1.266.863-1.944 1.2-.713.352-1.403.727-1.836 1.305-.072.762.31 1.065.54 1.523-.067.258-.145.507-.432.545.12.497.437.793.648 1.197.168.302.677.26.648.762-.848.007-1.323-1.27-1.836-1.96.02-.306.188-.463.54-.435-1.233-1.782.29-2.576 1.728-3.265.496-.237 1.07-.337 1.404-.544.144-.09.126-.438.54-.327M25.164 71.176c-.032.327-.844.145-.972.11-.788-.227.407-.304.972-.11M24.84 71.938h-.864c-.098-.505.82-.3.864 0M21.168 72.155c-.472.077-.608-.185-1.08-.108.086-.38 1.08-.27 1.08.108M19.116 72.482c.302.168.838.1.864.544-.372-.096-.797-.14-.864-.544M22.68 72.81c.44.136.835.32 1.188.543-.236.418-1.086-.134-1.188-.544M25.704 73.57h-1.08c.138-.345.99-.48 1.08 0M23.004 74.986c-.263.3-1.25-.357-1.512-.762-.447-.058-.86-.15-.972-.544.88-.04 1.63.96 2.484 1.306M24.084 75.747c.516.025 1.134-.054 1.08.545-.35-.193-.892-.19-1.08-.545"/><path d="M37.692 31.45c-.418-.775-1.215-1.17-1.944-1.632-.813-1.575-2.167-2.605-3.024-4.136-4.03-.277-6.062-1.926-8.964-3.374-1.06-1.253-3.152-1.467-3.888-3.047-.963-.552-1.825-1.207-2.376-2.176-.57-.208-1.324-.627-1.728-1.197-.237-.335-.278-.89-.54-1.306-.41-.65-1.18-1.157-1.512-1.74-.187-.33-.405-1.03-.54-1.415-.12-.345-.72-1.45 0-1.85.906.538 1.343 1.55 2.592 1.74.395.963 1.778 1.12 3.024 1.416 1.29 1.307 3.568 1.45 5.508 1.85 1.377.613 2.793 1.164 4.32 1.634.053.016 1.743-.074 1.944 0 .79.29 1.857.532 2.484 1.088 1.44.18 2.287 1.06 3.564 1.74 1.385.74 2.787 1.246 4.212 1.96 1.567.786 2.957 1.846 4.104 3.048.79.11 1.616.823 2.268 1.088.27.11.642-.066.648.218.153-.01.306-.018.324.11.58-.182 1.16.093 1.728.108.19.004.236-.2.432-.218.183-.018.577.095.864.11.463.02 3.017.55 3.348.216.198-.2.87-.183 1.188-.653 1.935-.306 3.402-1.518 4.644-2.83.473-.5.81-.903 1.296-1.415.8-.846 1.602-1.882 2.268-3.048.102-.178.37-.303.432-.435.08-.173.06-.633.108-.762.283-.752.745-1.598 1.08-2.503 1.307-3.524 2.468-7.042 2.592-10.23.298-.747.233-1.553.324-2.83C69.02-.306 71.392-.23 72.36.65c1.503.08 2.39.786 3.456 1.306.107.776.714 1.337 1.296 1.306.33.668.992 1 1.62 1.415.828.548 1.507 1.363 2.376 1.96.462 1.27 1.143 2.542 1.404 3.7.63.985 1.115 1.63 1.944 2.503.277.292.337.656.648 1.197.31.54.72 1.062.864 1.85.22 1.19.158 2.518.54 3.81.216.727.583 1.366.648 2.067.063.69-.007 1.447.324 2.177 1.37 1.913.92 5.398 1.836 7.293-.05.354-.12.722-.108 1.088.008.282.02.795.216.872-.018.128-.197.092-.324.11-.19 1.32-.846 2.483-1.08 3.808-.056.315-.067.68-.108.98-.314 2.28-1.35 5.105-1.944 7.618-.34 1.44-.888 2.577-1.404 3.92-1.26 1.504-2.88 2.266-4.104 3.917-.274.37-.458 1.344-.756 1.85-.68 1.153-1.854 1.662-2.7 2.72-.438.067-.747.264-1.08.436-.563.042-1.003-.324-1.404-.543-.365-.2-.88-.343-1.08-.762-1.316-.548-3.2-.816-4.536-2.068-.382-.358-.574-.87-.972-1.197-.414-.34-1.138-.836-1.62-.98-1.18-.353-2.864-.034-4.104-.435-.598-.193-1.102-.696-1.62-.762-.748-.094-1.232.015-1.728.545-.174.185-.622.6-.54 1.197.077.555.34.43.648.87-.077.89.18 2.797-.324 3.592.222.247.21.2.648.327-.09.663.764 1.175.864 2.067.118 1.055-.426 1.97-.864 2.722.028.335.234.49.324.762-.16.98-.476 1.217-.54 2.177-.676.01-.447.93-1.08.98-.037.754-.402 1.116-.756 1.742-.68 1.202-1.246 1.913-2.484 2.83-.683.504-1.422 1.218-2.052 1.523-1.003.487-2.06.268-3.132.436-1.08.17-2.084.805-3.348.654-.836-.1-1.362-.816-2.268-.11-.916-.127-1.718-.234-2.592 0-.87.234-1.314 1-2.16 1.09-1.125.12-2.542.26-3.672.108-.364-.048-.673-.307-.972-.326-.334-.022-.688.132-1.08.108-.274-.016-.67-.242-.972-.218-.228.02-.515.5-.756.218.176.71-.23 1.13-.216 1.96-1.408 1.05-5.382.952-7.452.326-.43-.107-.325.325-.756.217-1.485-.462-2.353-1.547-3.78-2.067-.503-.51-.974-1.05-1.728-1.306-.76-1.523-2.953-2.172-2.484-4.57 1.137.305 2.372.51 3.132 1.196.585-.31 1.125-.134 1.836-.218 1.33-.158 2.623-1.017 3.996-1.198.31-.04.676.078.972 0 1.152-.302 1.394-1.645 3.132-1.305.397-.182.58-.577.864-.872 1.252.223 2.124-.525 2.916-1.088-.124-.305-.124-.566 0-.87 1.403-.98 3.252-1.178 5.076-1.525.624-.118 1.273-.246 1.728-.653.84.048 1.238-.348 1.944-.435.22-.287.62-.39.864-.653 1.453.195 1.98-.543 2.7-1.088.286-.315.686.313.972 0-.046-.708-.66-1.416-1.188-1.96-.157.205-.355.368-.54.545-.47-.177-.882.338-1.296.436-.805.19-1.788.076-2.7.218-.924.143-1.805.66-2.592.762-.247.032-.62-.11-.864-.11-1.528.01-2.926.78-4.428 1.09-.69.14-1.336-.092-1.836.435-.4-.49-.695-.444-.756-1.197-2.144-1.635-4.358 1.357-6.588 0-1.07.084-1.955.35-3.024.436-2.003 1.434-6.477 2.718-9.396 1.196-.146.396-.2 1.093-.54.98.25.8.675 1.423 1.188 1.958-.54.916-1.994.814-2.808.654-1.752-.347-3.358-1.677-4.104-2.83-.007-.287.252-.367.108-.653-.875-1.27-1.155-3.256-1.188-4.898-.014-.71-.08-1.656 0-2.177.023-.147.174-.023.216-.11.072-.144.207-1.255.324-1.74.67-1.196 1.293-2.947 1.62-4.136-.454-.63-1.098-1.07-1.404-1.85-.303-.13-.415-.452-.756-.544-.346-1.15-1.362-1.674-1.728-2.83-.188-.595-.1-1.267-.216-1.96-.225-1.345-.65-2.743-.756-4.135-.05-.68.093-1.31-.216-1.85.247-.02-.04-.424.432-.653.488.198.648.725.756 1.306 1.197 1.877 3.13 3.013 4.428 4.79.844.24 1.34.508 2.052.87.668.338 1.175.17 2.376.326.546.07 1.086.375 1.62.435.396.044.763-.13 1.188-.11.134.007.38.19.54.218.297.05.604-.03.864 0 .533.06.85.23 1.512.11 1.604-.293 3.637-.458 5.076-.98 1.61-.585 3.297-1.396 4.968-2.068.035-.014.18.1.324 0 .31-.22.937-.24 1.512-.436.824-.28 1.548-.873 2.376-1.088.807-1.082 1.728-2.235 2.592-3.592.256-.402.475-.93.756-1.306.102-.136.394-.166.54-.326.234-.258.33-.756.54-.98.225-.24.693-.247.756-.653.662.064.772-.23 1.296-.436.113-.045.068-.09 0-.11.246-.024.833-.303 1.188-.543zm40.392 24.816c.168-.13.423-.21.432-.218.435-.437.496-1.39.864-1.306-.066-.006-.128-.016-.108-.11.31-.43.534-1.047.756-1.305.08-.093.037-.214.108-.326 1.353-2.172 3.815-3.342 4.644-5.877.138-.006.15-.14.324-.11.64-3.43 1.928-6.677 2.16-9.903.236.02.344-.09.324-.327.044-1.5 1.17-2.795 1.08-4.57-.025-.482-.147-1.103-.216-1.633-.02-.15-.184-.16-.216-.326-.057-.3-.064-.747-.108-1.09-.224-1.756-.538-3.596-1.296-4.57.25-.675-.204-1.16-.324-1.74-.05-.245.036-.517 0-.763-.112-.77-.528-1.655-.648-2.176-.103-.447-.025-.857-.108-1.306 0-.005-.194-.05-.216-.11.032.09 0-.22 0-.216-.217-1.094-.125-2.004-.432-2.83-.576-1.55-1.72-2.673-2.592-3.81-.097-.587-.363-.82-.756-1.306-.26-1.516-1.037-2.51-1.62-3.7-.688-.47-1.11-.962-1.728-1.415-.288-.21-.552-.452-.864-.652.053.034-.202.074-.324 0-.428-.257-1.365-.99-1.62-1.306-.214-.266-.197-.548-.432-.762-.453-.413-1.23-.54-1.62-1.088-1.53.055-2.076-.883-3.564-.87-.92.64-.475 1.978-.648 3.046-.05.315-.308.914-.432 1.415-.666 2.696-1.513 5.8-2.16 7.837-.165.52-.234.82-.324 1.197-.21.876-.565 1.407-.864 2.068-.385.852-.605 1.492-.972 2.177-.566 1.056-1.39 1.628-1.836 2.612-1.152.49-1.576 1.778-2.376 2.503-1.174 1.064-2.842 1.98-4.32 2.612.072-.032-.712-.11-.432.217 1.924-.182 3.905-1.785 5.616-2.177-1.104.665-2.322 1.215-3.456 1.85 1.076-.313 2.095-.56 3.024-.98.91-.41 1.597-1.14 2.484-1.523-.736 1-2.04 1.426-3.132 2.068 1.368-.432 2.538-.822 3.672-1.306.81-.348 1.524-.83 2.16-.98-1.722 1.24-4.053 1.865-6.156 2.72 1.28-.05 2.024-.44 2.916-.762.6-.215 1.205-.34 1.728-.544 1.278-.5 2.285-1.535 3.564-1.633-1.784.997-3.704 1.855-5.724 2.614 1.112-.258 2.323-.417 3.132-.98 1.515-.182 3.49-1.414 4.86-1.74-1.393 1.062-3.458 1.448-5.076 2.284.813-.132 1.646-.224 2.376-.435 1.943-.56 3.475-1.852 5.076-1.96-2.213 1.144-4.39 2.012-7.02 2.722-.365.098-.796-.03-1.08.326-.896-.006-1.872.2-2.808.437 0-.11.088-.13.108-.218-.384-.17-.065.368-.324.325.13-.347-.562-.316-.972-.108.117.026.26.18.108.217-.292-.252-.42.122-.432-.217-.51.285-1.132.455-1.944.435.2-.19.013-.378-.324-.327-.343.224.305.218 0 .327-.46-.23-.858.145-1.188-.218-2.81.383-6.335-.323-9.828-.435-.58-.612-1.306-1.08-2.376-1.198-.282-.732-1.186-.837-1.512-1.524-.336-.025-.608-.166-.864-.327-.256-.16-.41-.482-.648-.652-.825-.59-1.738-.788-2.7-1.197-.49-.207-.84-.634-1.296-.87-.28-.143-.594-.18-.864-.326-.82-.443-1.65-.793-2.376-1.306-.787.087-1.373-.633-2.052-.87-.69-.242-1.525-.22-2.268-.436-1.53-.448-3.057-1.074-4.536-1.306-.833-.13-1.16-.29-1.728-.435-.857-.22-1.542-.132-2.16-.435-.468-.23-.883-.334-1.404-.544-.336-.134-.568-.436-.864-.543-.746-.27-1.605-.31-2.16-.544-.414-.563-1.064-.887-1.728-1.198-.023-.34-.542-.454-.864-.653-.243-.15-.71-.69-.756-.326.318.82 1.054 1.377 1.512 2.068.392.59.513 1.39.972 1.96.2.244.57.393.864.652 1.52 1.34 2.897 2.472 4.536 3.592.648.442 1.238 1.056 1.836 1.415.348.208.84.234 1.188.435.454.26.926.693 1.404.98.676.404 1.323.843 2.16.87.734.603 1.938.732 2.484 1.524.915.062 1.32-.03 2.16.11 2.138 2.017 3.55 4.766 6.156 6.31-.66.968-2.038 1.212-2.916 1.96-.253.035-.405.172-.756.11-.124.286-.326.43-.54.652-.154.16-.505.356-.648.544-.07.093.057.333 0 .436-.098.178-.46.5-.648.76-.306.43-.612.902-.864 1.2-.298.35-.648.66-.864.978-.19.28-.195.504-.324.653-.08.094-.037.213-.108.327-.99 1.59-2.956 1.974-4.86 2.612-.75.25-1.27.673-2.052.653-1.964 1.122-4.323 1.857-6.48 2.503-.428-.034.12-.378-.324-.326-.98.21-1.987.39-3.024.544-.11-.106-.218-.216-.324-.327-1.164-.074-2.408.174-3.672 0-.285-.038-.44-.24-.756-.325-.61-.165-1.446-.066-1.944-.218-.595-.18-.908-.783-1.62-.653-2.284-1.182-3.73-3.205-5.4-5.006-.034 2.562.787 3.954.864 6.203.978 1.628 2.352 2.855 3.348 4.464.162.018.4-.04.432.108-.01.52.496.516.54.98-.63 1.125-1.21 1.628-1.404 3.156-.275.146-.418.564-.54.87-.38.96-.63 2.096-.648 3.375.644-.005.586-.715 1.404-.544.35.47.013.994.108 1.305-.345-.016-.357-.366-.648-.436.34.015.37-.28.432-.545-1.002-.05-.557.67-.54.98-.254-.035-.064-.516-.432-.436-.386.45-.257 1.405-.216 2.067.022.36.032.84.108 1.09.286.927 1.657 1.853 1.404 2.72 1.082.796 2.293 1.46 4.104 1.523-.318-.534-.28-1.486-.432-2.177.192-.097.138-.44.54-.326-.112-.525-.32-.53-.54-.762 3.382.538 7.42.88 9.72-.98.547-.21 1.072-.443 1.512-.76 1.072-.005 2.794.094 3.996.543.502-.354 1.26-.228 1.836-.436.355-.128.61-.45.972-.544 1-.26 2.033.116 2.916-.108 1.063-.27 2.857-.487 3.456-.87.94-.604 1.76-1.14 2.16-1.96 1.837-.326 2.333-2.002 3.024-3.483 1.325.09 2.054-.84 3.132-.653.236-.198.376-.492.756-.544.306-.018.252.327.54.326.59-.685 1.26-1.84 2.052-1.96-.21.695-2.613 2.115-1.188 2.505.195-.6.314-1.28.756-1.632.112.317.42.268.54.326.005.902-.043 1.858.432 2.286.01-.17-.014-.378.216-.326-.026 2.674 2.073 3.208 3.456 4.46.127 1.15 2.075 1.8 3.348 1.307.206.05.27.236.54.22.443-.303.918-.068 1.404-.11 1.45-.123 2.472-.75 3.348-1.523.015-.457.197-.745.432-.98.332-1.507-1.06-2.447-2.268-3.047-.66-2.107-3.496-1.435-3.996-3.483-.08-.322.207-.77.108-1.197-.102-.443-.447-.53-.54-1.088-.418-.058-.527.194-.972.11-.24-.667-1.207-1.178-.972-1.96.468.217.31 1.064.972 1.088.096-.416.526-.938.972-.654-.303.24-.498.587-.756.87.273.37.566.07 1.08.11.01.17-.014.378.216.327.59-.828 1.635-.21 2.484-.327.73.533 1.308 1.222 2.268 1.524.17-.01.085-.277.324-.218.63.382 1.174.85 2.16.87 1.28 1.782 4.11 1.35 6.048 2.396 2.576-.456 3.46 2.146 4.86 2.938.245.14.658.19.972.327 1.206.522 2.335 1.11 3.564 1.415-.1.266.56.556.972.652.698-.55 1.735-.92 2.376-1.414zm-60.048-42.99c-.138-.007-.15-.14-.324-.11-.167.268.367.32.324.11zm9.504 10.338c.26-.26-.354-.282-.324-.108 0-.008.365.067.324.108zm.54.11c.714.188-.874-.28 0 0zM59.292 25.9c-.018-.147.55-.217.216-.326.02.147-.625.14-.216.326zm-6.804 23.727c.69-.248.94-.94 1.728-1.09-.62.682-1.592 1.01-1.944 1.96.708-.34 1.324-1.35 1.944-1.415-.534.623-1.272 1.04-1.728 1.742.756-.11.8-.934 1.62-.98-.245.605-1.387.828-1.296 1.415.704-.272 1.256-1.273 2.052-1.09-.41.244-1.314.56-1.188.98.242-.196.727-.713.972-.544-.237.523-1.024.492-1.188 1.088.493.013.897-.935 1.188-.435-.086.24-.508.14-.54.434.47.076.48-.314.864-.326-.005.15.05.24.108.326-.363-.003-.572.15-.756.327.316-.028.332.247.648.218.5-.508.884-.912.972-1.632.078-.638-.337-1.014 0-1.306-.947-.368-1.808-1.88-3.024-.98-.215 0-.137-.297-.432-.217-.257.298-.214.657-.108 1.088.68.01.85-.993 1.404-.76-.306.525-1.013.647-1.296 1.197zm3.78.544c-.05.69-.408 2.09-.864 2.178.09.38.605.333.432.98.504.362 1.032.7 1.62.98-.076-1.58 1.117-2.782 2.268-3.484-.737-.6-1.805-.866-2.7-1.307-.03.615-.742-.26-.864.11.378.35.132.204.108.544zm27.108-.217c-.688.315.41-.19 0 0zM44.28 53.218c.127.017.306-.018.324.11.075.076-.213.136-.216.108.034.41 1.265 2.462 1.62 2.177-.46-.26-.33-1.118-.648-1.524-.024.084-.09.125-.216.108-.228-.42-.378-1.284-.432-1.85-.014-.142.28-.533-.108-.436-.022.523-.433.652-.324 1.306zm-3.888 5.116c.308-.572 1.037-.42 1.512-.11.288-.29.607-.55.972-.76.045.207.04.467.324.434-.158-.414.483-.02.324-.435-.416-.125-.71-.373-1.188-.435-.34.273-.825.402-1.296.543-.735-.476-.364-1.54 0-2.066-.2-.105-.36.325-.432 0 .3-.417.784-.782 1.188-1.197.377-.387.723-1.126 1.296-.98-.53.263-.884.706-1.188 1.197.67-.16.76-.904 1.404-1.088-.02.378-.382.413-.432.762.335-.207.617-.467.756-.87-.426.03-.33-.467-.756-.436-.828.543-1.434 1.6-2.16 2.285-.206.195-.582.48-.864.436.796-1.05 1.927-1.76 2.7-2.83-1.744.673-2.55 2.292-3.888 3.374.68-1.348 1.902-2.147 2.916-3.156-1.61.59-2.273 2.136-3.672 2.94.734-1.075 1.867-1.747 2.7-2.722-2.383.682-2.656 3.49-5.184 4.027-.99 2.178-3.457 2.273-5.94 2.83.47-.04.452.415.648.653.507.04.328-.613.864-.544.126.018.117.172.108.326.43-.35.82-.936 1.512-.435.257-.4.835-.533 1.404-.327 0-.326.194-.457.432-.544.84.97.752-.55 1.836.11.06-.375.328-.54.648-.654.255.034.2.378.54.326.344-.233.546-.61.972-.76.108.143.102.404.324.434.27-.2.347-.594.756-.653.37.473.905-.24.864.327zm-2.052-3.7c.32-.368.746-.628.972-1.09-.743-.13-.85.956-.972 1.09zm5.076-.436c.35-.01.664-.056.864-.218-.154-.026-.182-.18-.324-.218-.026.3-.402.25-.54.436zm6.156 5.223c-.627-.45-.898-1.175-1.62-1.413.006-.14.138-.15.108-.327-1.262-1.05-3.025-1.595-3.564-3.373-1.743.277-3.702 1.115-3.456 2.72.365-.14-.014-.175.54-.217 0 .144-.19.1-.216.218 1.214-.946 2.383.114 3.132.87.222.224.48.446.648.653.855 1.044 1.075 1.888.864 3.484-.153 1.16-.1 1.527-.54 2.068-.057 1.842-1.21 3.194-2.484 4.136-.254-.516.467-.88.864-1.09.794-.936 1.343-2.34 1.296-3.808-.69-.077-.926.835-1.728 1.088-.247.078-.603.073-.972.11-.168.193-.297.426-.432.652-1.506 1.076-3.978 2.156-6.264 1.742-1.12.556-2.907.082-3.888.217-.414.744-1.425.885-2.376 1.088.084.024.213.003.216.11-2.142.857-4.46 1.717-6.804 2.393-.516.15-1.075.056-1.512.436-1.363.103-2.22.18-3.24.327-.592-.456-1.276-.82-2.16-.98.17.79.674.858 1.188 1.415.544.588.6 1.025 1.08.98.47.977 1.746 1.143 2.376 1.958-.443.043-.804-.56-1.08-.326 1.22.757 2.76 1.776 4.536 2.177.223.05.53-.028.756 0 .66.08 1.333.39 1.944.435 1.02.074 1.987-.302 2.916-.217.643-.338 1.308-1.036.972-1.742.35-.59 1.092-.786 1.836-.98.395-.07.414.236.756.218.34.054.244-.333.648-.216.76.066 1.487.405 2.16.435.46.02 1-.222 1.512-.22.374.004.633.153.972.11.92-.118 1.533-.826 2.376-1.09.916-.284 1.89-.236 2.808-.107.942-.737 1.767.007 2.484.108.28.04.982-.06 1.404-.107 1.476-.16 3.26-.642 4.32-.98.317-.1.707-.04.864-.108.47-.206.82-.71 1.188-.98.85-.627 1.57-1.193 2.16-1.74.545-1.323 1.24-2.07 1.62-3.375.692-.355.91-1.188 1.08-2.068-.794-1.34.913-2.49.648-3.7-.17-.78-.86-.988-.972-1.633-.412-.19-.926.402-.972-.11-.704.352-1.242 1.022-2.268 1.197-1.296.22-2.74-.226-3.564.218.38.56.673 1.208 1.404 1.415.48-.383 2.364-.297 1.944.762-.08-.574-1.518-.106-1.404-.545-.477.368-.973-.176-1.512-.108-.668-.477-.382-1.268-1.08-1.634-.21.15.42.367.432.653-.51-.625-1.457-.848-1.944-1.2zm7.992-4.787c.496-.096.508.86.864.544-.216-.253-.264-.677-.648-.762 0 .144-.19.1-.216.218zm-16.092.326c.223.095.485-.283.216-.327-.026.156-.178.184-.216.326zm.324 3.918c.382-.123.98-.03 1.08-.436-.163-.212-.66.456-.432-.217-.327.106-.542.324-.648.653zm1.62-.218c.034-.147.154-.208.108-.435h-.432c-.094.348.166.34.324.435zm-2.808.326c-.128-.287-.662-.296-.54.218.632.02.95-.276 1.404-.435-.038-.49-.323-.317-.54-.436-.185.14-.002.65-.324.652zm-1.296.218c.126.09.29.144.54.11-.097-.32-.097-.335 0-.654-.294.08-.217-.216-.432-.218.063.353-.073.506-.108.762zm-1.62.436c.43.06.325.06.756 0v-.654h-.54c.052.343-.153.426-.216.654zm1.188-.327h.216v-.218h-.216v.218zm2.16.108c.404.01.747-.044.972-.216-.392.004-.853-.06-.972.217zm-4.104.328h.432c.03-.284-.04-.468-.324-.435.008.19-.024.338-.108.435zm-1.188.218c.45.05 1.226-.136.864-.545-.13.585-.632.138-.864.546zm-.432.218c.016-.13.193-.247 0-.327-.015.13-.192.247 0 .327zm-.648.108c.202-.014.36-.07.432-.217-.204.024-.238-.123-.432-.11v.327zm-2.592.327c.225.06.23.17.108.326.355-.005.538-.184.972-.11.008-.19-.024-.338-.108-.435.132-.01.256-.03.216-.216-.492.29-.755.597-1.188.435zm1.296-.11c.468-.125.715.095.864-.218-.35.064-.502-.074-.756-.108.004.15-.05.238-.108.326zm-2.052.653c.342.018.652.004.756-.217-.55.02-.023-.368-.432-.436-.097.23-.167.484-.324.653zm-11.34-.327c.327-.033.84.12.864-.217-.378-.02-.69.028-.864.216zm10.584.436c.277-.012.515-.062.648-.218-.255-.033-.2-.378-.54-.326-.09.126-.142.292-.108.544zm14.472.435c-.435.326-1.645.444-1.296 1.198-.018-.237.383-.05.54-.11.147-.205-.123-.482.432-.434.018.163-.038.402.108.436.13-.522.848-.45.864-1.09-.162.02-.4-.037-.432.11.166.043.016.13-.108 0-.097.096-.168.757-.324.436.225-.028.03-.48.216-.545zm.108 1.306c.38.157.772-.56.324-.544.202.493-.43.147-.324.543zm-30.564-.217c.114-.114.926-.07.648-.218-.262-.036-.874.12-.648.218zm28.296 0c-.996-.098-1.423.38-1.944.76-.447.155-.618-.092-.864.22.338.075.14.29.108.544.45.09.51-.212.864-.218-.057-.28-.143-.38.108-.545.09.127.143.292.108.545.955-.015-.042-.813.864-.98-.125.13-.122.385-.108.653.76-.003.067-.796.756-.87-.077.633.09.276-.108.87.673-.217.413-.73.756-1.197-.332-.08-.207.3-.54.218zm.216 1.197c.514-.172 1.07-.302 1.188-.87-.588.096-.92.452-1.188.87zm-3.888.327c.432.14-.03.225 0 .543.61.034.56-.596.756-.98-.313.085-.62.173-.756.437zm-2.484.435c-.1.5.23.568.648.544.103-.204-.323-.365 0-.437.442.035.633.387.972 0-.326-.132.057-.434.216-.435-.02.312-.013.595.324.545.102-.25.007-.35.108-.762-.798-.005-1.335.422-2.268.545zm3.24-.11c-.02.38-.248.55-.54.654-1.31-.306-1.818.777-2.916.326-.474.284-.964.552-1.512.762-.543-.358-.99.087-1.404.435 2.677-.292 5.656.04 7.236-1.524.125-.092.29-.145.54-.11.23-.422.693-.607.972-.98-.875.065-1.546.658-2.376.436zm-4.752.218c.182.46.017.622.324.87.018-.125.17-.117.324-.107.048-.423-.27-.683.216-.763v.436c.493.096.437-.36.54-.654-.737-.23-.957.503-1.404.217zm-27.864.327c-.403.116-.308-.27-.648-.217-.048.276.564.433.648.217zm27 .544c-.305.017-.27-.307-.432-.435-.334.17-.708.3-.864.652.395.072.414-.236.756-.218.024.206-.122.24-.108.436.528-.167.775-.39 1.404-.218.096-.415-.176-.695 0-.87-.39.038-.52.166-.864 0-.077.27.476.447.108.652zm-26.46-.326c-.246.15-.406-.28-.432 0 .066.032.416.27.432 0zm.54.11c-.692-.127-.237.33 0 0zm.972.108c-.548-.297-.402.38 0 0zm23.652 1.088h.324v-.218h-.324v.218z"/><path d="M73.656 8.813c-.243-.343-.212.503-.54.435.07-.545.356-.826.324-1.197.26-.09.404.05.54-.326.368.09-.083.544-.108.762-.03.27.09.497.108.762.067.99-.48 2.018-.324 2.94.027.136.215.108.216 0 .24.044.085.576 0 .652-.27.017-.334-.17-.54-.218-.023-1.068.24-2.078.324-2.72-.58.503-.63 1.54-1.296 1.958.105-.91 1.056-1.91 1.296-3.047M78.732 19.588c-.09.637-.934 1.452-1.512 1.96.057.086.113.175.108.325-.71.788-.962 1.366-1.188 2.612-.528.375-.37 1.11-.864 1.306-.176-.71.67-1.166.756-1.958-.803.135-1.415 1.983-2.16 2.177.326-.543.73-1.006 1.08-1.525-.07-.325-.23.104-.432 0 .06-.556.656-.573.864-.98.04-.184-.085-.205-.216-.217.704-.56 1.327-1.203 1.836-1.96-1.007.438-2.138 1.692-3.24 2.396 1-1.35 2.612-2.084 3.672-3.375.622.5.823-.483 1.296-.762zm-3.564 4.57c.296-.5 1.322-.842 1.08-1.523-.208.59-1.047 1.12-1.08 1.524zM38.988 36.457c.31.16.476.464.756.653.082 1.934 1.022 4.254-.216 5.878-.492.645-2.034 1.554-3.564 1.306-.885-.144-1.1-1.19-2.376-.762.192-.23.214-.565-.108-.327-.112-.216-.073-.415-.108-.653-.086-.594-.374-1.392-.324-1.85.056-.51.343-1.42.648-1.85.186-.263.904-.5 1.296-.98.076-.092.023-.338.108-.435.01-.01.14.085.216 0 .38-.43 1.288-.633 1.944-.87.094-.035.093-.11.108-.22.538-.14.46.337.864.328.455.13.474-.176.756-.218zm-2.7 5.986c.162-.065.45-.547.54-.326-.006.463-.59.476-.864.653-.305.196-.556.5-.864.653.8.208 1.22-.765 2.052-.87-.216.634-1.542.67-1.404 1.305.397.173.49-.78 1.188-.653-.09.343-.557.31-.648.653.756.217.46-.626 1.08-.544.117.278-.465.38-.108.544 1.918-.398 2.6-1.953 2.592-4.027-.063-.226-.227-.35-.324-.543.192-.206.08-.72.108-1.088-.55-.226-.092-.89-.432-1.2-.716.135-1.263.132-1.728-.217-.55.493-1.118.35-1.62.654-.162.098-.027.256-.216.435-.334.316-1.305.703-1.728 1.415 1.15-.437 1.732-1.447 2.916-1.85-.293.43-.7.636-.972.87-.406.35-.72.483-1.08.762-.42.324-1.022.65-1.188 1.197 1.172-.452 2.09-1.738 3.024-2.068-.283.62-1.065.74-1.404 1.304.538.067.767-.746 1.08-.543-.772 1-2.3 1.238-2.808 2.504 1.113-.438 1.598-1.51 2.7-1.96-.502.78-1.35 1.178-1.944 1.742-.248.237-.676.573-.648.98.9-.01 1.762-1.554 2.592-1.633-.598.74-1.8 1.45-2.268 1.96.77-.315 1.497-1.248 2.16-1.307-.65.615-1.428 1.1-2.16 1.633.96.098 1.478-1.1 2.484-1.307-.493.664-1.403.908-1.944 1.523.797-.068 1.31-1 1.944-.87-.117.025-.26.18-.108.217zM34.02 44.51c.027-.092.55-.168 1.188-.108.158.386.52.566.864.762-.14.508-1.034.076-.972-.326-.34-.054-.38.196-.756.108.018-.272-.166-.34-.324-.435M30.456 47.123h-.324c-.117.59.468.47.432.98.34.052.244-.334.648-.218.406.28.687.687.864 1.197-.434.94-.76 1.993-1.512 2.612.083.41-.132.52-.108.87-.258.067-.493.158-.864.11-1.52 1.806-2.577 4.08-4.428 5.55-.16-.614.632-1 .972-1.523.266-.406.47-.825.756-1.306.14-.232.378-.43.324-.76.64-.445.65-1.522 1.188-2.07.048-.808.236-1.045.432-1.523.338-.02.793.075.972-.107-.368-.878.46-1.568.648-2.504-.32-.425-.927-1.15-.432-1.742-.468-.15 0-.573-.648-.544.204-.12.378-.272.648-.327.186.647.47 1.196.648 1.85-.236-.016-.232-.274-.216-.544zm-.324 2.94c.08.77-.075 1.302-.432 1.63-.202-.085-.396-.18-.648-.216-.04.94-.91 1.62-.756 2.394.574-.582.677-1.638 1.836-1.632.395-1.496 1.894-2.357 1.188-3.81-.138-.005-.15-.138-.324-.107-.35.517-.5 1.237-.864 1.742zM31.212 46.253c.016-.243.272.14.54 0-.035.393.573 1.01-.108 1.088-.132-.3-.096-.773-.54-.76.027-.12.215-.075.216-.22.02-.09-.042-.1-.108-.107M5.508 58.334c.005.338-.736.483-.648 0 .184-.04.204.084.216.217.17-.045.093-.342.432-.216M7.992 54.307c.854-.374 1.307-1.15 2.268-1.415-.606.513-1.305.933-1.836 1.523.508-.215 1.42-.96 2.052-1.414.02.4-.75.747-1.188 1.09-.46.357-.945.723-1.296 1.087.02.088.108.11.108.217.444-.17.623-.605.864-.98.207.047.465.04.432.328.243-.118.04-.684.54-.544.212.802-.508 1.39 0 1.74.08.336-.372.134-.216.545.213.208.492-.443.864-.435-.887.775-1.622 1.703-2.7 2.286.336-.75 1.323-.844 1.512-1.742-.66.133-1.347 1.18-2.16 1.523-.018.89.896.84 1.512 1.09.293 1.083 1.15 1.596 2.7 1.414-.606.612-1.784.384-2.376-.11-.34-.284-.44-.82-.648-1.09-.76.042-1.077-.364-1.512-.65v-.763c-.477.1-.56.595-1.188.544-.622-1.538 1.11-2.478 1.836-3.373-.334-.583-.643-1.072-.648-1.523-.013-1.173 1.368-1.71 1.404-3.266.048-.387.39-.476.54-.76-.062-.23-.268-.312-.216-.654.427-.14.262.317.54.326.053-.346.617-.176.54-.653.548-.137 1.143-.226 1.296-.762 1.174-.15 2.18-1.056 3.348-1.197.742-.09 1.582.156 2.376.108.852-.05 1.727-.168 2.592-.217.535-.03 1.084.21 1.62.216 1.568.018 3.07-.5 4.644-.435.355.187.395.692.648.98-.068.403-.293.65-.216 1.198-.5.476-.812 1.14-1.296 1.633-.303 1.285.178 3.237-1.188 3.7-.52 2.185-2.442 3.298-4.212 4.464-.68.448-1.265 1.064-2.052 1.087-.346.097-.224-.28-.432-.325-1.01.142-1.405.906-2.484.98.56-.67 1.608-.846 2.268-1.415.407-.047.492.23.648.435 2.636-1.078 5.105-2.788 5.94-5.333.23-.278.67-.34.756-.76-.535.207-1.36.905-2.484 1.305-.68.24-1.068.812-1.944.544-.43-.13-.846-.674-1.08-1.196-1.35 1.396-4.333.645-5.724-.327-.447-1.472-2.17-1.658-2.268-3.483-.385.084-.657.28-.864.544.047.162.138-.042.324 0-.76.756-1.578 1.458-2.268 2.286.97-.294 1.212-1.318 2.268-1.524-.92.634-1.54 1.568-2.592 2.068.022.34-.073.8.108.98 1.137-.378 1.766-1.27 2.808-1.742-.612.762-1.657 1.088-2.268 1.85zm-.108.98c-.446 1.05-2.46 1.667-1.836 2.938.154-.186.628-.335.324-.654.507-.53.994-.682 1.404-1.304-.033.05-.165-.213-.108-.327.13-.26.676-.127.432-.436-.023-.123-.12-.17-.216-.218zm12.852-7.837c-.408-.007-.85-.194-1.296-.218-1.11-.06-2.137.1-2.7.218-1.008.213-1.782-.175-2.808 0-.282.048-.52.3-.864.435-.936.364-1.832.488-2.052 1.09-.45 1.235.646 1.43 1.188 2.066.353.416.477.795.648 1.308.5.44 1.395.48 1.728 1.088.478-.026.787-.223 1.296-.218.288.372.593.543.972.544 1.093.005 1.37-1.78 2.376-1.96.398.312-.138.836-.216 1.307.354.405.707.81 1.296.98.912-.3 1.653-.884 2.376-1.307 1.075-.63 1.053-.792 1.188-1.96.012-.1.193-.23.216-.435.01-.09-.12-.28-.108-.326.118-.417.646-.805.54-1.306.494-.228.855-.59 1.08-1.09-.83-1.305-2.694-.178-4.86-.216zM8.532 50.824c.477-.136.7-.53 1.08-.762.23-.173.994-.37.648-.762-.32.33-.624.677-1.08.87.207-.553.878-.64 1.08-1.196-.678.492-1.654 1.09-1.728 1.85zm.432.11c.264-.062.395-.257.54-.437-.317.008-.4.25-.54.436zm-1.188 3.7c.016-.13.192-.248 0-.327-.016.128-.192.246 0 .326zm.108.217c.27.02.338-.167.432-.326-.206.046-.464.04-.432.327zm.54.87c.27.02.338-.166.432-.326-.207.047-.464.04-.432.327zm.864-.216v.217c.266.17.318-.368.108-.326-.006.067-.016.13-.108.11zm-2.052 2.394c.636-.41 1.254-.84 1.728-1.415-.402.116-.17-.408-.54-.326-.59.386-1.475 1.05-1.62 1.523.554-.494 1.114-.982 1.836-1.306-.28.664-1.546.782-1.404 1.524zM42.12 48.756c.238.16-.46.685-.108.98.397-.072.266-.676.54-.87.157.058.558-.128.54.108-.366.39-.715.803-.864 1.414-.252.034-.465.233-.54-.108-.293.14-.543.323-.54.76.175.342.134-.43.54-.216-.23.313-.472.612-.972.653.19-.886.366-1.145.756-1.742.206.047.195.31.54.218-.345-.335-.198-.928.108-1.197M41.04 51.586c-.108.058-.477.563-.432.108.194.014.228-.133.432-.108"/><path d="M11.016 56.483c-.072.662-1.29 1.17-1.944 1.742-.202.176-.35.494-.54.653-.157-.382.79-1.1 1.188-1.415.44-.35.968-.454 1.296-.98M69.552 10.772c.267.815-.28 1.747-.756 2.176.028 1.1-.686 2.35-.864 3.592-.113.79.09 1.58-.54 2.068-.353-.137.24-.778.324-1.197.17-.865-.052-1.916.432-2.502-.548.392-1.23 1.59-1.944 2.176.362-1.013 1.218-1.53 1.728-2.394-.07-.11-.248-.113-.216-.327.65-1.16 1.657-1.957 1.836-3.59M48.708 64.863c.175-.03.186.104.324.11-.14.747.962 2.068.108 2.394.078-.333-.186-.32-.108-.653-.3.14-.098.707-.216.762-.487-.148-.09-.765-.324-.98-.1.08-.163.198-.216.327-.192-.83.49-1.35.432-1.96"/></g></svg>