<svg xmlns="http://www.w3.org/2000/svg" viewBox="0 0 89.545013 42.729401" width="89.545" height="42.729"><title>spinosaurus</title><g fill="#000" fill-rule="evenodd"><path d="M64.8 7.28c.076.498-.117.723-.104 1.157.178.406.372-.175.827.105-.135.454.214.415.413.527.013.456.098.728 0 .947.142.366.426.188.62.316-.02.175-.767.423-.723 0-.28.91-.784 1.588-1.654 1.896 0 .42-.266 1.027 0 1.578-1.192 1.804-2.324 3.67-4.238 4.74.02-.446.533-.476.827-.738.753-.673 1.788-2.148 2.48-3.16.352-.515.752-1.59.62-2.843 1.312.022 1.607-1.147 1.757-2.527-.303-.024-.705.754-.62 1.474-.87.34-1.7.727-2.068 1.58-.028.38.19.507.206.842-.324 1.033-.69 1.542-1.86 2.317-.706.468-1.326.88-2.17 1.263-1.312.595-3.916.664-5.788.422-1.455-.188-2.927-.958-4.34-1.16-.77-.61-1.595-.878-2.274-1.368-.38-.93-1.416-1.69-1.344-2.737.935.016.34.942.827 1.368.33-.188.425-.618.517-1.05.645-.726 1.287-1.498 2.067-2.213 1.19-1.09 3.168-2.148 5.065-2.632.79-.202 1.755-.275 2.687-.527 1.22-.33 2.44-.727 3.41-.632.645.063 1.147.53 1.86.737.207.06.51-.034.724 0 .625.1 1.35.59 2.274.316zm-6.305 0c-1.07-.51-1.64.24-2.686.526-.353.096-.763.036-1.14.105-1.694.312-3.19 1.242-4.34 1.686-1.254 1.248-2.792 2.21-3.306 4.212.49.686 1.32.722 2.067 1.053.78.346 1.466.902 2.275 1.16.533.17 1.194.333 1.756.42.45.07.964-.078 1.448 0 1.008.164 1.976.303 2.79 0 .11-.04.11-.193.207-.21.135-.023.196.175.414.106.306-.1.602-.387.93-.527.994-.43 1.253-.563 1.962-1.16.635-.533 1.042-.99 1.447-1.58-.433-1.58.474-2.46 1.963-2.843.517-.985-.545-1.3-.31-2.21-2.132.107-3.816-1.667-5.478-.738zM75.755 7.7c.375.11.62.35.93.527-.012.303.056.69-.104.842-.225-.016-.22-.266-.205-.528-.146-.342-.688-.28-.62-.842"/><path d="M75.962 8.542c.35.064.223.615.31.95.03.403.574.68.31 1.052-.424-.026-.465-.44-.517-.843-.105.07-.107.243-.31.212.06-.614-.028-1.163.207-1.37M5.58 12.755c.04.32-.336.22-.516.316.202.237.056.758-.31.738.12.125.117.372.103.632.307-.074.45-.314.93-.21-.103.526-.875.37-1.136.737-.205-.248-.546-.356-.723-.632.144-.873.875-1.705 1.653-1.58M16.433 17.073c-.158.33-.754.215-1.137.316.116-.524.78-.574 1.137-.317M21.6 18.442c-.428-.247-.896.245-1.447.21.207-.284 1.46-1.012 1.447-.21M40.72 18.336c-.114.59-1.078.117-1.344.21v-.315c.294-.168.834.16 1.344.106M13.332 18.336c.768.317 1.546.015 1.757.737-.852.05-2.08.078-1.758-.737M44.44 18.652h.723c.086.298-.145.273-.103.527-.122-.123-.365-.12-.62-.107v-.42M17.466 18.758c.394.476.847-.163 1.55 0 .092.55-.782.115-.723.63-.38-.067-.814-.083-1.034-.315.066-.107.237-.11.206-.315M16.02 19.18c.1.002.08.128.102.21.186.013.218-.13.413-.106.193.477-.37.183-.413.42-.263-.01-.244-.39-.103-.525M18.396 19.81c-.133.287-.307.53-.723.527-.002-.423.333-.503.723-.526M75.238 20.443c-.117.352-1.264.5-1.86.526-.233.01-.128-.198-.207-.212-.443-.08-.952.316-1.343.316.6.406 1.16.855 1.86 1.16-.15.267-.04.798-.62.63-.15-.398.285-.202.207-.526-.276-.376-.47.215-.827.105-.046-1.012-.965-1.056-1.963-1.053.65-.847 2.278-.697 3.41-1.053.176-.04.195.082.207.21.49.078.712-.118 1.138-.104M53.018 20.97c-.472-.06-.644.186-1.137.104 0-.21-.28-.134-.205-.42.39-.063 1.134-.227 1.343.315M70.07 21.18c-.15.337-.705.264-.93.526-.238.032-.114-.304-.31-.316.335-.568.58-.256 1.24-.21M57.462 21.39c-.054.085-.108.17-.104.316-.503-.205-1.267.33-1.446-.316.36-.042 1.19-.3 1.55 0M69.347 28.972c-.7.42-1.953.805-2.687.843.766-.413 1.608-.75 2.687-.843M77.098 30.025c-.178.558-1.114.535-1.653.42.316-.483 1.155-.69 1.653-.42M67.073 30.657c.137.264-.408.33-.103.42-.11.24-.65.04-.93.107.017-.123-.023-.188-.104-.21.23-.294.768-.473 1.137-.317M53.225 31.71c.334.08.54.292.62.632-.122.12-.366.12-.62.105v-.737M56.118 34.342c-.36.397-1.224-.124-1.963 0-.31-.174-.405-.57-.62-.842-.845-.344-2.247-.842-2.997-.63-.215-.06-.22-.166-.104-.317 1.493-.03 3.214.143 3.824 1.474.36-.02 1.647-.156 1.86.315M38.652 34.554c.197.044.26.226.517.21-.083.232-.208.42-.518.42v-.63M35.345 35.29c-.472-.094-.586.176-.93.21-.09-.577.874-.646.93-.21M37.31 36.133c-.152.478-.603.65-.828 1.053-.392-.407.302-.6.413-.842-.413-.346-.79.245-1.343.105-.042-.255.19-.23.104-.527.275.417.34-.214.516.21.273-.33.924-.38 1.137 0M31.418 36.133c-.365.228-1.315.292-1.86.632.19-.673 1.352-.91 1.86-.632M19.533 36.028c.136.037.162.185.31.21-.682.208-.288 1.23-.827 1.37-.126-.497.23-1.18.517-1.58M20.98 36.028c.213.063.39.163.31.526-.18.098-.555-.003-.517.316-.263-.012-.4-.153-.413-.42.22-.127.563-.13.62-.422M23.874 36.344c.104.36-.777.25-.827.105-.105-.362.776-.252.827-.106M26.56 37.29c-.032.374-.618.558-.93.317.18-.373.52-.418.93-.316M19.74 37.713c.346-.073.377.176.413.42-.316-.075-.377.108-.62.106-.15-.4.284-.203.207-.527M44.854 37.923c-.25.397-.905.24-1.344.316-.257.044-.504.304-.723.104.355-.614 1.548-.214 2.067-.42M63.87 38.03c.05.437-.262.504-.62.525-.338.253-.458.728-.93.843.103-1.26.69-1.19 1.55-1.37M39.996 38.45c-.17.352-.367.68-.93.632.05-.476.42-.626.93-.632M22.013 38.555c-.215.408.155.172.104.632-.653.154-.585-.636-.104-.632M69.347 39.082c.018.453-.886.363-1.136.21v-.316c.53-.21.67.068 1.137.106M30.178 40.872c-.052-.44.262-.506.62-.527.333.404-.164.784-.31.738-.252-.2.202-.383-.31-.21"/><path d="M33.382 33.29c.8-.1.722-1.09 1.343-1.37.115-.444.257-.86.62-1.053.568.018.566.618.62 1.16.623-.28.62-1.194 1.137-1.58.723.438.42 1.53.517 2.422.438-.257.648-.745 1.136-.95.43-.67.602-1.88 1.55-2.105.055.91.13 1.43-.103 2.42 1.366-.05 1.486-2.27 2.48-3.053.256.65.25 1.526.31 2.107 1.08-.193 1.457-1.666 1.964-2.318.042-.054.455.002.206-.21.11-.24.65-.04.93-.106.2.665-.36 1.075-.516 1.685.093.187.25.308.31.527 1.32-.432 1.396-2.376 2.273-2.948.373.287.507.818.518 1.474.953-.342.733-1.9 1.24-2.423.697.46.68 1.186 1.033 2.107.6-.228 1.4-.334 2.275-.526.682-.15 1.32-.47 1.963-.63.524-.13.808-.128 1.24-.317.404-.176.993-.29 1.448-.526.556-.29 2.28-.4 2.79-1.16.37.097.878-.09 1.343-.21.514-.133 1.232-.163 1.343-.63.116.272.787.085 1.24 0 1.19-.227 2.63-.438 4.444-.317-1.228-.434-2.853-.462-3.514-1.474-1.398.125-2.14-.416-2.894-.948-1.118.136-2.713.182-4.135.42-.783.133-1.68-.037-2.067.107-.802.296-1.083 1.402-1.757 1.684-.208.087-.362-.268-.515.104-.464-.402-.183-.956 0-1.474-1.212.275-1.617 1.37-2.894 1.58-.3-.884.413-1.29.31-2-.798.38-1.456 1.22-2.272 1.263-.32-.333-.308-.794-.104-1.264-.806.23-.99 1.098-1.55 1.578-.223-.088-.353-.272-.723-.21.39-.864.36-1.46.414-2.106-.968-.018-1.195 1.526-2.17 1.474-.417-.242-.035-1.298-.31-1.685-.906-.006-.953 1.382-1.654 1.686-.56-.477-.824-1.35-.723-2.21-1.074-.46-1.62 1.15-2.79 1.262-.266-.423-.254-1.48-.208-1.895-.105-.174-.44-.114-.62-.21-.762.558-1.537 1.102-2.378 1.58-.058-.153-.16-.258-.31-.317.055-.646.406-.99.62-1.474-.207-.386-.788-.39-1.136-.632-.81.368-.997 1.372-1.86 1.685-.313-.423-.297-1.114-.207-1.685-1.637-.5-2.347 1-3 2.106-.606-.138-1.193-.792-.93-1.474-.76.206-1.135.808-1.342 1.58-.832.004-1.09-.576-1.137-1.37-.468.435-.728 1.083-1.033 1.685-1.205.25-1.214-1.06-1.24-1.684-.27.25-.317.73-.723.842-.317.66-.288 1.672-1.24 1.684-.096-.635.06-1.277-.31-2.106-1.148.935-1.402 2.222-1.654 3.896-1.28-.03-1.49-1.15-1.86-2.106-.425.212-.168.813-.62 1.158-.772-.47-1.11-1.222-1.24-2.106-.69.177-.52 1.227-.93 1.685-.803.102-1.188-1.095-1.24-2.105-.507.118-.848 1.313-1.138 2-.932.142-.86-1.343-1.24-1.895.05-.473-.053-.79-.103-1.158-.61.17-.49 1.095-.62 1.474-.148-.01-.294-.017-.312.105-.538-.398-.82-1.057-.93-1.894-.577.15-.386 1.08-.826 1.37-.823-.26-1.417-1.282-1.034-2.423-.83.496-.998 1.71-1.24 2.527-.65-.145-.53-1.076-1.034-1.37-.462.337-.09 1.523-.516 1.897-.372.027-.5-.195-.827-.21-.3-.363-.253-1.076-.62-1.37-.706.576-.09 1.834-.413 2.422-.867-.17-.882-1.21-1.447-1.686-.604.49.13 1.76-.103 2.212h-.31c-.318.01-.07-.547-.517-.632.104-.92-1.152-2.513-.62-2.95-.028-.102-.237-.396-.207-.525.036-.156.18-.244.207-.107-.108-.55-.727-1.195-.93-2-.035-.138-.072-.49-.103-.737-.05-.382-.15-.646.103-1.16-.4.12.18-.42-.31-.526.58-2.064 1.434-3.237 3.514-3.685 1.54.743 2.723.195 4.34.21 3.064.03 6.557-.333 9.302-.526 1.227-.087 2.392-.128 3.514-.317.356-.06.686-.26 1.033-.316 1.265-.203 2.77.04 3.928-.21.265-.057.382-.274.62-.316.59-.105 1.202.01 1.758-.105 1.18-.243 2.735-.855 4.03-1.158 1.287-.3 2.372-.39 3.514-.842C36.655 6.95 38.21 6.36 39.48 5.91c.337.072.58.073.93 0 .277-.058.492-.274.723-.316.327-.058.688.035 1.034 0 .55-.054 1.088-.344 1.653-.42.986-.135 1.965.047 2.997-.212.63-.157 1.972-.46 2.997-.42.106-.104.21-.21.31-.317 1.223-.355 2.62-.778 3.824-1.263.35-.14.604-.393.93-.527.882-.364 2.602-.362 2.584-2.212 1.163-.477 3.95-.218 3.824 1.054.406.255 1.355.512 1.653.526.357.513 1.058.676 1.447 1.16.986-.264 1.654-.062 2.17.42 1.363-.558 2.682-.38 4.03 0 .362.102.997.194 1.55-.21.8.67 1.704.283 2.687.315.334-.094.146.343.31.42 1.366-.042 2.124-1.533 3.618-1.79.577.818.933 2.42 1.86 2.53.37 1.256 1.813 1.447 2.79.84.373-.23.494-.85.93-1.157.585-.412 1.364-.36 2.068-.526.382.313.64.752 1.343.737.41.503.32.976.31 1.686-.015 1.182 1.09 1.647.62 2.95-.317.307-.76.49-.93.947.206.557.317 1.193.827 1.79.313.366.84.492.93.842.2.772-.304 1.07-.723 1.685-.95-.356-1.603.716-2.79.948.142.135.102.457.103.737-.442.837-1.524 1.263-1.86 2.317-.263.823.046 1.675-.31 2.422.254.23.582.388.93.526.06.687.88 2.007-.104 2.738.065.7.522.973.517 1.474-.31.456-.894.634-1.24 1.054 1.237-.12 2.408-.718 3.72-1.054.518.253.576.872.517 1.475-.032.33-.48.8-.517 1.263-.024.3.16.54.103.737-.29 1.008-1.353 1.238-2.067 1.58-.087.122-.137.282-.104.527-.136.107-.38.103-.517.21-.127.398-.318.73-.62.948-.634 2.098-2.407 3.688-4.238 4.633-.75.388-1.688.366-2.17 1.16-.506.077-1.288.51-2.274.42-1.22.682-2.587.87-3.927 1.158-.763.165-2.476.567-3.72.738-.233.033-.468-.03-.723 0-.142.017-.29.202-.414.21-.78.058-1.42-.052-2.686-.104-.74-.03-1.37-.287-2.17-.422-.49-.082-1.055.04-1.55-.105-.156-.046-.35-.288-.518-.317-.572-.098-1.278.04-1.965 0-1.19-.067-2.346-.672-3.307-.737-1.407-.095-4.514.168-6.718.422-1.328.152-2.376-.07-3.514.21-.344.086-.786.223-1.136.316-.668.18-1.364.485-2.067.632-1.573.327-3.134.067-4.754.42-1.308.287-2.44 1.088-3.722 1.264-.54.075-1.082-.065-1.55.106-1.192.435-3.756.492-5.58.21-.87-.133-1.613-.58-2.584-.42-1.347-.77-2.76-1.473-4.238-2.107-.222-.37-.594-.59-.723-1.054-1.306-.32-1.814-1.452-2.48-2.422.23-1.483-.126-3.21.826-4.107.412.14.44.675.62 1.053.607-.87.5-2.33 1.446-3.054-.023-.584.55-.562.413-1.264.22.126.577.115.723.317-.293 1.5.14 2.053 0 3.474.537-.3.48-1.04.724-1.58.14-.316.496-.645.723-1.053.463-.833.55-1.572 1.654-1.684.377 1.68-.39 2.58-.414 4.318.724-.14.91-.828 1.344-1.264.7.187.578.61.62 1.37.465-.088.367-.75.723-.95.493-.058.638-.472 1.034-.63.663.523.156 1.377.414 2.106.515-.283.51-1.095.827-1.58.53-.092.673-.58 1.24-.632.393.303-.12.733 0 1.37.393-.89 1.25-2.224 2.378-1.686-.168.908-.272 1.118-.103 2.212.716-.5.815-1.627 1.55-2.106.52.396.857 1.494.827 2.106zm53.12-18.85c.67-.795 1.347-.7 2.17-1.053-.022-.2.118-.233.105-.42-.31-.267-.717-.507-1.034-.95-.257-.358-.52-1.236-.723-1.473-.242-.282-.054-.336 0-.632.05-.273 0-.564.103-.737.664.044.545-.71.827-1.054-.6-.67-.696-1.75-.723-2.842-.517.09-.976-.373-1.448-.63-1.624.17-1.6 2.02-3.618 1.79.28.446 1.075 1.027 1.55.63.215.73 1.062.815 1.654 1.16-.11.344-.294.61-.62.736-.22-.4-.947.215-.93-.527.4-.056.505.188.93.105-.823-.95-2.42-1.114-3.204-2.105-.315.076-.377-.108-.62-.106-.232-.367-.797-.69-1.033-.736-.225-.22.01-.34.102-.526-.155-.018-.382.037-.413-.106-.335-.713-.927-1.163-1.138-2-1.166.532-1.83 1.576-3.41 1.685-.45-.734-1.07-.146-1.86-.106-.3-.115-.497-.335-.725-.525-.47.118-1.007.166-1.446.316-.934-.4-2.477-.936-3.927-.315-.212.028-.024.466-.31.42-.545-.598-1.66-1.01-2.376-.842.413.58 1.11.608 1.757.843.5.182 1.24.35 1.653.842-1.334-.204-2.553-1.124-4.03-1.263-1.212-.115-2.368.188-3.204-.632-.64-.14-2.197-.195-2.687.42-.366-.294-.645.202-1.138.106-.318.34-.745.727-1.24 1.052-.624.41-1.718 1.175-2.273.843 1.2-.603 2.442-1.163 3.203-2.212h.517c.27-.23-.32-.35 0-.63 1.182-.607 2.617.233 3.927 0 .694.986 2.317.665 3.41.84-.913-1.033-2.447-1.436-3.72-2.105.133-.138.133-.388 0-.527-.847-.224-1.184-.53-2.377-.525-.252 1.04-.624 1.742-1.55 2.21-1.37.696-3.54.69-4.547 1.686-.33-.244-.546.197-.723.212-.03.002-.14-.164-.31-.105-.096.032-.236.283-.31.315-1.51.646-3.804.33-4.858 1.054-.304-.238-.774-.145-1.137-.106-.357.04-.858.137-1.24.21-1.68.326-3.886.688-5.167 1.16-1.238.454-2.427.62-3.515.947-.09.154-.154.333-.413.315-2.936.48-6.256 1.7-9.818 2.107-.95.107-1.917-.016-2.894.104-.822.102-1.652.452-2.48.527-1.32.12-2.694.008-3.72.422-.8-.114-1.293-.043-1.964 0-1.165.074-2.506.022-3.722.105-.336.023-.697.214-1.034.21-.215 0-.423-.188-.62-.21-.495-.055-1.275-.033-1.756.106-.55.157-1.183.634-1.55 0-.06.152-.162.256-.31.316-.492-.684-1.6-.06-2.17-.107-.262.285-.016.477-.31.632h-.622c-.237.367-.406.46-.516.947-.14.62-.3 1.364-.207 2.212.14 1.284.88 2.737 1.757 3.265 1.006-.07 2.554.177 2.687-.528.05.125.11.24.207.316.492-.285 1.512-.622 2.48-.737.016-.123-.018-.298.104-.315 1.533-.51 3.736-.335 5.064-1.053.126.152.413.14.413.42-1.304.182-2.49.483-3.927.528.323.566 1.35.55 1.964.526-.03.207.14.21.206.316 1.56.272 2.688.983 4.03 1.475.033.142.148.2.104.42.506-.023.686.285 1.137.317.25-.2.51-.393 1.033-.316.023.2-.117.232-.104.42 1.402-.446 3.816-.637 5.27-1.368.12.088.277.14.517.105 1.296-.47 2.686-.532 4.237-.632 1.294-.082 2.67.113 3.824-.105.162-.03.34-.19.517-.21.143-.017.18.225.31.21.02-.002.19-.176.31-.21.45-.127.565-.018.93 0 .285.013.14-.154.31-.106.235.066.167.302.414.316.668.04.856-.06 1.24-.21.33.327 1.332.862 1.756.42.155.52.724.442 1.136.21.11.1.033.39.31.317.907.06 1.56.378 2.378.527.365.057.253-.374.62-.316-.042.43.35.415.517.632.133-.33.213-.055.516-.21.32.06.272.494.62.526 1.378.048 2.834.733 4.134.21.09.154.155.334.413.316 1.368.19 2.238.243 3.515.527.302.027.317-.238.62-.21.323.525 1.7.696 2.273.315 1.248.572 2.73-.157 4.34-.105-.03-.246-.22-.454.104-.527.694-.002 1.52.415 2.17.106-.74-.16-1.835-.274-2.273-.422-.162-.374.35-.064.31-.316-1.787-.427-3.59-.835-5.168-1.474.21-.244.652-.318.93-.21.02-.444-.67-.162-.827-.422.507-.513 1.25.328 1.654.42 1.384.324 2.917.806 3.823 1.055 1.304.358 2.15.82 2.893 1.58.44-.13 1.12.4 1.447.736.657-.073.996.178 1.654.105.347.49 1.123.54 1.446 1.054 1.943.11 3.246.818 5.168.42.24-.213.4-.505.62-.736 1.312-.184 2.725-.084 4.445 0 .288.156-.218.47.207.42.36.468.904.3 1.24.528.13.088.17.334.31.42.825.512 1.645.88 2.48 1.264.998.46 1.643.432 2.584-.316-.177-.61-.132-.79-.413-1.264-.394-.154-.02.472-.414.316-.158-.303.002-.33-.104-.737.355-.38.706-.36 1.034-.315-.018-.264.158-.33.31-.422-.148-1.542-1.304-1.243-1.55-2.316-.164-.712.314-2.456.723-3.265.383-.76 1.397-1.128 1.55-1.79.067-.292-.26-.787 0-.95-.363.093-.64.413-.93 0 .236-.455.264-1.377 1.033-1.158-.027-.343.123-.506.413-.526.05.333-.187.372-.104.738.3.228.595-.192.724.21-.064.475-.66-.204-.62.42.37-.137.378.008.723-.104zM57.463 3.277c.504-.013 1.11.077 1.344-.21-.4-.067-1.025-.23-1.344.21zM85.056 14.65c.053-.205.553-.99.103-.736.27.08-.55.476-.104.736zm-75.34 5.37c.137-.63.4-1.133.93-1.368-.443-.006-.758-.14-1.138-.21.058.537-.158 1.354.207 1.58zm-2.482-1.368c-.134.306-.134.748 0 1.053.4-.08.904-1.075.62-1.158-.013.233-.438.045-.62.105zm4.238 1.685c.475-.218.512-.88.827-1.264-.39.08-.495-.128-.828-.105-.163.27-.163 1.1 0 1.37zm-6.305-1.053c-.065.594.277.77.413 1.16.125-.472.245-.946.414-1.37-.34.005-.395.3-.827.21zM1.964 20.97c.494-.2.39-1.007.62-1.475-.52.107-.395-.44-.93-.316.094.797.23 1.222.31 1.79zm52.81-1.686c.802.274 2.716.92 3.825.843-1.352-.15-2.524-.99-3.825-.843zm-24.183.105c-.01.38-.513.803-.205 1.158.438-.326.655-.877 1.033-1.264-.39-.08-.494.13-.827.105zm3.722.315c.273.032.267-.22.31-.42h-.31v.42zm-6.304.843c.427-.267.658-.733.93-1.16-.84-.152-.958.43-.93 1.16zm-24.287.42c-.01-.64.35-.906.414-1.473-.313.144-.37-.05-.827 0 .122.78-.138.995.414 1.474zM25.838 19.6c-.02.502-.46 1.225 0 1.58.233-.676.807-1.004 1.034-1.685-.522.007-.78.048-1.033.105zM13.54 21.917c.546-.496.78-1.31 1.446-1.685-.592-.205-1.035-.56-1.757-.632-.082.774.385 1.622.31 2.317zm10.024-1.896c.14.433-.25.86 0 1.054.246-.52.723-.807 1.033-1.263-.437-.023-.667.163-1.033.21zm13.848.423c.343-.037.45-.316.62-.527h-.413c-.106.138-.102.388-.208.527zm-17.776.42c.12.437-.217.41-.206.738.515.528.29 1.81 1.137 2.002.095-1.483.7-2.445 1.446-3.265-.885.08-1.428.51-2.377.527zm20.67.422c.417-.103.582-.46.827-.737-.25.043-.225-.193-.517-.105-.052.332-.304.462-.31.842zm-24.39.842c.44-.078.324-.722.62-.948-.232-.115-.518-.175-.724-.316-.23.54.008.72.103 1.263zm1.963-.842c.143.38.073.978.516 1.053-.114-.715.86-.875.62-1.37-.347.138-.618.354-1.137.317zm25.423.737c.01-.48.543-.43.62-.843-.316.076-.304-.182-.62-.106-.004.322-.368.88 0 .948zm2.377.21c.32-.096.413-.42.62-.63-.195.023-.228-.12-.413-.106-.018.298-.19.438-.207.737zm16.226-.63c-.064-.032-.398-.263-.414 0 .064.03.398.26.414 0zm-13.85.736c.33-.088.527-.307.725-.527-.284-.225-.43.062-.723-.104v.632zm1.862.527c.47-.117.777-.4.93-.843-.248.064-.75-.132-.827.105.22.096-.194.423-.102.738zm2.376.42c.44-.15.782-.396.93-.842-.254.014-.497.016-.62-.105.007.428-.327.51-.31.948zm2.584.106c.13-.322.352-.553.517-.842-.318.074-.2.074-.517 0 .135.36-.23.735 0 .843zm21.91.738c-1.275-.202-3.27-.542-4.03.526-.732.204-1.25.228-1.964.317 1.93.267 3.36.77 5.064.843.184.163.405.29.62.42 2 .05 3.275.93 4.96.528-1.635-.79-3.35-1.5-4.65-2.632zm10.335 4.74c-.08-.677.27-1.55.517-2.212-.802.437-1.425.442-2.48.526-.657.052-1.354.34-2.068.42-.684.078-1.383-.065-1.963 0-.218.026-.51.23-.725.21-.028 0-.167-.182-.31-.21-.582-.107-.783-.24-1.137-.315-.514-.107-.952-.08-1.446-.105-1.236-.48-2.545-.474-3.928-.632-.86-.098-1.557-.508-2.273-.632-1.986-.342-3.492-.31-5.166-.105-.463.057-.928.026-1.344.105-.514.098-1.04.433-1.55.527-.313.057-.64-.04-.93 0-.793.11-1.42.47-2.17.737-.393.14-.846.177-1.24.316-.77.27-1.513.64-2.068.842-2.435.89-4.792 1.48-7.338 2.106-.008.33-.433.24-.62.317-2.257.937-5.26 1.33-7.44 2.422.043-.4-.285-.007-.31 0-1.425.333-2.565.486-4.032.736-2.436.418-5.09.322-7.75.528-1 .077-1.958.35-2.688.42-.462.046-.787-.184-1.137-.21-.598-.043-1.24.103-1.86 0-1.02-.168-3.166-.552-4.03-.21-.565.223-.94.82-1.448 1.16-.517.345-1.014.512-1.447.84.684 1.13 1.944 1.67 2.583 2.844.98.232 1.547.88 2.274 1.37 1.064-.207 1.522.764 2.17.63-.104 0-.13-.184 0-.21-.008.47.552.224.827.316.218.073.39.272.62.316 1.22.235 2.636.21 3.41.105.642-.087 1.31.05 1.964 0 1.88-.142 3.97-.813 5.376-1.37.594-.034 1.16-.124 1.756-.21.528-.076 1.053-.033 1.55-.106.47-.067.96-.33 1.448-.42.546-.1 1.125.003 1.653-.106.21-.043.45-.258.62-.316 1.307-.447 2.61-.436 4.237-.527 1.52-.084 3.064-.33 4.65-.42 1.428-.08 3.06-.15 4.342.105.314.063.488.363.723.42 1 .25 2.052.053 3.1 0 .013.313.166.27.31.317.48.157 1.235.206 1.86.316.55.096 1.163.254 1.654.316.24.03.492-.135.723-.107.278.034.494.197.723.21 1.094.067 2.92-.227 3.825-.315.138-.013.092-.192.207-.21.462-.075.944 0 1.447-.106 1.524-.324 3.423-.91 4.96-1.263-.074-.323.107-.385.104-.633.314.268 1.04-.374 1.343-.106-.083.406-.764.204-.93.528 1.714-.01 2.025-1.522 3.62-1.37.27-.543.99-.61 1.445-.947.24-.176.495-.527.827-.84.743-.705 1.568-1.4 1.654-2.53.3-.15.426-.477.517-.84-.673-.025-1.234.16-1.55.21-.143-.24.266-.396 0-.422-.48.147-1.013.79-1.448.632.278-1.006 1.564-.57 2.274-1.264-1.468.015-2.32.655-3.618.843-.113.24-.62.625-.827.42.333-.564 1.116-.693 1.757-.947.666-.265 1.356-.588 1.964-.632.213-.028.097-.392.31-.42.805.398.96.15 1.757.42.3-.303-.28-.25-.31-.526.448-.296 1.192-.415 1.447-.105-.36.124-.803.163-1.034.42.773.14 1.692-.44 2.067-1.053zm-3.514-2.002c.12-.05.233-.113.31-.21-.14-.017-.57.165-.31.21zM49.09 30.34c.485-.067.812-.296 1.344-.315-.3-.42-.25-.592-.206-1.263-.132-.006-.144-.135-.31-.106-.19.65-.48 1.197-.827 1.685zm-1.756.633c.443-.183 1.09-1.353.517-1.58-.082.55-.726 1.083-.516 1.58zm-25.32-.632c.064-.284.43-.26.413-.63-.174.11-.638.463-.414.63zm-1.447 3.58c.436.118.983.123 1.55.107-.135-.508-.03-1.958-.104-2.633.08-.31.63-.888.207-1.053-.866.937-1.46 2.25-1.653 3.58zm23.563-2.21c-.357.092-.716.183-.93.42.856-.11 1.402-.536 2.274-.63.076-.36-.38-.174-.414-.422-.018-.298.09-.722-.206-.737-.167.533-.48.915-.724 1.37zm-25.424-.316c-.133.547-.5 1.318-.62 2.106-.094.623-.15 1.404.103 1.58.412-.623 1.112-.358 1.343-1.053.12-.36-.413-1.523-.517-2.212-.05-.34.22-.585-.103-.737-.01.166-.264.082-.207.316zm22.737 1.37c.278-.104.53-.233.827-.317-.037-.36.31-.868.103-1.053-.25.516-.735.796-.93 1.37zm-3.204.63c.328-.155.924-.04 1.136-.315-.305-.277.668-1.17.103-1.37-.18.8-.838 1.113-1.24 1.685zm-8.89-.525c.435-.226.835-.486.93-1.055h-.31c-.066.494-.454.66-.62 1.054zm6.41.84c.412.036.572-.187 1.032-.104-.09-.513.473-1.367 0-1.58-.22.687-.717 1.095-1.033 1.685zm-1.552.21h.724c-.186-.74.7-1.428.207-1.79-.344.564-.57 1.245-.932 1.79zm-5.27.318c.465-.157 1.24 0 1.653-.21-.59-.066-.1-1.23-.412-1.58-.48.527-.813 1.207-1.24 1.79zm-3.617-1.37c-.017.17-.347.543-.103.632.128-.396.398-.647.62-.947-.385-.113-.163.395-.516.316zm6.304 1.264c.248-.064.472-.15.828-.105.01-.51.597-1.16 0-1.37-.213.556-.66.875-.828 1.475zm-4.34.21h.93c.068-.384-.223-.403-.206-.736.003.04.333-.824-.104-.843-.21.646-.432 1.16-.62 1.58zm-2.17-.315c-.024-.186.104-.528-.207-.42.05.33-.186.37-.103.735.78.104.868-.294 1.343 0 .078-.36-.42-.133-.31-.526-.035-.29.297-.74 0-.947-.305.32-.255 1.003-.723 1.157zm-1.964.105c.41-.068.416.28.827.21-.157-.365-.332-.914-.103-1.368-.43.195-.463.792-.724 1.158zm-6.615 2c.497-.36.643-.453 1.138-.736-.314-.488-.637-.967-1.138-1.264-.07.893.136 1.587 0 2z"/><path d="M47.437 8.754c.153.473-.577.343-.826.42-.726.227-1.676.496-2.48.527-.02-.118-.104-.058-.103 0-.088-.383.556-.226.827-.315.78-.256 1.825-.853 2.583-.63M55.705 31.078c.002-.594.676-.505 1.137-.632.116.545-1.043.337-.827.632-.045.157-.132-.04-.31 0M47.54 6.963c.024.403-.568.527-.826.316-.618.305-1.398.37-2.274.63-1.59.474-3.308 1.403-4.754 1.58.398-.437 1.267-.394 1.757-.736-1.014-.255-1.52.63-2.687.737.09-.153.082-.407.413-.315-1.22-.157-2.53.697-3.514.316.32-.486.923-.316 1.653-.42.602-.087 1.25-.338 1.86-.422.657-.09 1.334-.04 1.963-.21.527-.143 1.37-.435 1.964-.632.124.138.04.165 0 .315 1.553-.234 2.72-1.244 4.444-1.157M35.862 11.28c-.418.448-1.05.123-1.55.21-.528.095-1.404.663-2.17.528-.043.18.086.514.103 1.053 1.687-.453 3.483-1.06 5.167-.947-.327.41-.85.16-1.24.21-.774.102-1.47.392-2.273.527-.283.097.143.33 0 .632-.43.09-.758.282-1.242.316.496.37 1.363-.257 1.757 0-.704.902-3.018-.04-3.72.632.05.335.93-.177.827.316-1.196.073-2.69-.19-3.824-.42-1.557-.32-3.308.39-4.754-.317.17-.496 1.06-.255 1.136-.844.422.3.817-.18 1.344-.316 1.08-.278 2.816-.05 3.824-.63.39.08.494-.13.827-.107.12-.157.26-.297.413-.42 1.916-.177 3.544-.62 5.374-.422zm-9.198 2.212c.92-.112.918.317 1.86.316.274-.11.87-.643 1.034-.21-.193.014-.345.068-.414.21.834.225 1.227-.46 1.86-.737-1.563.003-3.503.102-4.34.422zm4.96.316c.044-.237.567.016.518-.316-.223-.007-.83.124-.518.316zM82.782 10.544c-.06.517.135.776.517.842.01.962.25 1.29.206 2-.353.08-.132-.427-.517-.315.13.71.446 1.335.31 1.897-.085.344-.65.585-.827 1.052-.19.5-.052.98-.207 1.58-.688.316-.66 1.362-1.137 1.895-.577-.12-.81.684-1.448.842-1.033.257-3.144-.304-4.547-.21-1.218.08-2.772-.373-3.1-1.475-.45-.08-.958.13-1.137 0 .007-.38.43-.332.826-.316.76-2.188 1.773-3.51 3.72-4.528.557-.66 1.13-1.307 1.86-1.79-.02-.12-.103-.058-.103 0-.24-.288.485-.486.828-.527.192-.014.064-.355.207-.42.96-.357 1.96-.67 2.79-1.158.624.172 1.272.318 1.757.632zm-3.203.947c-.025.2.115.234.102.423.865-.253 2.16-.23 2.48-.738-.522-.043-1.84-.163-2.583.316zm.412.633c.008.148-.3.12-.103.21.19-.186.545-.07.825-.104.562-.072 1.677-.126 1.86-.528-.753-.11-1.916.395-2.583.42zm-2.584.632c-.91 1.388-2.505 2.08-3.72 3.16-.12.688-.556.92-.827 1.368-.93 1.54 1.04 2.03 2.48 2.106 1.433.076 3.004-.053 3.618.315.816-.327 1.69-.594 1.757-1.685-.526-.572-.17-1.85.207-2.422-.93-.63-1.278-1.856-1.964-2.738.087-.122.137-.282.104-.526-.554-.382-1.108.476-1.654.42zm2.894-.21c.862-.018 1.565.006 2.067.105-.076-.288.204-.213.206-.42-.825.035-1.69.032-2.274.315zm-.31.315c-.003.354.142.557.31.738-.005-.582.226-.376.207-.843-.25-.043-.226.192-.518.105zm1.24.21c.384-.065 1.064.172 1.137-.21-.205.15-1.624.042-1.137.21zm-.517.422h1.55c-.195-.468-1.266-.132-1.55 0zm1.55.21c-.82.057.507-.034 0 0zm0 .212c-.106.523-1.34-.103-1.446.42.3.316 1.462.228 1.756.21-.052-.26.003-.634-.31-.63zm-.206 1.37c-.076-.29.204-.214.206-.423-.28.066-.82-.133-.93.107.2.147.415.278.723.316zm-.518.735c.254.06.502-.694.104-.632.075.32-.178.31-.104.63zm-.207.842c.326.015.356-.27.414-.526-.298.013-.492.13-.415.526zM66.763 18.23c-.51-.322-.995-.67-1.757-.736-.133-.636-.378-1.16-.827-1.475.395-1.177.75-2.395 1.653-3.054-.074-.322.106-.384.103-.632.526-.673 1.438-1.18 1.964-2 .135-.212.17-.525.31-.738.423-.65.85-.888 1.034-1.79.14-.683-.28-1.08-.414-1.685 1.04-.41 1.887.242 2.894.21-.218-.473-.9-.313-1.24-.42.896-.87 1.563.702 2.377.632.15.354.22.827.414 1.158.376.636 1.053.915 1.448 1.58.063.107.024.39.102.526.044.074.284.14.31.21.388 1.04.078 1.69-.206 2.95-1.027.814-1.95 1.735-2.894 2.632-1.78.63-3.245 1.7-5.064 2-.264.013-.205.354-.207.633zm-.206-5.58c-.01.483-.263.715-.207 1.264-.464.616-1.224.93-1.344 1.895.126.222.39.304.414.63 2.328.347 3.942-.845 5.58-1.052.558-.766 1.627-1.01 2.068-1.896.37.027.378-.316.723-.316.273-.57.665-.898.724-1.37.06-.463-.096-.84 0-1.368-.287-.36-.425-.29-.413-.842-.497-.37-.85-.887-1.343-1.264-.152-.442-.35-.834-.516-1.263-.972.065-1.46.024-2.273-.212.186 2.55-1.7 4.505-3.41 5.792zm.31 4.633c-.248.064-.75-.132-.827.106.203.193.64.03.827-.107zM29.97 17.283c-1.726.064-3.598.576-5.476.632.76-.53 1.825-.314 2.584-.42.188-.028.51-.216 1.033-.317 1.29-.25 2.518-.555 4.135-.422.584.05 1.09.28 1.654.317.645.043 1.258-.326 1.55.21-1.424.67-3.388.025-4.962.106-.436.02-.862.305-1.344.314.12-.298.42-.415.827-.42M68.003 34.87c-.18-.313-.55.06-.826 0-.69.842-2.076.974-2.79 1.79-.355-.107-.693.003-.93.21.058.348.668-.133.62.105-.16.504-1.397.37-2.068.316-.82-.065-1.207-.31-1.964-.63-.36-.153-.863-.265-1.137-.422-.247-.14-.398-.48-.62-.63-.377-.256-.87-.195-.932-.633.283-.43.742-.41 1.137-.633.218-.122.405-.43.62-.526.058-.025.718-.172.93-.21 2.163-.39 4.77.854 7.235.315.142.136.142.5 0 .634.41-.104.9-.21 1.034.21 1.945-.665 4.286-1.143 7.44-1.158.63-.003 1.25.097 1.86.105.724.01 1.406-.223 2.068-.21.36.008.775.235 1.033.21.897-.08 1.137-.905 2.067-.947-.656.732-1.998 1.73-3.1 1.053-1.984.445-4.028-.026-6.098.105-1.746.112-3.67.51-5.167.95-.58.17-.91.55-1.654.526.28-.312.743-.437 1.24-.527zm-9.3 0c.81 1.074 2.305 1.506 3.72 1.684.337-.183.732-.507.723-.737.79-.12 2.178-.51 2.79-1.158-2.353.38-5.214-1.146-7.234.21z"/></g></svg>